<ttFont>
    <TTGlyph name="A" xMin="24" yMin="-1" xMax="469" yMax="659">
      <contour>
        <pt x="259" y="659" on="1"/>
        <pt x="284" y="659" on="0"/>
        <pt x="318" y="615" on="0"/>
        <pt x="345" y="546" on="1"/>
        <pt x="408" y="383" on="0"/>
        <pt x="468" y="35" on="1"/>
        <pt x="469" y="31" on="0"/>
        <pt x="469" y="16" on="0"/>
        <pt x="450" y="-1" on="0"/>
        <pt x="415" y="-1" on="0"/>
        <pt x="391" y="16" on="0"/>
        <pt x="383" y="55" on="0"/>
        <pt x="372" y="112" on="1"/>
        <pt x="348" y="239" on="0"/>
        <pt x="340" y="244" on="1"/>
        <pt x="328" y="251" on="0"/>
        <pt x="193" y="267" on="0"/>
        <pt x="149" y="267" on="0"/>
        <pt x="145" y="263" on="1"/>
        <pt x="127" y="247" on="0"/>
        <pt x="96" y="20" on="1"/>
        <pt x="92" y="1" on="0"/>
        <pt x="24" y="1" on="0"/>
        <pt x="24" y="30" on="1"/>
        <pt x="24" y="102" on="0"/>
        <pt x="130" y="508" on="0"/>
        <pt x="165" y="574" on="1"/>
        <pt x="209" y="659" on="0"/>
      </contour>
      <contour>
        <pt x="255" y="548" on="1"/>
        <pt x="240" y="548" on="0"/>
        <pt x="166" y="371" on="0"/>
        <pt x="166" y="350" on="1"/>
        <pt x="166" y="345" on="0"/>
        <pt x="168" y="343" on="1"/>
        <pt x="176" y="335" on="0"/>
        <pt x="286" y="323" on="0"/>
        <pt x="322" y="323" on="0"/>
        <pt x="326" y="328" on="0"/>
        <pt x="326" y="355" on="0"/>
        <pt x="272" y="548" on="0"/>
      </contour>
    </TTGlyph>
    <TTGlyph name="AE" xMin="36" yMin="0" xMax="638" yMax="643">
      <contour>
        <pt x="559" y="368" on="1"/>
        <pt x="595" y="362" on="0"/>
        <pt x="595" y="337" on="1"/>
        <pt x="595" y="324" on="0"/>
        <pt x="572" y="299" on="0"/>
        <pt x="556" y="295" on="1"/>
        <pt x="540" y="295" on="0"/>
        <pt x="486" y="299" on="0"/>
        <pt x="427" y="299" on="1"/>
        <pt x="401" y="299" on="1"/>
        <pt x="407" y="102" on="1"/>
        <pt x="407" y="76" on="1"/>
        <pt x="595" y="79" on="1"/>
        <pt x="628" y="74" on="0"/>
        <pt x="628" y="50" on="1"/>
        <pt x="628" y="30" on="0"/>
        <pt x="605" y="12" on="1"/>
        <pt x="593" y="4" on="0"/>
        <pt x="583" y="1" on="1"/>
        <pt x="380" y="1" on="1"/>
        <pt x="377" y="1" on="0"/>
        <pt x="375" y="1" on="1"/>
        <pt x="320" y="1" on="0"/>
        <pt x="320" y="31" on="1"/>
        <pt x="320" y="31" on="0"/>
        <pt x="323" y="289" on="1"/>
        <pt x="233" y="287" on="1"/>
        <pt x="185" y="287" on="0"/>
        <pt x="152" y="296" on="1"/>
        <pt x="134" y="223" on="0"/>
        <pt x="123" y="131" on="1"/>
        <pt x="108" y="25" on="1"/>
        <pt x="105" y="1" on="0"/>
        <pt x="36" y="1" on="0"/>
        <pt x="36" y="29" on="1"/>
        <pt x="36" y="119" on="0"/>
        <pt x="74" y="342" on="0"/>
        <pt x="124" y="427" on="1"/>
        <pt x="196" y="552" on="0"/>
        <pt x="301" y="643" on="0"/>
        <pt x="372" y="643" on="1"/>
        <pt x="601" y="643" on="1"/>
        <pt x="638" y="631" on="0"/>
        <pt x="638" y="608" on="1"/>
        <pt x="638" y="560" on="0"/>
        <pt x="522" y="560" on="1"/>
        <pt x="487" y="560" on="1"/>
        <pt x="481" y="560" on="0"/>
        <pt x="396" y="568" on="1"/>
        <pt x="396" y="416" on="0"/>
        <pt x="400" y="372" on="1"/>
      </contour>
      <contour>
        <pt x="313" y="563" on="1"/>
        <pt x="280" y="541" on="0"/>
        <pt x="202" y="442" on="0"/>
        <pt x="172" y="373" on="1"/>
        <pt x="200" y="368" on="0"/>
        <pt x="226" y="368" on="1"/>
        <pt x="317" y="372" on="1"/>
        <pt x="318" y="385" on="0"/>
        <pt x="318" y="438" on="0"/>
      </contour>
    </TTGlyph>
    <TTGlyph name="AEacute" xMin="36" yMin="0" xMax="638" yMax="878">
      <contour>
        <pt x="351" y="861" on="1"/>
        <pt x="357" y="878" on="0"/>
        <pt x="396" y="878" on="0"/>
        <pt x="419" y="854" on="0"/>
        <pt x="419" y="839" on="0"/>
        <pt x="417" y="834" on="1"/>
        <pt x="401" y="789" on="0"/>
        <pt x="326" y="709" on="0"/>
        <pt x="286" y="709" on="0"/>
        <pt x="266" y="729" on="0"/>
        <pt x="266" y="756" on="0"/>
        <pt x="282" y="768" on="1"/>
        <pt x="335" y="812" on="0"/>
      </contour>
      <contour>
        <pt x="559" y="368" on="1"/>
        <pt x="595" y="362" on="0"/>
        <pt x="595" y="337" on="1"/>
        <pt x="595" y="324" on="0"/>
        <pt x="572" y="299" on="0"/>
        <pt x="556" y="295" on="1"/>
        <pt x="540" y="295" on="0"/>
        <pt x="486" y="299" on="0"/>
        <pt x="427" y="299" on="1"/>
        <pt x="401" y="299" on="1"/>
        <pt x="407" y="102" on="1"/>
        <pt x="407" y="76" on="1"/>
        <pt x="595" y="79" on="1"/>
        <pt x="628" y="74" on="0"/>
        <pt x="628" y="50" on="1"/>
        <pt x="628" y="30" on="0"/>
        <pt x="605" y="12" on="1"/>
        <pt x="593" y="4" on="0"/>
        <pt x="583" y="1" on="1"/>
        <pt x="380" y="1" on="1"/>
        <pt x="377" y="1" on="0"/>
        <pt x="375" y="1" on="1"/>
        <pt x="320" y="1" on="0"/>
        <pt x="320" y="31" on="1"/>
        <pt x="323" y="289" on="1"/>
        <pt x="233" y="287" on="1"/>
        <pt x="185" y="287" on="0"/>
        <pt x="152" y="296" on="1"/>
        <pt x="134" y="223" on="0"/>
        <pt x="123" y="131" on="1"/>
        <pt x="108" y="25" on="1"/>
        <pt x="105" y="1" on="0"/>
        <pt x="36" y="1" on="0"/>
        <pt x="36" y="29" on="1"/>
        <pt x="36" y="119" on="0"/>
        <pt x="74" y="342" on="0"/>
        <pt x="124" y="427" on="1"/>
        <pt x="196" y="552" on="0"/>
        <pt x="301" y="643" on="0"/>
        <pt x="372" y="643" on="1"/>
        <pt x="601" y="643" on="1"/>
        <pt x="638" y="631" on="0"/>
        <pt x="638" y="608" on="1"/>
        <pt x="638" y="560" on="0"/>
        <pt x="522" y="560" on="1"/>
        <pt x="487" y="560" on="1"/>
        <pt x="481" y="560" on="0"/>
        <pt x="396" y="568" on="1"/>
        <pt x="396" y="416" on="0"/>
        <pt x="400" y="372" on="1"/>
      </contour>
      <contour>
        <pt x="313" y="563" on="1"/>
        <pt x="280" y="541" on="0"/>
        <pt x="202" y="442" on="0"/>
        <pt x="172" y="373" on="1"/>
        <pt x="200" y="368" on="0"/>
        <pt x="226" y="368" on="1"/>
        <pt x="317" y="372" on="1"/>
        <pt x="318" y="385" on="0"/>
        <pt x="318" y="438" on="0"/>
      </contour>
    </TTGlyph>
    <TTGlyph name="Aacute" xMin="24" yMin="-1" xMax="469" yMax="876">
      <contour>
        <pt x="262" y="859" on="1"/>
        <pt x="268" y="876" on="0"/>
        <pt x="307" y="876" on="0"/>
        <pt x="330" y="852" on="0"/>
        <pt x="330" y="837" on="0"/>
        <pt x="328" y="832" on="1"/>
        <pt x="312" y="787" on="0"/>
        <pt x="237" y="707" on="0"/>
        <pt x="197" y="707" on="0"/>
        <pt x="177" y="727" on="0"/>
        <pt x="177" y="754" on="0"/>
        <pt x="192" y="766" on="1"/>
        <pt x="246" y="810" on="0"/>
      </contour>
      <contour>
        <pt x="259" y="659" on="1"/>
        <pt x="284" y="659" on="0"/>
        <pt x="318" y="615" on="0"/>
        <pt x="345" y="546" on="1"/>
        <pt x="408" y="383" on="0"/>
        <pt x="468" y="35" on="1"/>
        <pt x="469" y="31" on="0"/>
        <pt x="469" y="16" on="0"/>
        <pt x="450" y="-1" on="0"/>
        <pt x="415" y="-1" on="0"/>
        <pt x="391" y="16" on="0"/>
        <pt x="383" y="55" on="0"/>
        <pt x="372" y="112" on="1"/>
        <pt x="348" y="239" on="0"/>
        <pt x="340" y="244" on="1"/>
        <pt x="328" y="251" on="0"/>
        <pt x="193" y="267" on="0"/>
        <pt x="149" y="267" on="0"/>
        <pt x="145" y="263" on="1"/>
        <pt x="127" y="247" on="0"/>
        <pt x="96" y="20" on="1"/>
        <pt x="92" y="1" on="0"/>
        <pt x="24" y="1" on="0"/>
        <pt x="24" y="30" on="1"/>
        <pt x="24" y="102" on="0"/>
        <pt x="130" y="508" on="0"/>
        <pt x="165" y="574" on="1"/>
        <pt x="209" y="659" on="0"/>
      </contour>
      <contour>
        <pt x="255" y="548" on="1"/>
        <pt x="240" y="548" on="0"/>
        <pt x="166" y="371" on="0"/>
        <pt x="166" y="350" on="1"/>
        <pt x="166" y="345" on="0"/>
        <pt x="168" y="343" on="1"/>
        <pt x="176" y="335" on="0"/>
        <pt x="286" y="323" on="0"/>
        <pt x="322" y="323" on="0"/>
        <pt x="326" y="328" on="0"/>
        <pt x="326" y="355" on="0"/>
        <pt x="272" y="548" on="0"/>
      </contour>
    </TTGlyph>
    <TTGlyph name="Abreve" xMin="24" yMin="-1" xMax="469" yMax="836">
      <contour>
        <pt x="128" y="813" on="0"/>
        <pt x="149" y="836" on="0"/>
        <pt x="185" y="836" on="0"/>
        <pt x="206" y="795" on="0"/>
        <pt x="216" y="778" on="0"/>
        <pt x="240" y="761" on="0"/>
        <pt x="279" y="761" on="0"/>
        <pt x="303" y="783" on="0"/>
        <pt x="332" y="832" on="0"/>
        <pt x="364" y="832" on="0"/>
        <pt x="382" y="812" on="0"/>
        <pt x="382" y="796" on="1"/>
        <pt x="382" y="754" on="0"/>
        <pt x="305" y="696" on="0"/>
        <pt x="207" y="696" on="0"/>
        <pt x="128" y="752" on="0"/>
        <pt x="128" y="797" on="1"/>
      </contour>
      <contour>
        <pt x="259" y="659" on="1"/>
        <pt x="284" y="659" on="0"/>
        <pt x="318" y="615" on="0"/>
        <pt x="345" y="546" on="1"/>
        <pt x="408" y="383" on="0"/>
        <pt x="468" y="35" on="1"/>
        <pt x="469" y="31" on="0"/>
        <pt x="469" y="16" on="0"/>
        <pt x="450" y="-1" on="0"/>
        <pt x="415" y="-1" on="0"/>
        <pt x="391" y="16" on="0"/>
        <pt x="383" y="55" on="0"/>
        <pt x="372" y="112" on="1"/>
        <pt x="348" y="239" on="0"/>
        <pt x="340" y="244" on="1"/>
        <pt x="328" y="251" on="0"/>
        <pt x="193" y="267" on="0"/>
        <pt x="149" y="267" on="0"/>
        <pt x="145" y="263" on="1"/>
        <pt x="127" y="247" on="0"/>
        <pt x="96" y="20" on="1"/>
        <pt x="92" y="1" on="0"/>
        <pt x="24" y="1" on="0"/>
        <pt x="24" y="30" on="1"/>
        <pt x="24" y="102" on="0"/>
        <pt x="130" y="508" on="0"/>
        <pt x="165" y="574" on="1"/>
        <pt x="209" y="659" on="0"/>
      </contour>
      <contour>
        <pt x="255" y="548" on="1"/>
        <pt x="240" y="548" on="0"/>
        <pt x="166" y="371" on="0"/>
        <pt x="166" y="350" on="1"/>
        <pt x="166" y="345" on="0"/>
        <pt x="168" y="343" on="1"/>
        <pt x="176" y="335" on="0"/>
        <pt x="286" y="323" on="0"/>
        <pt x="322" y="323" on="0"/>
        <pt x="326" y="328" on="0"/>
        <pt x="326" y="355" on="0"/>
        <pt x="272" y="548" on="0"/>
      </contour>
    </TTGlyph>
    <TTGlyph name="Abreveacute" xMin="24" yMin="-1" xMax="469" yMax="1013">
      <contour>
        <pt x="264" y="996" on="1"/>
        <pt x="270" y="1013" on="0"/>
        <pt x="309" y="1013" on="0"/>
        <pt x="332" y="989" on="0"/>
        <pt x="332" y="974" on="0"/>
        <pt x="330" y="969" on="1"/>
        <pt x="314" y="924" on="0"/>
        <pt x="239" y="844" on="0"/>
        <pt x="199" y="844" on="0"/>
        <pt x="179" y="864" on="0"/>
        <pt x="179" y="891" on="0"/>
        <pt x="194" y="904" on="1"/>
        <pt x="248" y="947" on="0"/>
      </contour>
      <contour>
        <pt x="128" y="813" on="0"/>
        <pt x="149" y="836" on="0"/>
        <pt x="185" y="836" on="0"/>
        <pt x="206" y="795" on="0"/>
        <pt x="216" y="778" on="0"/>
        <pt x="240" y="761" on="0"/>
        <pt x="279" y="761" on="0"/>
        <pt x="303" y="783" on="0"/>
        <pt x="332" y="832" on="0"/>
        <pt x="364" y="832" on="0"/>
        <pt x="382" y="812" on="0"/>
        <pt x="382" y="796" on="1"/>
        <pt x="382" y="754" on="0"/>
        <pt x="305" y="696" on="0"/>
        <pt x="207" y="696" on="0"/>
        <pt x="128" y="752" on="0"/>
        <pt x="128" y="797" on="1"/>
      </contour>
      <contour>
        <pt x="259" y="659" on="1"/>
        <pt x="284" y="659" on="0"/>
        <pt x="318" y="615" on="0"/>
        <pt x="345" y="546" on="1"/>
        <pt x="408" y="383" on="0"/>
        <pt x="468" y="35" on="1"/>
        <pt x="469" y="31" on="0"/>
        <pt x="469" y="16" on="0"/>
        <pt x="450" y="-1" on="0"/>
        <pt x="415" y="-1" on="0"/>
        <pt x="391" y="16" on="0"/>
        <pt x="383" y="55" on="0"/>
        <pt x="372" y="112" on="1"/>
        <pt x="348" y="239" on="0"/>
        <pt x="340" y="244" on="1"/>
        <pt x="328" y="251" on="0"/>
        <pt x="193" y="267" on="0"/>
        <pt x="149" y="267" on="0"/>
        <pt x="145" y="263" on="1"/>
        <pt x="127" y="247" on="0"/>
        <pt x="96" y="20" on="1"/>
        <pt x="92" y="1" on="0"/>
        <pt x="24" y="1" on="0"/>
        <pt x="24" y="30" on="1"/>
        <pt x="24" y="102" on="0"/>
        <pt x="130" y="508" on="0"/>
        <pt x="165" y="574" on="1"/>
        <pt x="209" y="659" on="0"/>
      </contour>
      <contour>
        <pt x="255" y="548" on="1"/>
        <pt x="240" y="548" on="0"/>
        <pt x="166" y="371" on="0"/>
        <pt x="166" y="350" on="1"/>
        <pt x="166" y="345" on="0"/>
        <pt x="168" y="343" on="1"/>
        <pt x="176" y="335" on="0"/>
        <pt x="286" y="323" on="0"/>
        <pt x="322" y="323" on="0"/>
        <pt x="326" y="328" on="0"/>
        <pt x="326" y="355" on="0"/>
        <pt x="272" y="548" on="0"/>
      </contour>
    </TTGlyph>
    <TTGlyph name="Abrevedotbelow" xMin="24" yMin="-131" xMax="469" yMax="836">
      <contour>
        <pt x="128" y="813" on="0"/>
        <pt x="149" y="836" on="0"/>
        <pt x="185" y="836" on="0"/>
        <pt x="206" y="795" on="0"/>
        <pt x="216" y="778" on="0"/>
        <pt x="240" y="761" on="0"/>
        <pt x="279" y="761" on="0"/>
        <pt x="303" y="783" on="0"/>
        <pt x="332" y="832" on="0"/>
        <pt x="364" y="832" on="0"/>
        <pt x="382" y="812" on="0"/>
        <pt x="382" y="796" on="1"/>
        <pt x="382" y="754" on="0"/>
        <pt x="305" y="696" on="0"/>
        <pt x="207" y="696" on="0"/>
        <pt x="128" y="752" on="0"/>
        <pt x="128" y="797" on="1"/>
      </contour>
      <contour>
        <pt x="259" y="659" on="1"/>
        <pt x="284" y="659" on="0"/>
        <pt x="318" y="615" on="0"/>
        <pt x="345" y="546" on="1"/>
        <pt x="408" y="383" on="0"/>
        <pt x="468" y="35" on="1"/>
        <pt x="469" y="31" on="0"/>
        <pt x="469" y="16" on="0"/>
        <pt x="450" y="-1" on="0"/>
        <pt x="415" y="-1" on="0"/>
        <pt x="391" y="16" on="0"/>
        <pt x="383" y="55" on="0"/>
        <pt x="372" y="112" on="1"/>
        <pt x="348" y="239" on="0"/>
        <pt x="340" y="244" on="1"/>
        <pt x="328" y="251" on="0"/>
        <pt x="193" y="267" on="0"/>
        <pt x="149" y="267" on="0"/>
        <pt x="145" y="263" on="1"/>
        <pt x="127" y="247" on="0"/>
        <pt x="96" y="20" on="1"/>
        <pt x="92" y="1" on="0"/>
        <pt x="24" y="1" on="0"/>
        <pt x="24" y="30" on="1"/>
        <pt x="24" y="102" on="0"/>
        <pt x="130" y="508" on="0"/>
        <pt x="165" y="574" on="1"/>
        <pt x="209" y="659" on="0"/>
      </contour>
      <contour>
        <pt x="255" y="548" on="1"/>
        <pt x="240" y="548" on="0"/>
        <pt x="166" y="371" on="0"/>
        <pt x="166" y="350" on="1"/>
        <pt x="166" y="345" on="0"/>
        <pt x="168" y="343" on="1"/>
        <pt x="176" y="335" on="0"/>
        <pt x="286" y="323" on="0"/>
        <pt x="322" y="323" on="0"/>
        <pt x="326" y="328" on="0"/>
        <pt x="326" y="355" on="0"/>
        <pt x="272" y="548" on="0"/>
      </contour>
      <contour>
        <pt x="269" y="-32" on="0"/>
        <pt x="298" y="-62" on="0"/>
        <pt x="298" y="-97" on="0"/>
        <pt x="267" y="-131" on="0"/>
        <pt x="232" y="-131" on="0"/>
        <pt x="206" y="-103" on="0"/>
        <pt x="204" y="-79" on="1"/>
        <pt x="208" y="-56" on="0"/>
        <pt x="218" y="-45" on="1"/>
        <pt x="230" y="-32" on="0"/>
      </contour>
    </TTGlyph>
    <TTGlyph name="Abrevegrave" xMin="24" yMin="-1" xMax="469" yMax="1007">
      <contour>
        <pt x="331" y="847" on="1"/>
        <pt x="322" y="833" on="0"/>
        <pt x="295" y="833" on="0"/>
        <pt x="258" y="853" on="0"/>
        <pt x="203" y="907" on="0"/>
        <pt x="176" y="958" on="0"/>
        <pt x="176" y="977" on="0"/>
        <pt x="180" y="994" on="0"/>
        <pt x="203" y="1007" on="0"/>
        <pt x="217" y="1007" on="0"/>
        <pt x="221" y="1006" on="1"/>
        <pt x="236" y="1002" on="0"/>
        <pt x="288" y="915" on="0"/>
        <pt x="319" y="899" on="1"/>
        <pt x="335" y="891" on="0"/>
        <pt x="339" y="855" on="0"/>
      </contour>
      <contour>
        <pt x="128" y="813" on="0"/>
        <pt x="149" y="836" on="0"/>
        <pt x="185" y="836" on="0"/>
        <pt x="206" y="795" on="0"/>
        <pt x="216" y="778" on="0"/>
        <pt x="240" y="761" on="0"/>
        <pt x="279" y="761" on="0"/>
        <pt x="303" y="783" on="0"/>
        <pt x="332" y="832" on="0"/>
        <pt x="364" y="832" on="0"/>
        <pt x="382" y="812" on="0"/>
        <pt x="382" y="796" on="1"/>
        <pt x="382" y="754" on="0"/>
        <pt x="305" y="696" on="0"/>
        <pt x="207" y="696" on="0"/>
        <pt x="128" y="752" on="0"/>
        <pt x="128" y="797" on="1"/>
      </contour>
      <contour>
        <pt x="259" y="659" on="1"/>
        <pt x="284" y="659" on="0"/>
        <pt x="318" y="615" on="0"/>
        <pt x="345" y="546" on="1"/>
        <pt x="408" y="383" on="0"/>
        <pt x="468" y="35" on="1"/>
        <pt x="469" y="31" on="0"/>
        <pt x="469" y="16" on="0"/>
        <pt x="450" y="-1" on="0"/>
        <pt x="415" y="-1" on="0"/>
        <pt x="391" y="16" on="0"/>
        <pt x="383" y="55" on="0"/>
        <pt x="372" y="112" on="1"/>
        <pt x="348" y="239" on="0"/>
        <pt x="340" y="244" on="1"/>
        <pt x="328" y="251" on="0"/>
        <pt x="193" y="267" on="0"/>
        <pt x="149" y="267" on="0"/>
        <pt x="145" y="263" on="1"/>
        <pt x="127" y="247" on="0"/>
        <pt x="96" y="20" on="1"/>
        <pt x="92" y="1" on="0"/>
        <pt x="24" y="1" on="0"/>
        <pt x="24" y="30" on="1"/>
        <pt x="24" y="102" on="0"/>
        <pt x="130" y="508" on="0"/>
        <pt x="165" y="574" on="1"/>
        <pt x="209" y="659" on="0"/>
      </contour>
      <contour>
        <pt x="255" y="548" on="1"/>
        <pt x="240" y="548" on="0"/>
        <pt x="166" y="371" on="0"/>
        <pt x="166" y="350" on="1"/>
        <pt x="166" y="345" on="0"/>
        <pt x="168" y="343" on="1"/>
        <pt x="176" y="335" on="0"/>
        <pt x="286" y="323" on="0"/>
        <pt x="322" y="323" on="0"/>
        <pt x="326" y="328" on="0"/>
        <pt x="326" y="355" on="0"/>
        <pt x="272" y="548" on="0"/>
      </contour>
    </TTGlyph>
    <TTGlyph name="Abrevehookabove" xMin="24" yMin="-1" xMax="469" yMax="996">
      <contour>
        <pt x="260" y="995" on="1"/>
        <pt x="293" y="995" on="0"/>
        <pt x="329" y="954" on="0"/>
        <pt x="329" y="927" on="0"/>
        <pt x="323" y="911" on="0"/>
        <pt x="293" y="860" on="1"/>
        <pt x="274" y="830" on="0"/>
        <pt x="255" y="830" on="1"/>
        <pt x="249" y="830" on="0"/>
        <pt x="244" y="832" on="1"/>
        <pt x="231" y="837" on="0"/>
        <pt x="234" y="851" on="1"/>
        <pt x="237" y="872" on="0"/>
        <pt x="268" y="909" on="0"/>
        <pt x="276" y="940" on="0"/>
        <pt x="259" y="944" on="1"/>
        <pt x="251" y="944" on="0"/>
        <pt x="244" y="935" on="0"/>
        <pt x="237" y="923" on="0"/>
        <pt x="227" y="912" on="0"/>
        <pt x="208" y="912" on="0"/>
        <pt x="199" y="922" on="1"/>
        <pt x="191" y="932" on="0"/>
        <pt x="197" y="964" on="0"/>
        <pt x="234" y="995" on="0"/>
        <pt x="257" y="995" on="1"/>
        <pt x="258" y="995" on="0"/>
      </contour>
      <contour>
        <pt x="128" y="813" on="0"/>
        <pt x="149" y="836" on="0"/>
        <pt x="185" y="836" on="0"/>
        <pt x="206" y="795" on="0"/>
        <pt x="216" y="778" on="0"/>
        <pt x="240" y="761" on="0"/>
        <pt x="279" y="761" on="0"/>
        <pt x="303" y="783" on="0"/>
        <pt x="332" y="832" on="0"/>
        <pt x="364" y="832" on="0"/>
        <pt x="382" y="812" on="0"/>
        <pt x="382" y="796" on="1"/>
        <pt x="382" y="754" on="0"/>
        <pt x="305" y="696" on="0"/>
        <pt x="207" y="696" on="0"/>
        <pt x="128" y="752" on="0"/>
        <pt x="128" y="797" on="1"/>
      </contour>
      <contour>
        <pt x="259" y="659" on="1"/>
        <pt x="284" y="659" on="0"/>
        <pt x="318" y="615" on="0"/>
        <pt x="345" y="546" on="1"/>
        <pt x="408" y="383" on="0"/>
        <pt x="468" y="35" on="1"/>
        <pt x="469" y="31" on="0"/>
        <pt x="469" y="16" on="0"/>
        <pt x="450" y="-1" on="0"/>
        <pt x="415" y="-1" on="0"/>
        <pt x="391" y="16" on="0"/>
        <pt x="383" y="55" on="0"/>
        <pt x="372" y="112" on="1"/>
        <pt x="348" y="239" on="0"/>
        <pt x="340" y="244" on="1"/>
        <pt x="328" y="251" on="0"/>
        <pt x="193" y="267" on="0"/>
        <pt x="149" y="267" on="0"/>
        <pt x="145" y="263" on="1"/>
        <pt x="127" y="247" on="0"/>
        <pt x="96" y="20" on="1"/>
        <pt x="92" y="1" on="0"/>
        <pt x="24" y="1" on="0"/>
        <pt x="24" y="30" on="1"/>
        <pt x="24" y="102" on="0"/>
        <pt x="130" y="508" on="0"/>
        <pt x="165" y="574" on="1"/>
        <pt x="209" y="659" on="0"/>
      </contour>
      <contour>
        <pt x="255" y="548" on="1"/>
        <pt x="240" y="548" on="0"/>
        <pt x="166" y="371" on="0"/>
        <pt x="166" y="350" on="1"/>
        <pt x="166" y="345" on="0"/>
        <pt x="168" y="343" on="1"/>
        <pt x="176" y="335" on="0"/>
        <pt x="286" y="323" on="0"/>
        <pt x="322" y="323" on="0"/>
        <pt x="326" y="328" on="0"/>
        <pt x="326" y="355" on="0"/>
        <pt x="272" y="548" on="0"/>
      </contour>
    </TTGlyph>
    <TTGlyph name="Abrevetilde" xMin="24" yMin="-1" xMax="469" yMax="966">
      <contour>
        <pt x="122" y="918" on="0"/>
        <pt x="181" y="966" on="0"/>
        <pt x="234" y="966" on="0"/>
        <pt x="266" y="950" on="0"/>
        <pt x="272" y="940" on="1"/>
        <pt x="288" y="914" on="0"/>
        <pt x="314" y="914" on="0"/>
        <pt x="345" y="962" on="0"/>
        <pt x="372" y="962" on="0"/>
        <pt x="392" y="938" on="0"/>
        <pt x="392" y="925" on="1"/>
        <pt x="392" y="889" on="0"/>
        <pt x="333" y="851" on="0"/>
        <pt x="278" y="851" on="0"/>
        <pt x="248" y="874" on="0"/>
        <pt x="226" y="897" on="0"/>
        <pt x="213" y="897" on="1"/>
        <pt x="207" y="897" on="0"/>
        <pt x="169" y="852" on="0"/>
        <pt x="143" y="852" on="0"/>
        <pt x="122" y="877" on="0"/>
      </contour>
      <contour>
        <pt x="128" y="813" on="0"/>
        <pt x="149" y="836" on="0"/>
        <pt x="185" y="836" on="0"/>
        <pt x="206" y="795" on="0"/>
        <pt x="216" y="778" on="0"/>
        <pt x="240" y="761" on="0"/>
        <pt x="279" y="761" on="0"/>
        <pt x="303" y="783" on="0"/>
        <pt x="332" y="832" on="0"/>
        <pt x="364" y="832" on="0"/>
        <pt x="382" y="812" on="0"/>
        <pt x="382" y="796" on="1"/>
        <pt x="382" y="754" on="0"/>
        <pt x="305" y="696" on="0"/>
        <pt x="207" y="696" on="0"/>
        <pt x="128" y="752" on="0"/>
        <pt x="128" y="797" on="1"/>
      </contour>
      <contour>
        <pt x="259" y="659" on="1"/>
        <pt x="284" y="659" on="0"/>
        <pt x="318" y="615" on="0"/>
        <pt x="345" y="546" on="1"/>
        <pt x="408" y="383" on="0"/>
        <pt x="468" y="35" on="1"/>
        <pt x="469" y="31" on="0"/>
        <pt x="469" y="16" on="0"/>
        <pt x="450" y="-1" on="0"/>
        <pt x="415" y="-1" on="0"/>
        <pt x="391" y="16" on="0"/>
        <pt x="383" y="55" on="0"/>
        <pt x="372" y="112" on="1"/>
        <pt x="348" y="239" on="0"/>
        <pt x="340" y="244" on="1"/>
        <pt x="328" y="251" on="0"/>
        <pt x="193" y="267" on="0"/>
        <pt x="149" y="267" on="0"/>
        <pt x="145" y="263" on="1"/>
        <pt x="127" y="247" on="0"/>
        <pt x="96" y="20" on="1"/>
        <pt x="92" y="1" on="0"/>
        <pt x="24" y="1" on="0"/>
        <pt x="24" y="30" on="1"/>
        <pt x="24" y="102" on="0"/>
        <pt x="130" y="508" on="0"/>
        <pt x="165" y="574" on="1"/>
        <pt x="209" y="659" on="0"/>
      </contour>
      <contour>
        <pt x="255" y="548" on="1"/>
        <pt x="240" y="548" on="0"/>
        <pt x="166" y="371" on="0"/>
        <pt x="166" y="350" on="1"/>
        <pt x="166" y="345" on="0"/>
        <pt x="168" y="343" on="1"/>
        <pt x="176" y="335" on="0"/>
        <pt x="286" y="323" on="0"/>
        <pt x="322" y="323" on="0"/>
        <pt x="326" y="328" on="0"/>
        <pt x="326" y="355" on="0"/>
        <pt x="272" y="548" on="0"/>
      </contour>
    </TTGlyph>
    <TTGlyph name="Acaron" xMin="24" yMin="-1" xMax="469" yMax="854">
      <contour>
        <pt x="344" y="849" on="1"/>
        <pt x="360" y="849" on="0"/>
        <pt x="379" y="825" on="0"/>
        <pt x="378" y="794" on="0"/>
        <pt x="274" y="718" on="0"/>
        <pt x="253" y="718" on="1"/>
        <pt x="230" y="718" on="0"/>
        <pt x="134" y="797" on="0"/>
        <pt x="134" y="820" on="1"/>
        <pt x="134" y="834" on="0"/>
        <pt x="159" y="854" on="0"/>
        <pt x="179" y="853" on="0"/>
        <pt x="240" y="807" on="0"/>
        <pt x="257" y="786" on="1"/>
        <pt x="320" y="849" on="0"/>
      </contour>
      <contour>
        <pt x="259" y="659" on="1"/>
        <pt x="284" y="659" on="0"/>
        <pt x="318" y="615" on="0"/>
        <pt x="345" y="546" on="1"/>
        <pt x="408" y="383" on="0"/>
        <pt x="468" y="35" on="1"/>
        <pt x="469" y="31" on="0"/>
        <pt x="469" y="16" on="0"/>
        <pt x="450" y="-1" on="0"/>
        <pt x="415" y="-1" on="0"/>
        <pt x="391" y="16" on="0"/>
        <pt x="383" y="55" on="0"/>
        <pt x="372" y="112" on="1"/>
        <pt x="348" y="239" on="0"/>
        <pt x="340" y="244" on="1"/>
        <pt x="328" y="251" on="0"/>
        <pt x="193" y="267" on="0"/>
        <pt x="149" y="267" on="0"/>
        <pt x="145" y="263" on="1"/>
        <pt x="127" y="247" on="0"/>
        <pt x="96" y="20" on="1"/>
        <pt x="92" y="1" on="0"/>
        <pt x="24" y="1" on="0"/>
        <pt x="24" y="30" on="1"/>
        <pt x="24" y="102" on="0"/>
        <pt x="130" y="508" on="0"/>
        <pt x="165" y="574" on="1"/>
        <pt x="209" y="659" on="0"/>
      </contour>
      <contour>
        <pt x="255" y="548" on="1"/>
        <pt x="240" y="548" on="0"/>
        <pt x="166" y="371" on="0"/>
        <pt x="166" y="350" on="1"/>
        <pt x="166" y="345" on="0"/>
        <pt x="168" y="343" on="1"/>
        <pt x="176" y="335" on="0"/>
        <pt x="286" y="323" on="0"/>
        <pt x="322" y="323" on="0"/>
        <pt x="326" y="328" on="0"/>
        <pt x="326" y="355" on="0"/>
        <pt x="272" y="548" on="0"/>
      </contour>
    </TTGlyph>
    <TTGlyph name="Acircumflex" xMin="24" yMin="-1" xMax="469" yMax="851">
      <contour>
        <pt x="135" y="771" on="0"/>
        <pt x="237" y="851" on="0"/>
        <pt x="282" y="851" on="0"/>
        <pt x="380" y="776" on="0"/>
        <pt x="380" y="753" on="1"/>
        <pt x="380" y="739" on="0"/>
        <pt x="356" y="719" on="0"/>
        <pt x="340" y="719" on="0"/>
        <pt x="268" y="783" on="0"/>
        <pt x="249" y="783" on="0"/>
        <pt x="182" y="717" on="0"/>
        <pt x="154" y="717" on="0"/>
        <pt x="135" y="740" on="0"/>
      </contour>
      <contour>
        <pt x="259" y="659" on="1"/>
        <pt x="284" y="659" on="0"/>
        <pt x="318" y="615" on="0"/>
        <pt x="345" y="546" on="1"/>
        <pt x="408" y="383" on="0"/>
        <pt x="468" y="35" on="1"/>
        <pt x="469" y="31" on="0"/>
        <pt x="469" y="16" on="0"/>
        <pt x="450" y="-1" on="0"/>
        <pt x="415" y="-1" on="0"/>
        <pt x="391" y="16" on="0"/>
        <pt x="383" y="55" on="0"/>
        <pt x="372" y="112" on="1"/>
        <pt x="348" y="239" on="0"/>
        <pt x="340" y="244" on="1"/>
        <pt x="328" y="251" on="0"/>
        <pt x="193" y="267" on="0"/>
        <pt x="149" y="267" on="0"/>
        <pt x="145" y="263" on="1"/>
        <pt x="127" y="247" on="0"/>
        <pt x="96" y="20" on="1"/>
        <pt x="92" y="1" on="0"/>
        <pt x="24" y="1" on="0"/>
        <pt x="24" y="30" on="1"/>
        <pt x="24" y="102" on="0"/>
        <pt x="130" y="508" on="0"/>
        <pt x="165" y="574" on="1"/>
        <pt x="209" y="659" on="0"/>
      </contour>
      <contour>
        <pt x="255" y="548" on="1"/>
        <pt x="240" y="548" on="0"/>
        <pt x="166" y="371" on="0"/>
        <pt x="166" y="350" on="1"/>
        <pt x="166" y="345" on="0"/>
        <pt x="168" y="343" on="1"/>
        <pt x="176" y="335" on="0"/>
        <pt x="286" y="323" on="0"/>
        <pt x="322" y="323" on="0"/>
        <pt x="326" y="328" on="0"/>
        <pt x="326" y="355" on="0"/>
        <pt x="272" y="548" on="0"/>
      </contour>
    </TTGlyph>
    <TTGlyph name="Acircumflexacute" xMin="24" yMin="-1" xMax="491" yMax="982">
      <contour>
        <pt x="423" y="965" on="1"/>
        <pt x="429" y="982" on="0"/>
        <pt x="468" y="982" on="0"/>
        <pt x="491" y="958" on="0"/>
        <pt x="491" y="943" on="0"/>
        <pt x="489" y="938" on="1"/>
        <pt x="473" y="893" on="0"/>
        <pt x="398" y="813" on="0"/>
        <pt x="358" y="813" on="0"/>
        <pt x="338" y="833" on="0"/>
        <pt x="338" y="860" on="0"/>
        <pt x="354" y="872" on="1"/>
        <pt x="407" y="916" on="0"/>
      </contour>
      <contour>
        <pt x="135" y="771" on="0"/>
        <pt x="237" y="851" on="0"/>
        <pt x="282" y="851" on="0"/>
        <pt x="380" y="776" on="0"/>
        <pt x="380" y="753" on="1"/>
        <pt x="380" y="739" on="0"/>
        <pt x="356" y="719" on="0"/>
        <pt x="340" y="719" on="0"/>
        <pt x="268" y="783" on="0"/>
        <pt x="249" y="783" on="0"/>
        <pt x="182" y="717" on="0"/>
        <pt x="154" y="717" on="0"/>
        <pt x="135" y="740" on="0"/>
      </contour>
      <contour>
        <pt x="259" y="659" on="1"/>
        <pt x="284" y="659" on="0"/>
        <pt x="318" y="615" on="0"/>
        <pt x="345" y="546" on="1"/>
        <pt x="408" y="383" on="0"/>
        <pt x="468" y="35" on="1"/>
        <pt x="469" y="31" on="0"/>
        <pt x="469" y="16" on="0"/>
        <pt x="450" y="-1" on="0"/>
        <pt x="415" y="-1" on="0"/>
        <pt x="391" y="16" on="0"/>
        <pt x="383" y="55" on="0"/>
        <pt x="372" y="112" on="1"/>
        <pt x="348" y="239" on="0"/>
        <pt x="340" y="244" on="1"/>
        <pt x="328" y="251" on="0"/>
        <pt x="193" y="267" on="0"/>
        <pt x="149" y="267" on="0"/>
        <pt x="145" y="263" on="1"/>
        <pt x="127" y="247" on="0"/>
        <pt x="96" y="20" on="1"/>
        <pt x="92" y="1" on="0"/>
        <pt x="24" y="1" on="0"/>
        <pt x="24" y="30" on="1"/>
        <pt x="24" y="102" on="0"/>
        <pt x="130" y="508" on="0"/>
        <pt x="165" y="574" on="1"/>
        <pt x="209" y="659" on="0"/>
      </contour>
      <contour>
        <pt x="255" y="548" on="1"/>
        <pt x="240" y="548" on="0"/>
        <pt x="166" y="371" on="0"/>
        <pt x="166" y="350" on="1"/>
        <pt x="166" y="345" on="0"/>
        <pt x="168" y="343" on="1"/>
        <pt x="176" y="335" on="0"/>
        <pt x="286" y="323" on="0"/>
        <pt x="322" y="323" on="0"/>
        <pt x="326" y="328" on="0"/>
        <pt x="326" y="355" on="0"/>
        <pt x="272" y="548" on="0"/>
      </contour>
    </TTGlyph>
    <TTGlyph name="Acircumflexdotbelow" xMin="24" yMin="-131" xMax="469" yMax="851">
      <contour>
        <pt x="135" y="771" on="0"/>
        <pt x="237" y="851" on="0"/>
        <pt x="282" y="851" on="0"/>
        <pt x="380" y="776" on="0"/>
        <pt x="380" y="753" on="1"/>
        <pt x="380" y="739" on="0"/>
        <pt x="356" y="719" on="0"/>
        <pt x="340" y="719" on="0"/>
        <pt x="268" y="783" on="0"/>
        <pt x="249" y="783" on="0"/>
        <pt x="182" y="717" on="0"/>
        <pt x="154" y="717" on="0"/>
        <pt x="135" y="740" on="0"/>
      </contour>
      <contour>
        <pt x="259" y="659" on="1"/>
        <pt x="284" y="659" on="0"/>
        <pt x="318" y="615" on="0"/>
        <pt x="345" y="546" on="1"/>
        <pt x="408" y="383" on="0"/>
        <pt x="468" y="35" on="1"/>
        <pt x="469" y="31" on="0"/>
        <pt x="469" y="16" on="0"/>
        <pt x="450" y="-1" on="0"/>
        <pt x="415" y="-1" on="0"/>
        <pt x="391" y="16" on="0"/>
        <pt x="383" y="55" on="0"/>
        <pt x="372" y="112" on="1"/>
        <pt x="348" y="239" on="0"/>
        <pt x="340" y="244" on="1"/>
        <pt x="328" y="251" on="0"/>
        <pt x="193" y="267" on="0"/>
        <pt x="149" y="267" on="0"/>
        <pt x="145" y="263" on="1"/>
        <pt x="127" y="247" on="0"/>
        <pt x="96" y="20" on="1"/>
        <pt x="92" y="1" on="0"/>
        <pt x="24" y="1" on="0"/>
        <pt x="24" y="30" on="1"/>
        <pt x="24" y="102" on="0"/>
        <pt x="130" y="508" on="0"/>
        <pt x="165" y="574" on="1"/>
        <pt x="209" y="659" on="0"/>
      </contour>
      <contour>
        <pt x="255" y="548" on="1"/>
        <pt x="240" y="548" on="0"/>
        <pt x="166" y="371" on="0"/>
        <pt x="166" y="350" on="1"/>
        <pt x="166" y="345" on="0"/>
        <pt x="168" y="343" on="1"/>
        <pt x="176" y="335" on="0"/>
        <pt x="286" y="323" on="0"/>
        <pt x="322" y="323" on="0"/>
        <pt x="326" y="328" on="0"/>
        <pt x="326" y="355" on="0"/>
        <pt x="272" y="548" on="0"/>
      </contour>
      <contour>
        <pt x="269" y="-32" on="0"/>
        <pt x="298" y="-62" on="0"/>
        <pt x="298" y="-97" on="0"/>
        <pt x="267" y="-131" on="0"/>
        <pt x="232" y="-131" on="0"/>
        <pt x="206" y="-103" on="0"/>
        <pt x="204" y="-79" on="1"/>
        <pt x="208" y="-56" on="0"/>
        <pt x="218" y="-45" on="1"/>
        <pt x="230" y="-32" on="0"/>
      </contour>
    </TTGlyph>
    <TTGlyph name="Acircumflexgrave" xMin="24" yMin="-1" xMax="469" yMax="954">
      <contour>
        <pt x="437" y="794" on="1"/>
        <pt x="428" y="780" on="0"/>
        <pt x="401" y="780" on="0"/>
        <pt x="364" y="800" on="0"/>
        <pt x="309" y="854" on="0"/>
        <pt x="282" y="905" on="0"/>
        <pt x="282" y="924" on="0"/>
        <pt x="286" y="941" on="0"/>
        <pt x="309" y="954" on="0"/>
        <pt x="323" y="954" on="0"/>
        <pt x="327" y="953" on="1"/>
        <pt x="342" y="949" on="0"/>
        <pt x="394" y="862" on="0"/>
        <pt x="425" y="846" on="1"/>
        <pt x="441" y="838" on="0"/>
        <pt x="445" y="802" on="0"/>
      </contour>
      <contour>
        <pt x="135" y="771" on="0"/>
        <pt x="237" y="851" on="0"/>
        <pt x="282" y="851" on="0"/>
        <pt x="380" y="776" on="0"/>
        <pt x="380" y="753" on="1"/>
        <pt x="380" y="739" on="0"/>
        <pt x="356" y="719" on="0"/>
        <pt x="340" y="719" on="0"/>
        <pt x="268" y="783" on="0"/>
        <pt x="249" y="783" on="0"/>
        <pt x="182" y="717" on="0"/>
        <pt x="154" y="717" on="0"/>
        <pt x="135" y="740" on="0"/>
      </contour>
      <contour>
        <pt x="259" y="659" on="1"/>
        <pt x="284" y="659" on="0"/>
        <pt x="318" y="615" on="0"/>
        <pt x="345" y="546" on="1"/>
        <pt x="408" y="383" on="0"/>
        <pt x="468" y="35" on="1"/>
        <pt x="469" y="31" on="0"/>
        <pt x="469" y="16" on="0"/>
        <pt x="450" y="-1" on="0"/>
        <pt x="415" y="-1" on="0"/>
        <pt x="391" y="16" on="0"/>
        <pt x="383" y="55" on="0"/>
        <pt x="372" y="112" on="1"/>
        <pt x="348" y="239" on="0"/>
        <pt x="340" y="244" on="1"/>
        <pt x="328" y="251" on="0"/>
        <pt x="193" y="267" on="0"/>
        <pt x="149" y="267" on="0"/>
        <pt x="145" y="263" on="1"/>
        <pt x="127" y="247" on="0"/>
        <pt x="96" y="20" on="1"/>
        <pt x="92" y="1" on="0"/>
        <pt x="24" y="1" on="0"/>
        <pt x="24" y="30" on="1"/>
        <pt x="24" y="102" on="0"/>
        <pt x="130" y="508" on="0"/>
        <pt x="165" y="574" on="1"/>
        <pt x="209" y="659" on="0"/>
      </contour>
      <contour>
        <pt x="255" y="548" on="1"/>
        <pt x="240" y="548" on="0"/>
        <pt x="166" y="371" on="0"/>
        <pt x="166" y="350" on="1"/>
        <pt x="166" y="345" on="0"/>
        <pt x="168" y="343" on="1"/>
        <pt x="176" y="335" on="0"/>
        <pt x="286" y="323" on="0"/>
        <pt x="322" y="323" on="0"/>
        <pt x="326" y="328" on="0"/>
        <pt x="326" y="355" on="0"/>
        <pt x="272" y="548" on="0"/>
      </contour>
    </TTGlyph>
    <TTGlyph name="Acircumflexhookabove" xMin="24" yMin="-1" xMax="469" yMax="984">
      <contour>
        <pt x="369" y="983" on="1"/>
        <pt x="402" y="983" on="0"/>
        <pt x="438" y="942" on="0"/>
        <pt x="438" y="915" on="0"/>
        <pt x="432" y="899" on="0"/>
        <pt x="402" y="848" on="1"/>
        <pt x="383" y="818" on="0"/>
        <pt x="364" y="818" on="1"/>
        <pt x="358" y="818" on="0"/>
        <pt x="353" y="820" on="1"/>
        <pt x="340" y="825" on="0"/>
        <pt x="342" y="839" on="1"/>
        <pt x="346" y="860" on="0"/>
        <pt x="377" y="897" on="0"/>
        <pt x="385" y="928" on="0"/>
        <pt x="368" y="932" on="1"/>
        <pt x="360" y="932" on="0"/>
        <pt x="353" y="923" on="0"/>
        <pt x="346" y="911" on="0"/>
        <pt x="336" y="900" on="0"/>
        <pt x="318" y="900" on="0"/>
        <pt x="308" y="910" on="1"/>
        <pt x="300" y="920" on="0"/>
        <pt x="306" y="952" on="0"/>
        <pt x="343" y="983" on="0"/>
        <pt x="366" y="983" on="1"/>
        <pt x="367" y="983" on="0"/>
      </contour>
      <contour>
        <pt x="135" y="771" on="0"/>
        <pt x="237" y="851" on="0"/>
        <pt x="282" y="851" on="0"/>
        <pt x="380" y="776" on="0"/>
        <pt x="380" y="753" on="1"/>
        <pt x="380" y="739" on="0"/>
        <pt x="356" y="719" on="0"/>
        <pt x="340" y="719" on="0"/>
        <pt x="268" y="783" on="0"/>
        <pt x="249" y="783" on="0"/>
        <pt x="182" y="717" on="0"/>
        <pt x="154" y="717" on="0"/>
        <pt x="135" y="740" on="0"/>
      </contour>
      <contour>
        <pt x="259" y="659" on="1"/>
        <pt x="284" y="659" on="0"/>
        <pt x="318" y="615" on="0"/>
        <pt x="345" y="546" on="1"/>
        <pt x="408" y="383" on="0"/>
        <pt x="468" y="35" on="1"/>
        <pt x="469" y="31" on="0"/>
        <pt x="469" y="16" on="0"/>
        <pt x="450" y="-1" on="0"/>
        <pt x="415" y="-1" on="0"/>
        <pt x="391" y="16" on="0"/>
        <pt x="383" y="55" on="0"/>
        <pt x="372" y="112" on="1"/>
        <pt x="348" y="239" on="0"/>
        <pt x="340" y="244" on="1"/>
        <pt x="328" y="251" on="0"/>
        <pt x="193" y="267" on="0"/>
        <pt x="149" y="267" on="0"/>
        <pt x="145" y="263" on="1"/>
        <pt x="127" y="247" on="0"/>
        <pt x="96" y="20" on="1"/>
        <pt x="92" y="1" on="0"/>
        <pt x="24" y="1" on="0"/>
        <pt x="24" y="30" on="1"/>
        <pt x="24" y="102" on="0"/>
        <pt x="130" y="508" on="0"/>
        <pt x="165" y="574" on="1"/>
        <pt x="209" y="659" on="0"/>
      </contour>
      <contour>
        <pt x="255" y="548" on="1"/>
        <pt x="240" y="548" on="0"/>
        <pt x="166" y="371" on="0"/>
        <pt x="166" y="350" on="1"/>
        <pt x="166" y="345" on="0"/>
        <pt x="168" y="343" on="1"/>
        <pt x="176" y="335" on="0"/>
        <pt x="286" y="323" on="0"/>
        <pt x="322" y="323" on="0"/>
        <pt x="326" y="328" on="0"/>
        <pt x="326" y="355" on="0"/>
        <pt x="272" y="548" on="0"/>
      </contour>
    </TTGlyph>
    <TTGlyph name="Acircumflextilde" xMin="24" yMin="-1" xMax="469" yMax="981">
      <contour>
        <pt x="122" y="933" on="0"/>
        <pt x="181" y="981" on="0"/>
        <pt x="234" y="981" on="0"/>
        <pt x="266" y="965" on="0"/>
        <pt x="272" y="955" on="1"/>
        <pt x="288" y="929" on="0"/>
        <pt x="314" y="929" on="0"/>
        <pt x="345" y="977" on="0"/>
        <pt x="372" y="977" on="0"/>
        <pt x="392" y="953" on="0"/>
        <pt x="392" y="940" on="1"/>
        <pt x="392" y="904" on="0"/>
        <pt x="333" y="866" on="0"/>
        <pt x="278" y="866" on="0"/>
        <pt x="248" y="889" on="0"/>
        <pt x="226" y="912" on="0"/>
        <pt x="213" y="912" on="1"/>
        <pt x="207" y="912" on="0"/>
        <pt x="169" y="867" on="0"/>
        <pt x="143" y="867" on="0"/>
        <pt x="122" y="892" on="0"/>
      </contour>
      <contour>
        <pt x="135" y="771" on="0"/>
        <pt x="237" y="851" on="0"/>
        <pt x="282" y="851" on="0"/>
        <pt x="380" y="776" on="0"/>
        <pt x="380" y="753" on="1"/>
        <pt x="380" y="739" on="0"/>
        <pt x="356" y="719" on="0"/>
        <pt x="340" y="719" on="0"/>
        <pt x="268" y="783" on="0"/>
        <pt x="249" y="783" on="0"/>
        <pt x="182" y="717" on="0"/>
        <pt x="154" y="717" on="0"/>
        <pt x="135" y="740" on="0"/>
      </contour>
      <contour>
        <pt x="259" y="659" on="1"/>
        <pt x="284" y="659" on="0"/>
        <pt x="318" y="615" on="0"/>
        <pt x="345" y="546" on="1"/>
        <pt x="408" y="383" on="0"/>
        <pt x="468" y="35" on="1"/>
        <pt x="469" y="31" on="0"/>
        <pt x="469" y="16" on="0"/>
        <pt x="450" y="-1" on="0"/>
        <pt x="415" y="-1" on="0"/>
        <pt x="391" y="16" on="0"/>
        <pt x="383" y="55" on="0"/>
        <pt x="372" y="112" on="1"/>
        <pt x="348" y="239" on="0"/>
        <pt x="340" y="244" on="1"/>
        <pt x="328" y="251" on="0"/>
        <pt x="193" y="267" on="0"/>
        <pt x="149" y="267" on="0"/>
        <pt x="145" y="263" on="1"/>
        <pt x="127" y="247" on="0"/>
        <pt x="96" y="20" on="1"/>
        <pt x="92" y="1" on="0"/>
        <pt x="24" y="1" on="0"/>
        <pt x="24" y="30" on="1"/>
        <pt x="24" y="102" on="0"/>
        <pt x="130" y="508" on="0"/>
        <pt x="165" y="574" on="1"/>
        <pt x="209" y="659" on="0"/>
      </contour>
      <contour>
        <pt x="255" y="548" on="1"/>
        <pt x="240" y="548" on="0"/>
        <pt x="166" y="371" on="0"/>
        <pt x="166" y="350" on="1"/>
        <pt x="166" y="345" on="0"/>
        <pt x="168" y="343" on="1"/>
        <pt x="176" y="335" on="0"/>
        <pt x="286" y="323" on="0"/>
        <pt x="322" y="323" on="0"/>
        <pt x="326" y="328" on="0"/>
        <pt x="326" y="355" on="0"/>
        <pt x="272" y="548" on="0"/>
      </contour>
    </TTGlyph>
    <TTGlyph name="Adieresis" xMin="24" yMin="-1" xMax="469" yMax="808">
      <contour>
        <pt x="167" y="711" on="1"/>
        <pt x="130" y="711" on="0"/>
        <pt x="122" y="750" on="1"/>
        <pt x="122" y="773" on="0"/>
        <pt x="156" y="808" on="0"/>
        <pt x="197" y="808" on="0"/>
        <pt x="221" y="780" on="0"/>
        <pt x="222" y="756" on="1"/>
        <pt x="219" y="736" on="0"/>
        <pt x="188" y="711" on="0"/>
      </contour>
      <contour>
        <pt x="347" y="807" on="1"/>
        <pt x="365" y="807" on="0"/>
        <pt x="390" y="786" on="0"/>
        <pt x="391" y="768" on="1"/>
        <pt x="388" y="743" on="0"/>
        <pt x="358" y="714" on="0"/>
        <pt x="319" y="714" on="0"/>
        <pt x="293" y="741" on="0"/>
        <pt x="293" y="762" on="1"/>
        <pt x="293" y="807" on="0"/>
      </contour>
      <contour>
        <pt x="259" y="659" on="1"/>
        <pt x="284" y="659" on="0"/>
        <pt x="318" y="615" on="0"/>
        <pt x="345" y="546" on="1"/>
        <pt x="408" y="383" on="0"/>
        <pt x="468" y="35" on="1"/>
        <pt x="469" y="31" on="0"/>
        <pt x="469" y="16" on="0"/>
        <pt x="450" y="-1" on="0"/>
        <pt x="415" y="-1" on="0"/>
        <pt x="391" y="16" on="0"/>
        <pt x="383" y="55" on="0"/>
        <pt x="372" y="112" on="1"/>
        <pt x="348" y="239" on="0"/>
        <pt x="340" y="244" on="1"/>
        <pt x="328" y="251" on="0"/>
        <pt x="193" y="267" on="0"/>
        <pt x="149" y="267" on="0"/>
        <pt x="145" y="263" on="1"/>
        <pt x="127" y="247" on="0"/>
        <pt x="96" y="20" on="1"/>
        <pt x="92" y="1" on="0"/>
        <pt x="24" y="1" on="0"/>
        <pt x="24" y="30" on="1"/>
        <pt x="24" y="102" on="0"/>
        <pt x="130" y="508" on="0"/>
        <pt x="165" y="574" on="1"/>
        <pt x="209" y="659" on="0"/>
      </contour>
      <contour>
        <pt x="255" y="548" on="1"/>
        <pt x="240" y="548" on="0"/>
        <pt x="166" y="371" on="0"/>
        <pt x="166" y="350" on="1"/>
        <pt x="166" y="345" on="0"/>
        <pt x="168" y="343" on="1"/>
        <pt x="176" y="335" on="0"/>
        <pt x="286" y="323" on="0"/>
        <pt x="322" y="323" on="0"/>
        <pt x="326" y="328" on="0"/>
        <pt x="326" y="355" on="0"/>
        <pt x="272" y="548" on="0"/>
      </contour>
    </TTGlyph>
    <TTGlyph name="Adotbelow" xMin="24" yMin="-131" xMax="469" yMax="659">
      <contour>
        <pt x="259" y="659" on="1"/>
        <pt x="284" y="659" on="0"/>
        <pt x="318" y="615" on="0"/>
        <pt x="345" y="546" on="1"/>
        <pt x="408" y="383" on="0"/>
        <pt x="468" y="35" on="1"/>
        <pt x="469" y="31" on="0"/>
        <pt x="469" y="16" on="0"/>
        <pt x="450" y="-1" on="0"/>
        <pt x="415" y="-1" on="0"/>
        <pt x="391" y="16" on="0"/>
        <pt x="383" y="55" on="0"/>
        <pt x="372" y="112" on="1"/>
        <pt x="348" y="239" on="0"/>
        <pt x="340" y="244" on="1"/>
        <pt x="328" y="251" on="0"/>
        <pt x="193" y="267" on="0"/>
        <pt x="149" y="267" on="0"/>
        <pt x="145" y="263" on="1"/>
        <pt x="127" y="247" on="0"/>
        <pt x="96" y="20" on="1"/>
        <pt x="92" y="1" on="0"/>
        <pt x="24" y="1" on="0"/>
        <pt x="24" y="30" on="1"/>
        <pt x="24" y="102" on="0"/>
        <pt x="130" y="508" on="0"/>
        <pt x="165" y="574" on="1"/>
        <pt x="209" y="659" on="0"/>
      </contour>
      <contour>
        <pt x="255" y="548" on="1"/>
        <pt x="240" y="548" on="0"/>
        <pt x="166" y="371" on="0"/>
        <pt x="166" y="350" on="1"/>
        <pt x="166" y="345" on="0"/>
        <pt x="168" y="343" on="1"/>
        <pt x="176" y="335" on="0"/>
        <pt x="286" y="323" on="0"/>
        <pt x="322" y="323" on="0"/>
        <pt x="326" y="328" on="0"/>
        <pt x="326" y="355" on="0"/>
        <pt x="272" y="548" on="0"/>
      </contour>
      <contour>
        <pt x="269" y="-32" on="0"/>
        <pt x="298" y="-62" on="0"/>
        <pt x="298" y="-97" on="0"/>
        <pt x="267" y="-131" on="0"/>
        <pt x="232" y="-131" on="0"/>
        <pt x="206" y="-103" on="0"/>
        <pt x="204" y="-79" on="1"/>
        <pt x="208" y="-56" on="0"/>
        <pt x="218" y="-45" on="1"/>
        <pt x="230" y="-32" on="0"/>
      </contour>
    </TTGlyph>
    <TTGlyph name="Agrave" xMin="24" yMin="-1" xMax="469" yMax="870">
      <contour>
        <pt x="329" y="710" on="1"/>
        <pt x="320" y="696" on="0"/>
        <pt x="293" y="696" on="0"/>
        <pt x="256" y="716" on="0"/>
        <pt x="201" y="770" on="0"/>
        <pt x="174" y="821" on="0"/>
        <pt x="174" y="840" on="0"/>
        <pt x="178" y="857" on="0"/>
        <pt x="201" y="870" on="0"/>
        <pt x="215" y="870" on="0"/>
        <pt x="219" y="869" on="1"/>
        <pt x="234" y="865" on="0"/>
        <pt x="286" y="778" on="0"/>
        <pt x="317" y="762" on="1"/>
        <pt x="333" y="754" on="0"/>
        <pt x="337" y="718" on="0"/>
      </contour>
      <contour>
        <pt x="259" y="659" on="1"/>
        <pt x="284" y="659" on="0"/>
        <pt x="318" y="615" on="0"/>
        <pt x="345" y="546" on="1"/>
        <pt x="408" y="383" on="0"/>
        <pt x="468" y="35" on="1"/>
        <pt x="469" y="31" on="0"/>
        <pt x="469" y="16" on="0"/>
        <pt x="450" y="-1" on="0"/>
        <pt x="415" y="-1" on="0"/>
        <pt x="391" y="16" on="0"/>
        <pt x="383" y="55" on="0"/>
        <pt x="372" y="112" on="1"/>
        <pt x="348" y="239" on="0"/>
        <pt x="340" y="244" on="1"/>
        <pt x="328" y="251" on="0"/>
        <pt x="193" y="267" on="0"/>
        <pt x="149" y="267" on="0"/>
        <pt x="145" y="263" on="1"/>
        <pt x="127" y="247" on="0"/>
        <pt x="96" y="20" on="1"/>
        <pt x="92" y="1" on="0"/>
        <pt x="24" y="1" on="0"/>
        <pt x="24" y="30" on="1"/>
        <pt x="24" y="102" on="0"/>
        <pt x="130" y="508" on="0"/>
        <pt x="165" y="574" on="1"/>
        <pt x="209" y="659" on="0"/>
      </contour>
      <contour>
        <pt x="255" y="548" on="1"/>
        <pt x="240" y="548" on="0"/>
        <pt x="166" y="371" on="0"/>
        <pt x="166" y="350" on="1"/>
        <pt x="166" y="345" on="0"/>
        <pt x="168" y="343" on="1"/>
        <pt x="176" y="335" on="0"/>
        <pt x="286" y="323" on="0"/>
        <pt x="322" y="323" on="0"/>
        <pt x="326" y="328" on="0"/>
        <pt x="326" y="355" on="0"/>
        <pt x="272" y="548" on="0"/>
      </contour>
    </TTGlyph>
    <TTGlyph name="Ahookabove" xMin="24" yMin="-1" xMax="469" yMax="859">
      <contour>
        <pt x="258" y="858" on="1"/>
        <pt x="291" y="858" on="0"/>
        <pt x="327" y="817" on="0"/>
        <pt x="327" y="790" on="0"/>
        <pt x="321" y="774" on="0"/>
        <pt x="291" y="723" on="1"/>
        <pt x="272" y="693" on="0"/>
        <pt x="253" y="693" on="1"/>
        <pt x="247" y="693" on="0"/>
        <pt x="242" y="695" on="1"/>
        <pt x="229" y="700" on="0"/>
        <pt x="232" y="714" on="1"/>
        <pt x="235" y="735" on="0"/>
        <pt x="266" y="772" on="0"/>
        <pt x="274" y="803" on="0"/>
        <pt x="257" y="807" on="1"/>
        <pt x="249" y="807" on="0"/>
        <pt x="242" y="798" on="0"/>
        <pt x="235" y="786" on="0"/>
        <pt x="225" y="776" on="0"/>
        <pt x="206" y="776" on="0"/>
        <pt x="197" y="785" on="1"/>
        <pt x="189" y="795" on="0"/>
        <pt x="195" y="827" on="0"/>
        <pt x="232" y="858" on="0"/>
        <pt x="255" y="858" on="1"/>
        <pt x="256" y="858" on="0"/>
      </contour>
      <contour>
        <pt x="259" y="659" on="1"/>
        <pt x="284" y="659" on="0"/>
        <pt x="318" y="615" on="0"/>
        <pt x="345" y="546" on="1"/>
        <pt x="408" y="383" on="0"/>
        <pt x="468" y="35" on="1"/>
        <pt x="469" y="31" on="0"/>
        <pt x="469" y="16" on="0"/>
        <pt x="450" y="-1" on="0"/>
        <pt x="415" y="-1" on="0"/>
        <pt x="391" y="16" on="0"/>
        <pt x="383" y="55" on="0"/>
        <pt x="372" y="112" on="1"/>
        <pt x="348" y="239" on="0"/>
        <pt x="340" y="244" on="1"/>
        <pt x="328" y="251" on="0"/>
        <pt x="193" y="267" on="0"/>
        <pt x="149" y="267" on="0"/>
        <pt x="145" y="263" on="1"/>
        <pt x="127" y="247" on="0"/>
        <pt x="96" y="20" on="1"/>
        <pt x="92" y="1" on="0"/>
        <pt x="24" y="1" on="0"/>
        <pt x="24" y="30" on="1"/>
        <pt x="24" y="102" on="0"/>
        <pt x="130" y="508" on="0"/>
        <pt x="165" y="574" on="1"/>
        <pt x="209" y="659" on="0"/>
      </contour>
      <contour>
        <pt x="255" y="548" on="1"/>
        <pt x="240" y="548" on="0"/>
        <pt x="166" y="371" on="0"/>
        <pt x="166" y="350" on="1"/>
        <pt x="166" y="345" on="0"/>
        <pt x="168" y="343" on="1"/>
        <pt x="176" y="335" on="0"/>
        <pt x="286" y="323" on="0"/>
        <pt x="322" y="323" on="0"/>
        <pt x="326" y="328" on="0"/>
        <pt x="326" y="355" on="0"/>
        <pt x="272" y="548" on="0"/>
      </contour>
    </TTGlyph>
    <TTGlyph name="Amacron" xMin="24" yMin="-1" xMax="469" yMax="798">
      <contour>
        <pt x="127" y="795" on="1"/>
        <pt x="244" y="792" on="1"/>
        <pt x="314" y="792" on="0"/>
        <pt x="383" y="797" on="0"/>
        <pt x="396" y="797" on="0"/>
        <pt x="416" y="783" on="0"/>
        <pt x="417" y="769" on="0"/>
        <pt x="417" y="755" on="1"/>
        <pt x="417" y="720" on="0"/>
        <pt x="378" y="716" on="1"/>
        <pt x="329" y="712" on="0"/>
        <pt x="200" y="712" on="0"/>
        <pt x="119" y="716" on="1"/>
        <pt x="86" y="718" on="0"/>
        <pt x="86" y="744" on="1"/>
        <pt x="86" y="795" on="0"/>
      </contour>
      <contour>
        <pt x="259" y="659" on="1"/>
        <pt x="284" y="659" on="0"/>
        <pt x="318" y="615" on="0"/>
        <pt x="345" y="546" on="1"/>
        <pt x="408" y="383" on="0"/>
        <pt x="468" y="35" on="1"/>
        <pt x="469" y="31" on="0"/>
        <pt x="469" y="16" on="0"/>
        <pt x="450" y="-1" on="0"/>
        <pt x="415" y="-1" on="0"/>
        <pt x="391" y="16" on="0"/>
        <pt x="383" y="55" on="0"/>
        <pt x="372" y="112" on="1"/>
        <pt x="348" y="239" on="0"/>
        <pt x="340" y="244" on="1"/>
        <pt x="328" y="251" on="0"/>
        <pt x="193" y="267" on="0"/>
        <pt x="149" y="267" on="0"/>
        <pt x="145" y="263" on="1"/>
        <pt x="127" y="247" on="0"/>
        <pt x="96" y="20" on="1"/>
        <pt x="92" y="1" on="0"/>
        <pt x="24" y="1" on="0"/>
        <pt x="24" y="30" on="1"/>
        <pt x="24" y="102" on="0"/>
        <pt x="130" y="508" on="0"/>
        <pt x="165" y="574" on="1"/>
        <pt x="209" y="659" on="0"/>
      </contour>
      <contour>
        <pt x="255" y="548" on="1"/>
        <pt x="240" y="548" on="0"/>
        <pt x="166" y="371" on="0"/>
        <pt x="166" y="350" on="1"/>
        <pt x="166" y="345" on="0"/>
        <pt x="168" y="343" on="1"/>
        <pt x="176" y="335" on="0"/>
        <pt x="286" y="323" on="0"/>
        <pt x="322" y="323" on="0"/>
        <pt x="326" y="328" on="0"/>
        <pt x="326" y="355" on="0"/>
        <pt x="272" y="548" on="0"/>
      </contour>
    </TTGlyph>
    <TTGlyph name="Aogonek" xMin="24" yMin="-169" xMax="542" yMax="659">
      <contour>
        <pt x="354" y="-67" on="1"/>
        <pt x="354" y="-13" on="0"/>
        <pt x="391" y="23" on="1"/>
        <pt x="389" y="25" on="0"/>
        <pt x="375" y="98" on="1"/>
        <pt x="348" y="239" on="0"/>
        <pt x="340" y="244" on="1"/>
        <pt x="328" y="251" on="0"/>
        <pt x="193" y="267" on="0"/>
        <pt x="149" y="267" on="0"/>
        <pt x="145" y="263" on="1"/>
        <pt x="127" y="247" on="0"/>
        <pt x="96" y="20" on="1"/>
        <pt x="92" y="1" on="0"/>
        <pt x="24" y="1" on="0"/>
        <pt x="24" y="30" on="1"/>
        <pt x="24" y="102" on="0"/>
        <pt x="130" y="508" on="0"/>
        <pt x="165" y="574" on="1"/>
        <pt x="209" y="659" on="0"/>
        <pt x="259" y="659" on="1"/>
        <pt x="284" y="659" on="0"/>
        <pt x="318" y="615" on="0"/>
        <pt x="345" y="546" on="1"/>
        <pt x="408" y="383" on="0"/>
        <pt x="468" y="35" on="1"/>
        <pt x="469" y="28" on="0"/>
        <pt x="468" y="22" on="1"/>
        <pt x="468" y="21" on="1"/>
        <pt x="468" y="9" on="0"/>
        <pt x="449" y="-6" on="1"/>
        <pt x="412" y="-35" on="0"/>
        <pt x="412" y="-68" on="1"/>
        <pt x="412" y="-89" on="0"/>
        <pt x="433" y="-114" on="0"/>
        <pt x="460" y="-114" on="0"/>
        <pt x="485" y="-96" on="0"/>
        <pt x="500" y="-81" on="0"/>
        <pt x="523" y="-78" on="0"/>
        <pt x="534" y="-93" on="1"/>
        <pt x="542" y="-100" on="0"/>
        <pt x="542" y="-112" on="0"/>
        <pt x="537" y="-121" on="1"/>
        <pt x="528" y="-139" on="0"/>
        <pt x="513" y="-148" on="1"/>
        <pt x="487" y="-168" on="0"/>
        <pt x="455" y="-168" on="1"/>
        <pt x="446" y="-168" on="0"/>
        <pt x="437" y="-167" on="1"/>
        <pt x="394" y="-162" on="0"/>
        <pt x="354" y="-98" on="0"/>
      </contour>
      <contour>
        <pt x="168" y="343" on="1"/>
        <pt x="176" y="335" on="0"/>
        <pt x="286" y="323" on="0"/>
        <pt x="322" y="323" on="0"/>
        <pt x="326" y="328" on="0"/>
        <pt x="326" y="355" on="0"/>
        <pt x="272" y="548" on="0"/>
        <pt x="255" y="548" on="1"/>
        <pt x="240" y="548" on="0"/>
        <pt x="166" y="371" on="0"/>
        <pt x="166" y="350" on="1"/>
        <pt x="166" y="345" on="0"/>
      </contour>
    </TTGlyph>
    <TTGlyph name="Aring" xMin="24" yMin="-1" xMax="469" yMax="859">
      <contour>
        <pt x="167" y="811" on="0"/>
        <pt x="224" y="859" on="0"/>
        <pt x="299" y="859" on="0"/>
        <pt x="340" y="811" on="0"/>
        <pt x="340" y="774" on="1"/>
        <pt x="340" y="735" on="0"/>
        <pt x="288" y="689" on="0"/>
        <pt x="217" y="689" on="0"/>
        <pt x="167" y="743" on="0"/>
      </contour>
      <contour>
        <pt x="259" y="809" on="1"/>
        <pt x="246" y="809" on="0"/>
        <pt x="226" y="791" on="0"/>
        <pt x="226" y="778" on="1"/>
        <pt x="226" y="750" on="0"/>
        <pt x="252" y="750" on="1"/>
        <pt x="284" y="750" on="0"/>
        <pt x="284" y="809" on="0"/>
      </contour>
      <contour>
        <pt x="259" y="659" on="1"/>
        <pt x="284" y="659" on="0"/>
        <pt x="318" y="615" on="0"/>
        <pt x="345" y="546" on="1"/>
        <pt x="408" y="383" on="0"/>
        <pt x="468" y="35" on="1"/>
        <pt x="469" y="31" on="0"/>
        <pt x="469" y="16" on="0"/>
        <pt x="450" y="-1" on="0"/>
        <pt x="415" y="-1" on="0"/>
        <pt x="391" y="16" on="0"/>
        <pt x="383" y="55" on="0"/>
        <pt x="372" y="112" on="1"/>
        <pt x="348" y="239" on="0"/>
        <pt x="340" y="244" on="1"/>
        <pt x="328" y="251" on="0"/>
        <pt x="193" y="267" on="0"/>
        <pt x="149" y="267" on="0"/>
        <pt x="145" y="263" on="1"/>
        <pt x="127" y="247" on="0"/>
        <pt x="96" y="20" on="1"/>
        <pt x="92" y="1" on="0"/>
        <pt x="24" y="1" on="0"/>
        <pt x="24" y="30" on="1"/>
        <pt x="24" y="102" on="0"/>
        <pt x="130" y="508" on="0"/>
        <pt x="165" y="574" on="1"/>
        <pt x="209" y="659" on="0"/>
      </contour>
      <contour>
        <pt x="255" y="548" on="1"/>
        <pt x="240" y="548" on="0"/>
        <pt x="166" y="371" on="0"/>
        <pt x="166" y="350" on="1"/>
        <pt x="166" y="345" on="0"/>
        <pt x="168" y="343" on="1"/>
        <pt x="176" y="335" on="0"/>
        <pt x="286" y="323" on="0"/>
        <pt x="322" y="323" on="0"/>
        <pt x="326" y="328" on="0"/>
        <pt x="326" y="355" on="0"/>
        <pt x="272" y="548" on="0"/>
      </contour>
    </TTGlyph>
    <TTGlyph name="Aringacute" xMin="24" yMin="-1" xMax="469" yMax="1042">
      <contour>
        <pt x="258" y="1025" on="1"/>
        <pt x="264" y="1042" on="0"/>
        <pt x="303" y="1042" on="0"/>
        <pt x="326" y="1018" on="0"/>
        <pt x="326" y="1003" on="0"/>
        <pt x="324" y="998" on="1"/>
        <pt x="308" y="953" on="0"/>
        <pt x="233" y="873" on="0"/>
        <pt x="193" y="873" on="0"/>
        <pt x="173" y="893" on="0"/>
        <pt x="173" y="920" on="0"/>
        <pt x="188" y="932" on="1"/>
        <pt x="242" y="976" on="0"/>
      </contour>
      <contour>
        <pt x="167" y="811" on="0"/>
        <pt x="224" y="859" on="0"/>
        <pt x="299" y="859" on="0"/>
        <pt x="340" y="811" on="0"/>
        <pt x="340" y="774" on="1"/>
        <pt x="340" y="735" on="0"/>
        <pt x="288" y="689" on="0"/>
        <pt x="217" y="689" on="0"/>
        <pt x="167" y="743" on="0"/>
      </contour>
      <contour>
        <pt x="259" y="809" on="1"/>
        <pt x="246" y="809" on="0"/>
        <pt x="226" y="791" on="0"/>
        <pt x="226" y="778" on="1"/>
        <pt x="226" y="750" on="0"/>
        <pt x="252" y="750" on="1"/>
        <pt x="284" y="750" on="0"/>
        <pt x="284" y="809" on="0"/>
      </contour>
      <contour>
        <pt x="259" y="659" on="1"/>
        <pt x="284" y="659" on="0"/>
        <pt x="318" y="615" on="0"/>
        <pt x="345" y="546" on="1"/>
        <pt x="408" y="383" on="0"/>
        <pt x="468" y="35" on="1"/>
        <pt x="469" y="31" on="0"/>
        <pt x="469" y="16" on="0"/>
        <pt x="450" y="-1" on="0"/>
        <pt x="415" y="-1" on="0"/>
        <pt x="391" y="16" on="0"/>
        <pt x="383" y="55" on="0"/>
        <pt x="372" y="112" on="1"/>
        <pt x="348" y="239" on="0"/>
        <pt x="340" y="244" on="1"/>
        <pt x="328" y="251" on="0"/>
        <pt x="193" y="267" on="0"/>
        <pt x="149" y="267" on="0"/>
        <pt x="145" y="263" on="1"/>
        <pt x="127" y="247" on="0"/>
        <pt x="96" y="20" on="1"/>
        <pt x="92" y="1" on="0"/>
        <pt x="24" y="1" on="0"/>
        <pt x="24" y="30" on="1"/>
        <pt x="24" y="102" on="0"/>
        <pt x="130" y="508" on="0"/>
        <pt x="165" y="574" on="1"/>
        <pt x="209" y="659" on="0"/>
      </contour>
      <contour>
        <pt x="255" y="548" on="1"/>
        <pt x="240" y="548" on="0"/>
        <pt x="166" y="371" on="0"/>
        <pt x="166" y="350" on="1"/>
        <pt x="166" y="345" on="0"/>
        <pt x="168" y="343" on="1"/>
        <pt x="176" y="335" on="0"/>
        <pt x="286" y="323" on="0"/>
        <pt x="322" y="323" on="0"/>
        <pt x="326" y="328" on="0"/>
        <pt x="326" y="355" on="0"/>
        <pt x="272" y="548" on="0"/>
      </contour>
    </TTGlyph>
    <TTGlyph name="Aringbelow" xMin="24" yMin="-199" xMax="469" yMax="659">
      <contour>
        <pt x="259" y="659" on="1"/>
        <pt x="284" y="659" on="0"/>
        <pt x="318" y="615" on="0"/>
        <pt x="345" y="546" on="1"/>
        <pt x="408" y="383" on="0"/>
        <pt x="468" y="35" on="1"/>
        <pt x="469" y="31" on="0"/>
        <pt x="469" y="16" on="0"/>
        <pt x="450" y="-1" on="0"/>
        <pt x="415" y="-1" on="0"/>
        <pt x="391" y="16" on="0"/>
        <pt x="383" y="55" on="0"/>
        <pt x="372" y="112" on="1"/>
        <pt x="348" y="239" on="0"/>
        <pt x="340" y="244" on="1"/>
        <pt x="328" y="251" on="0"/>
        <pt x="193" y="267" on="0"/>
        <pt x="149" y="267" on="0"/>
        <pt x="145" y="263" on="1"/>
        <pt x="127" y="247" on="0"/>
        <pt x="96" y="20" on="1"/>
        <pt x="92" y="1" on="0"/>
        <pt x="24" y="1" on="0"/>
        <pt x="24" y="30" on="1"/>
        <pt x="24" y="102" on="0"/>
        <pt x="130" y="508" on="0"/>
        <pt x="165" y="574" on="1"/>
        <pt x="209" y="659" on="0"/>
      </contour>
      <contour>
        <pt x="255" y="548" on="1"/>
        <pt x="240" y="548" on="0"/>
        <pt x="166" y="371" on="0"/>
        <pt x="166" y="350" on="1"/>
        <pt x="166" y="345" on="0"/>
        <pt x="168" y="343" on="1"/>
        <pt x="176" y="335" on="0"/>
        <pt x="286" y="323" on="0"/>
        <pt x="322" y="323" on="0"/>
        <pt x="326" y="328" on="0"/>
        <pt x="326" y="355" on="0"/>
        <pt x="272" y="548" on="0"/>
      </contour>
      <contour>
        <pt x="159" y="-77" on="0"/>
        <pt x="216" y="-29" on="0"/>
        <pt x="291" y="-29" on="0"/>
        <pt x="332" y="-77" on="0"/>
        <pt x="332" y="-114" on="1"/>
        <pt x="332" y="-153" on="0"/>
        <pt x="280" y="-199" on="0"/>
        <pt x="209" y="-199" on="0"/>
        <pt x="159" y="-145" on="0"/>
      </contour>
      <contour>
        <pt x="251" y="-79" on="1"/>
        <pt x="238" y="-79" on="0"/>
        <pt x="218" y="-97" on="0"/>
        <pt x="218" y="-110" on="1"/>
        <pt x="218" y="-138" on="0"/>
        <pt x="244" y="-138" on="1"/>
        <pt x="276" y="-138" on="0"/>
        <pt x="276" y="-79" on="0"/>
      </contour>
    </TTGlyph>
    <TTGlyph name="Atilde" xMin="24" yMin="-1" xMax="469" yMax="829">
      <contour>
        <pt x="120" y="781" on="0"/>
        <pt x="179" y="829" on="0"/>
        <pt x="232" y="829" on="0"/>
        <pt x="264" y="813" on="0"/>
        <pt x="270" y="803" on="1"/>
        <pt x="286" y="777" on="0"/>
        <pt x="312" y="777" on="0"/>
        <pt x="343" y="825" on="0"/>
        <pt x="370" y="825" on="0"/>
        <pt x="390" y="801" on="0"/>
        <pt x="390" y="788" on="1"/>
        <pt x="390" y="752" on="0"/>
        <pt x="331" y="714" on="0"/>
        <pt x="276" y="714" on="0"/>
        <pt x="246" y="737" on="0"/>
        <pt x="224" y="760" on="0"/>
        <pt x="211" y="760" on="1"/>
        <pt x="205" y="760" on="0"/>
        <pt x="167" y="715" on="0"/>
        <pt x="141" y="715" on="0"/>
        <pt x="120" y="740" on="0"/>
      </contour>
      <contour>
        <pt x="259" y="659" on="1"/>
        <pt x="284" y="659" on="0"/>
        <pt x="318" y="615" on="0"/>
        <pt x="345" y="546" on="1"/>
        <pt x="408" y="383" on="0"/>
        <pt x="468" y="35" on="1"/>
        <pt x="469" y="31" on="0"/>
        <pt x="469" y="16" on="0"/>
        <pt x="450" y="-1" on="0"/>
        <pt x="415" y="-1" on="0"/>
        <pt x="391" y="16" on="0"/>
        <pt x="383" y="55" on="0"/>
        <pt x="372" y="112" on="1"/>
        <pt x="348" y="239" on="0"/>
        <pt x="340" y="244" on="1"/>
        <pt x="328" y="251" on="0"/>
        <pt x="193" y="267" on="0"/>
        <pt x="149" y="267" on="0"/>
        <pt x="145" y="263" on="1"/>
        <pt x="127" y="247" on="0"/>
        <pt x="96" y="20" on="1"/>
        <pt x="92" y="1" on="0"/>
        <pt x="24" y="1" on="0"/>
        <pt x="24" y="30" on="1"/>
        <pt x="24" y="102" on="0"/>
        <pt x="130" y="508" on="0"/>
        <pt x="165" y="574" on="1"/>
        <pt x="209" y="659" on="0"/>
      </contour>
      <contour>
        <pt x="255" y="548" on="1"/>
        <pt x="240" y="548" on="0"/>
        <pt x="166" y="371" on="0"/>
        <pt x="166" y="350" on="1"/>
        <pt x="166" y="345" on="0"/>
        <pt x="168" y="343" on="1"/>
        <pt x="176" y="335" on="0"/>
        <pt x="286" y="323" on="0"/>
        <pt x="322" y="323" on="0"/>
        <pt x="326" y="328" on="0"/>
        <pt x="326" y="355" on="0"/>
        <pt x="272" y="548" on="0"/>
      </contour>
    </TTGlyph>
    <TTGlyph name="B" xMin="56" yMin="2" xMax="465" yMax="669">
      <contour>
        <pt x="198" y="2" on="1"/>
        <pt x="69" y="5" on="1"/>
        <pt x="58" y="47" on="0"/>
        <pt x="56" y="383" on="1"/>
        <pt x="56" y="454" on="1"/>
        <pt x="56" y="539" on="0"/>
        <pt x="88" y="628" on="0"/>
        <pt x="139" y="655" on="1"/>
        <pt x="165" y="668" on="0"/>
        <pt x="258" y="668" on="0"/>
        <pt x="283" y="662" on="1"/>
        <pt x="350" y="648" on="0"/>
        <pt x="399" y="572" on="0"/>
        <pt x="399" y="508" on="1"/>
        <pt x="399" y="419" on="0"/>
        <pt x="352" y="377" on="1"/>
        <pt x="376" y="374" on="0"/>
        <pt x="424" y="332" on="0"/>
        <pt x="439" y="310" on="1"/>
        <pt x="465" y="270" on="0"/>
        <pt x="465" y="201" on="1"/>
        <pt x="465" y="93" on="0"/>
        <pt x="334" y="2" on="0"/>
      </contour>
      <contour>
        <pt x="136" y="489" on="1"/>
        <pt x="138" y="375" on="1"/>
        <pt x="140" y="375" on="0"/>
        <pt x="204" y="384" on="0"/>
        <pt x="226" y="389" on="1"/>
        <pt x="327" y="413" on="0"/>
        <pt x="327" y="504" on="1"/>
        <pt x="327" y="549" on="0"/>
        <pt x="274" y="591" on="0"/>
        <pt x="231" y="591" on="1"/>
        <pt x="177" y="591" on="0"/>
        <pt x="158" y="572" on="1"/>
        <pt x="150" y="564" on="0"/>
        <pt x="140" y="553" on="0"/>
        <pt x="136" y="529" on="0"/>
        <pt x="135" y="519" on="0"/>
        <pt x="136" y="491" on="0"/>
      </contour>
      <contour>
        <pt x="351" y="287" on="0"/>
        <pt x="309" y="305" on="0"/>
        <pt x="230" y="305" on="0"/>
        <pt x="135" y="292" on="1"/>
        <pt x="135" y="136" on="0"/>
        <pt x="140" y="81" on="1"/>
        <pt x="257" y="81" on="0"/>
        <pt x="351" y="112" on="0"/>
        <pt x="384" y="157" on="0"/>
        <pt x="384" y="208" on="0"/>
        <pt x="383" y="229" on="0"/>
        <pt x="372" y="266" on="0"/>
      </contour>
    </TTGlyph>
    <TTGlyph name="C" xMin="42" yMin="1" xMax="502" yMax="654">
      <contour>
        <pt x="336" y="654" on="1"/>
        <pt x="403" y="654" on="0"/>
        <pt x="484" y="628" on="1"/>
        <pt x="502" y="614" on="0"/>
        <pt x="502" y="581" on="0"/>
        <pt x="469" y="556" on="0"/>
        <pt x="448" y="556" on="1"/>
        <pt x="394" y="570" on="0"/>
        <pt x="347" y="570" on="1"/>
        <pt x="239" y="570" on="0"/>
        <pt x="127" y="442" on="0"/>
        <pt x="127" y="190" on="0"/>
        <pt x="193" y="119" on="1"/>
        <pt x="227" y="82" on="0"/>
        <pt x="321" y="82" on="0"/>
        <pt x="424" y="132" on="1"/>
        <pt x="460" y="149" on="0"/>
        <pt x="472" y="149" on="1"/>
        <pt x="498" y="149" on="0"/>
        <pt x="498" y="95" on="0"/>
        <pt x="473" y="77" on="1"/>
        <pt x="387" y="32" on="0"/>
        <pt x="291" y="1" on="0"/>
        <pt x="256" y="1" on="1"/>
        <pt x="184" y="1" on="0"/>
        <pt x="133" y="54" on="1"/>
        <pt x="42" y="152" on="0"/>
        <pt x="42" y="491" on="0"/>
        <pt x="215" y="654" on="0"/>
      </contour>
    </TTGlyph>
    <TTGlyph name="Cacute" xMin="42" yMin="1" xMax="502" yMax="877">
      <contour>
        <pt x="327" y="860" on="1"/>
        <pt x="333" y="877" on="0"/>
        <pt x="372" y="877" on="0"/>
        <pt x="395" y="853" on="0"/>
        <pt x="395" y="838" on="0"/>
        <pt x="393" y="833" on="1"/>
        <pt x="377" y="788" on="0"/>
        <pt x="302" y="708" on="0"/>
        <pt x="262" y="708" on="0"/>
        <pt x="242" y="728" on="0"/>
        <pt x="242" y="755" on="0"/>
        <pt x="258" y="768" on="1"/>
        <pt x="311" y="811" on="0"/>
      </contour>
      <contour>
        <pt x="336" y="654" on="1"/>
        <pt x="403" y="654" on="0"/>
        <pt x="484" y="628" on="1"/>
        <pt x="502" y="614" on="0"/>
        <pt x="502" y="581" on="0"/>
        <pt x="469" y="556" on="0"/>
        <pt x="448" y="556" on="1"/>
        <pt x="394" y="570" on="0"/>
        <pt x="347" y="570" on="1"/>
        <pt x="239" y="570" on="0"/>
        <pt x="127" y="442" on="0"/>
        <pt x="127" y="190" on="0"/>
        <pt x="193" y="119" on="1"/>
        <pt x="227" y="82" on="0"/>
        <pt x="321" y="82" on="0"/>
        <pt x="424" y="132" on="1"/>
        <pt x="460" y="149" on="0"/>
        <pt x="472" y="149" on="1"/>
        <pt x="498" y="149" on="0"/>
        <pt x="498" y="95" on="0"/>
        <pt x="473" y="77" on="1"/>
        <pt x="387" y="32" on="0"/>
        <pt x="291" y="1" on="0"/>
        <pt x="256" y="1" on="1"/>
        <pt x="184" y="1" on="0"/>
        <pt x="133" y="54" on="1"/>
        <pt x="42" y="152" on="0"/>
        <pt x="42" y="491" on="0"/>
        <pt x="215" y="654" on="0"/>
      </contour>
    </TTGlyph>
    <TTGlyph name="Ccaron" xMin="42" yMin="1" xMax="502" yMax="855">
      <contour>
        <pt x="409" y="850" on="1"/>
        <pt x="425" y="850" on="0"/>
        <pt x="444" y="826" on="0"/>
        <pt x="443" y="795" on="0"/>
        <pt x="339" y="719" on="0"/>
        <pt x="318" y="719" on="1"/>
        <pt x="295" y="719" on="0"/>
        <pt x="199" y="798" on="0"/>
        <pt x="199" y="821" on="1"/>
        <pt x="199" y="835" on="0"/>
        <pt x="224" y="855" on="0"/>
        <pt x="244" y="854" on="0"/>
        <pt x="305" y="808" on="0"/>
        <pt x="322" y="787" on="1"/>
        <pt x="385" y="850" on="0"/>
      </contour>
      <contour>
        <pt x="336" y="654" on="1"/>
        <pt x="403" y="654" on="0"/>
        <pt x="484" y="628" on="1"/>
        <pt x="502" y="614" on="0"/>
        <pt x="502" y="581" on="0"/>
        <pt x="469" y="556" on="0"/>
        <pt x="448" y="556" on="1"/>
        <pt x="394" y="570" on="0"/>
        <pt x="347" y="570" on="1"/>
        <pt x="239" y="570" on="0"/>
        <pt x="127" y="442" on="0"/>
        <pt x="127" y="190" on="0"/>
        <pt x="193" y="119" on="1"/>
        <pt x="227" y="82" on="0"/>
        <pt x="321" y="82" on="0"/>
        <pt x="424" y="132" on="1"/>
        <pt x="460" y="149" on="0"/>
        <pt x="472" y="149" on="1"/>
        <pt x="498" y="149" on="0"/>
        <pt x="498" y="95" on="0"/>
        <pt x="473" y="77" on="1"/>
        <pt x="387" y="32" on="0"/>
        <pt x="291" y="1" on="0"/>
        <pt x="256" y="1" on="1"/>
        <pt x="184" y="1" on="0"/>
        <pt x="133" y="54" on="1"/>
        <pt x="42" y="152" on="0"/>
        <pt x="42" y="491" on="0"/>
        <pt x="215" y="654" on="0"/>
      </contour>
    </TTGlyph>
    <TTGlyph name="Ccedilla" xMin="42" yMin="-182" xMax="502" yMax="654">
      <contour>
        <pt x="339" y="-17" on="1"/>
        <pt x="372" y="-13" on="1"/>
        <pt x="394" y="-13" on="0"/>
        <pt x="408" y="-21" on="1"/>
        <pt x="429" y="-33" on="0"/>
        <pt x="436" y="-70" on="1"/>
        <pt x="439" y="-86" on="0"/>
        <pt x="439" y="-99" on="1"/>
        <pt x="439" y="-132" on="0"/>
        <pt x="389" y="-182" on="0"/>
        <pt x="296" y="-182" on="0"/>
        <pt x="239" y="-156" on="0"/>
        <pt x="239" y="-122" on="0"/>
        <pt x="255" y="-102" on="0"/>
        <pt x="271" y="-102" on="0"/>
        <pt x="321" y="-128" on="0"/>
        <pt x="361" y="-128" on="0"/>
        <pt x="386" y="-108" on="0"/>
        <pt x="386" y="-98" on="1"/>
        <pt x="386" y="-69" on="0"/>
        <pt x="371" y="-64" on="1"/>
        <pt x="367" y="-63" on="0"/>
        <pt x="343" y="-63" on="0"/>
        <pt x="319" y="-65" on="1"/>
        <pt x="274" y="-65" on="0"/>
        <pt x="274" y="-12" on="1"/>
        <pt x="274" y="2" on="1"/>
        <pt x="268" y="1" on="0"/>
        <pt x="256" y="1" on="1"/>
        <pt x="184" y="1" on="0"/>
        <pt x="133" y="54" on="1"/>
        <pt x="42" y="152" on="0"/>
        <pt x="42" y="491" on="0"/>
        <pt x="215" y="654" on="0"/>
        <pt x="336" y="654" on="1"/>
        <pt x="403" y="654" on="0"/>
        <pt x="484" y="628" on="1"/>
        <pt x="502" y="614" on="0"/>
        <pt x="502" y="581" on="0"/>
        <pt x="469" y="556" on="0"/>
        <pt x="448" y="556" on="1"/>
        <pt x="394" y="570" on="0"/>
        <pt x="347" y="570" on="1"/>
        <pt x="239" y="570" on="0"/>
        <pt x="127" y="442" on="0"/>
        <pt x="127" y="190" on="0"/>
        <pt x="193" y="119" on="1"/>
        <pt x="227" y="82" on="0"/>
        <pt x="321" y="82" on="0"/>
        <pt x="424" y="132" on="1"/>
        <pt x="460" y="149" on="0"/>
        <pt x="472" y="149" on="1"/>
        <pt x="498" y="149" on="0"/>
        <pt x="498" y="95" on="0"/>
        <pt x="473" y="77" on="1"/>
        <pt x="392" y="35" on="0"/>
        <pt x="333" y="15" on="1"/>
        <pt x="332" y="7" on="0"/>
        <pt x="332" y="-17" on="0"/>
      </contour>
    </TTGlyph>
    <TTGlyph name="Ccircumflex" xMin="42" yMin="1" xMax="502" yMax="852">
      <contour>
        <pt x="200" y="772" on="0"/>
        <pt x="302" y="852" on="0"/>
        <pt x="347" y="852" on="0"/>
        <pt x="445" y="777" on="0"/>
        <pt x="445" y="754" on="1"/>
        <pt x="445" y="740" on="0"/>
        <pt x="421" y="720" on="0"/>
        <pt x="406" y="720" on="0"/>
        <pt x="332" y="784" on="0"/>
        <pt x="314" y="784" on="0"/>
        <pt x="247" y="718" on="0"/>
        <pt x="219" y="718" on="0"/>
        <pt x="200" y="741" on="0"/>
      </contour>
      <contour>
        <pt x="336" y="654" on="1"/>
        <pt x="403" y="654" on="0"/>
        <pt x="484" y="628" on="1"/>
        <pt x="502" y="614" on="0"/>
        <pt x="502" y="581" on="0"/>
        <pt x="469" y="556" on="0"/>
        <pt x="448" y="556" on="1"/>
        <pt x="394" y="570" on="0"/>
        <pt x="347" y="570" on="1"/>
        <pt x="239" y="570" on="0"/>
        <pt x="127" y="442" on="0"/>
        <pt x="127" y="190" on="0"/>
        <pt x="193" y="119" on="1"/>
        <pt x="227" y="82" on="0"/>
        <pt x="321" y="82" on="0"/>
        <pt x="424" y="132" on="1"/>
        <pt x="460" y="149" on="0"/>
        <pt x="472" y="149" on="1"/>
        <pt x="498" y="149" on="0"/>
        <pt x="498" y="95" on="0"/>
        <pt x="473" y="77" on="1"/>
        <pt x="387" y="32" on="0"/>
        <pt x="291" y="1" on="0"/>
        <pt x="256" y="1" on="1"/>
        <pt x="184" y="1" on="0"/>
        <pt x="133" y="54" on="1"/>
        <pt x="42" y="152" on="0"/>
        <pt x="42" y="491" on="0"/>
        <pt x="215" y="654" on="0"/>
      </contour>
    </TTGlyph>
    <TTGlyph name="Cdotaccent" xMin="42" yMin="1" xMax="502" yMax="829">
      <contour>
        <pt x="322" y="828" on="1"/>
        <pt x="340" y="828" on="0"/>
        <pt x="372" y="794" on="0"/>
        <pt x="372" y="757" on="0"/>
        <pt x="337" y="719" on="0"/>
        <pt x="299" y="719" on="0"/>
        <pt x="268" y="751" on="0"/>
        <pt x="268" y="776" on="1"/>
        <pt x="268" y="824" on="0"/>
        <pt x="320" y="828" on="1"/>
        <pt x="321" y="828" on="0"/>
      </contour>
      <contour>
        <pt x="336" y="654" on="1"/>
        <pt x="403" y="654" on="0"/>
        <pt x="484" y="628" on="1"/>
        <pt x="502" y="614" on="0"/>
        <pt x="502" y="581" on="0"/>
        <pt x="469" y="556" on="0"/>
        <pt x="448" y="556" on="1"/>
        <pt x="394" y="570" on="0"/>
        <pt x="347" y="570" on="1"/>
        <pt x="239" y="570" on="0"/>
        <pt x="127" y="442" on="0"/>
        <pt x="127" y="190" on="0"/>
        <pt x="193" y="119" on="1"/>
        <pt x="227" y="82" on="0"/>
        <pt x="321" y="82" on="0"/>
        <pt x="424" y="132" on="1"/>
        <pt x="460" y="149" on="0"/>
        <pt x="472" y="149" on="1"/>
        <pt x="498" y="149" on="0"/>
        <pt x="498" y="95" on="0"/>
        <pt x="473" y="77" on="1"/>
        <pt x="387" y="32" on="0"/>
        <pt x="291" y="1" on="0"/>
        <pt x="256" y="1" on="1"/>
        <pt x="184" y="1" on="0"/>
        <pt x="133" y="54" on="1"/>
        <pt x="42" y="152" on="0"/>
        <pt x="42" y="491" on="0"/>
        <pt x="215" y="654" on="0"/>
      </contour>
    </TTGlyph>
    <TTGlyph name="D" xMin="36" yMin="-55" xMax="468" yMax="662">
      <contour>
        <pt x="59" y="32" on="1"/>
        <pt x="44" y="43" on="0"/>
        <pt x="44" y="70" on="0"/>
        <pt x="55" y="79" on="1"/>
        <pt x="36" y="222" on="0"/>
        <pt x="36" y="407" on="1"/>
        <pt x="36" y="463" on="0"/>
        <pt x="41" y="625" on="1"/>
        <pt x="46" y="640" on="0"/>
        <pt x="77" y="662" on="0"/>
        <pt x="105" y="662" on="0"/>
        <pt x="108" y="661" on="1"/>
        <pt x="251" y="621" on="0"/>
        <pt x="463" y="392" on="0"/>
        <pt x="468" y="232" on="1"/>
        <pt x="468" y="56" on="0"/>
        <pt x="322" y="11" on="1"/>
        <pt x="280" y="-2" on="0"/>
        <pt x="187" y="-2" on="0"/>
        <pt x="152" y="5" on="1"/>
        <pt x="156" y="-3" on="0"/>
        <pt x="156" y="-30" on="0"/>
        <pt x="123" y="-55" on="0"/>
        <pt x="78" y="-55" on="0"/>
        <pt x="72" y="-28" on="1"/>
      </contour>
      <contour>
        <pt x="119" y="415" on="1"/>
        <pt x="119" y="240" on="0"/>
        <pt x="139" y="83" on="1"/>
        <pt x="163" y="76" on="0"/>
        <pt x="277" y="76" on="0"/>
        <pt x="382" y="114" on="0"/>
        <pt x="385" y="151" on="1"/>
        <pt x="388" y="179" on="0"/>
        <pt x="388" y="194" on="1"/>
        <pt x="388" y="324" on="0"/>
        <pt x="249" y="524" on="0"/>
        <pt x="124" y="576" on="1"/>
        <pt x="119" y="458" on="0"/>
      </contour>
    </TTGlyph>
    <TTGlyph name="Dcaron" xMin="36" yMin="-55" xMax="468" yMax="855">
      <contour>
        <pt x="316" y="850" on="1"/>
        <pt x="332" y="850" on="0"/>
        <pt x="351" y="826" on="0"/>
        <pt x="350" y="795" on="0"/>
        <pt x="246" y="719" on="0"/>
        <pt x="225" y="719" on="1"/>
        <pt x="202" y="719" on="0"/>
        <pt x="106" y="798" on="0"/>
        <pt x="106" y="821" on="1"/>
        <pt x="106" y="835" on="0"/>
        <pt x="131" y="855" on="0"/>
        <pt x="151" y="854" on="0"/>
        <pt x="212" y="808" on="0"/>
        <pt x="229" y="787" on="1"/>
        <pt x="292" y="850" on="0"/>
      </contour>
      <contour>
        <pt x="59" y="32" on="1"/>
        <pt x="44" y="43" on="0"/>
        <pt x="44" y="70" on="0"/>
        <pt x="55" y="79" on="1"/>
        <pt x="36" y="222" on="0"/>
        <pt x="36" y="407" on="1"/>
        <pt x="36" y="463" on="0"/>
        <pt x="41" y="625" on="1"/>
        <pt x="46" y="640" on="0"/>
        <pt x="77" y="662" on="0"/>
        <pt x="105" y="662" on="0"/>
        <pt x="108" y="661" on="1"/>
        <pt x="251" y="621" on="0"/>
        <pt x="463" y="392" on="0"/>
        <pt x="468" y="232" on="1"/>
        <pt x="468" y="56" on="0"/>
        <pt x="322" y="11" on="1"/>
        <pt x="280" y="-2" on="0"/>
        <pt x="187" y="-2" on="0"/>
        <pt x="152" y="5" on="1"/>
        <pt x="156" y="-3" on="0"/>
        <pt x="156" y="-30" on="0"/>
        <pt x="123" y="-55" on="0"/>
        <pt x="78" y="-55" on="0"/>
        <pt x="72" y="-28" on="1"/>
      </contour>
      <contour>
        <pt x="119" y="415" on="1"/>
        <pt x="119" y="240" on="0"/>
        <pt x="139" y="83" on="1"/>
        <pt x="163" y="76" on="0"/>
        <pt x="277" y="76" on="0"/>
        <pt x="382" y="114" on="0"/>
        <pt x="385" y="151" on="1"/>
        <pt x="388" y="179" on="0"/>
        <pt x="388" y="194" on="1"/>
        <pt x="388" y="324" on="0"/>
        <pt x="249" y="524" on="0"/>
        <pt x="124" y="576" on="1"/>
        <pt x="119" y="458" on="0"/>
      </contour>
    </TTGlyph>
    <TTGlyph name="Dcroat" xMin="21" yMin="-55" xMax="525" yMax="664">
      <contour>
        <pt x="292" y="-2" on="1"/>
        <pt x="244" y="-2" on="0"/>
        <pt x="209" y="5" on="1"/>
        <pt x="213" y="-4" on="0"/>
        <pt x="213" y="-25" on="0"/>
        <pt x="187" y="-55" on="0"/>
        <pt x="141" y="-55" on="0"/>
        <pt x="129" y="-30" on="0"/>
        <pt x="116" y="32" on="1"/>
        <pt x="101" y="43" on="0"/>
        <pt x="101" y="70" on="0"/>
        <pt x="112" y="79" on="1"/>
        <pt x="99" y="179" on="0"/>
        <pt x="94" y="317" on="1"/>
        <pt x="47" y="319" on="0"/>
        <pt x="21" y="335" on="0"/>
        <pt x="21" y="376" on="0"/>
        <pt x="49" y="391" on="0"/>
        <pt x="94" y="392" on="1"/>
        <pt x="94" y="561" on="0"/>
        <pt x="98" y="625" on="1"/>
        <pt x="104" y="647" on="0"/>
        <pt x="141" y="663" on="0"/>
        <pt x="159" y="663" on="0"/>
        <pt x="165" y="661" on="1"/>
        <pt x="308" y="621" on="0"/>
        <pt x="520" y="392" on="0"/>
        <pt x="525" y="232" on="1"/>
        <pt x="525" y="112" on="0"/>
        <pt x="395" y="-2" on="0"/>
      </contour>
      <contour>
        <pt x="250" y="388" on="0"/>
        <pt x="280" y="377" on="0"/>
        <pt x="280" y="330" on="0"/>
        <pt x="251" y="320" on="0"/>
        <pt x="178" y="317" on="1"/>
        <pt x="182" y="192" on="0"/>
        <pt x="196" y="83" on="1"/>
        <pt x="220" y="76" on="0"/>
        <pt x="259" y="76" on="1"/>
        <pt x="362" y="76" on="0"/>
        <pt x="445" y="132" on="0"/>
        <pt x="445" y="194" on="1"/>
        <pt x="445" y="324" on="0"/>
        <pt x="306" y="524" on="0"/>
        <pt x="181" y="576" on="1"/>
        <pt x="177" y="527" on="0"/>
        <pt x="177" y="392" on="1"/>
      </contour>
    </TTGlyph>
    <TTGlyph name="E" xMin="41" yMin="0" xMax="427" yMax="661">
      <contour>
        <pt x="55" y="344" on="1"/>
        <pt x="41" y="353" on="0"/>
        <pt x="41" y="387" on="0"/>
        <pt x="52" y="401" on="1"/>
        <pt x="48" y="501" on="0"/>
        <pt x="48" y="612" on="1"/>
        <pt x="54" y="636" on="0"/>
        <pt x="79" y="658" on="0"/>
        <pt x="103" y="661" on="1"/>
        <pt x="235" y="655" on="0"/>
        <pt x="389" y="655" on="1"/>
        <pt x="427" y="647" on="0"/>
        <pt x="427" y="622" on="1"/>
        <pt x="427" y="580" on="0"/>
        <pt x="345" y="573" on="1"/>
        <pt x="323" y="572" on="0"/>
        <pt x="297" y="572" on="1"/>
        <pt x="232" y="572" on="1"/>
        <pt x="213" y="572" on="0"/>
        <pt x="127" y="580" on="1"/>
        <pt x="127" y="455" on="0"/>
        <pt x="131" y="408" on="1"/>
        <pt x="184" y="407" on="0"/>
        <pt x="335" y="407" on="1"/>
        <pt x="371" y="400" on="0"/>
        <pt x="371" y="349" on="0"/>
        <pt x="342" y="335" on="1"/>
        <pt x="339" y="333" on="0"/>
        <pt x="331" y="331" on="1"/>
        <pt x="158" y="334" on="1"/>
        <pt x="142" y="334" on="0"/>
        <pt x="132" y="332" on="1"/>
        <pt x="136" y="160" on="1"/>
        <pt x="136" y="102" on="0"/>
        <pt x="133" y="77" on="1"/>
        <pt x="365" y="80" on="1"/>
        <pt x="397" y="75" on="0"/>
        <pt x="397" y="53" on="1"/>
        <pt x="397" y="38" on="0"/>
        <pt x="370" y="8" on="0"/>
        <pt x="352" y="4" on="1"/>
        <pt x="96" y="0" on="1"/>
        <pt x="73" y="0" on="0"/>
        <pt x="55" y="17" on="0"/>
        <pt x="55" y="37" on="1"/>
        <pt x="59" y="65" on="0"/>
        <pt x="59" y="127" on="1"/>
        <pt x="59" y="197" on="1"/>
      </contour>
    </TTGlyph>
    <TTGlyph name="Eacute" xMin="41" yMin="0" xMax="427" yMax="877">
      <contour>
        <pt x="238" y="860" on="1"/>
        <pt x="244" y="877" on="0"/>
        <pt x="283" y="877" on="0"/>
        <pt x="306" y="853" on="0"/>
        <pt x="306" y="838" on="0"/>
        <pt x="304" y="833" on="1"/>
        <pt x="288" y="788" on="0"/>
        <pt x="213" y="708" on="0"/>
        <pt x="173" y="708" on="0"/>
        <pt x="153" y="728" on="0"/>
        <pt x="153" y="755" on="0"/>
        <pt x="168" y="768" on="1"/>
        <pt x="222" y="811" on="0"/>
      </contour>
      <contour>
        <pt x="55" y="344" on="1"/>
        <pt x="41" y="353" on="0"/>
        <pt x="41" y="387" on="0"/>
        <pt x="52" y="401" on="1"/>
        <pt x="48" y="501" on="0"/>
        <pt x="48" y="612" on="1"/>
        <pt x="54" y="636" on="0"/>
        <pt x="79" y="658" on="0"/>
        <pt x="103" y="661" on="1"/>
        <pt x="235" y="655" on="0"/>
        <pt x="389" y="655" on="1"/>
        <pt x="427" y="647" on="0"/>
        <pt x="427" y="622" on="1"/>
        <pt x="427" y="580" on="0"/>
        <pt x="345" y="573" on="1"/>
        <pt x="323" y="572" on="0"/>
        <pt x="297" y="572" on="1"/>
        <pt x="232" y="572" on="1"/>
        <pt x="213" y="572" on="0"/>
        <pt x="127" y="580" on="1"/>
        <pt x="127" y="455" on="0"/>
        <pt x="131" y="408" on="1"/>
        <pt x="184" y="407" on="0"/>
        <pt x="335" y="407" on="1"/>
        <pt x="371" y="400" on="0"/>
        <pt x="371" y="349" on="0"/>
        <pt x="342" y="335" on="1"/>
        <pt x="339" y="333" on="0"/>
        <pt x="331" y="331" on="1"/>
        <pt x="158" y="334" on="1"/>
        <pt x="142" y="334" on="0"/>
        <pt x="132" y="332" on="1"/>
        <pt x="136" y="160" on="1"/>
        <pt x="136" y="102" on="0"/>
        <pt x="133" y="77" on="1"/>
        <pt x="365" y="80" on="1"/>
        <pt x="397" y="75" on="0"/>
        <pt x="397" y="53" on="1"/>
        <pt x="397" y="38" on="0"/>
        <pt x="370" y="8" on="0"/>
        <pt x="352" y="4" on="1"/>
        <pt x="96" y="0" on="1"/>
        <pt x="73" y="0" on="0"/>
        <pt x="55" y="17" on="0"/>
        <pt x="55" y="37" on="1"/>
        <pt x="59" y="65" on="0"/>
        <pt x="59" y="127" on="1"/>
        <pt x="59" y="197" on="1"/>
      </contour>
    </TTGlyph>
    <TTGlyph name="Ebreve" xMin="41" yMin="0" xMax="427" yMax="837">
      <contour>
        <pt x="104" y="814" on="0"/>
        <pt x="125" y="837" on="0"/>
        <pt x="161" y="837" on="0"/>
        <pt x="182" y="796" on="0"/>
        <pt x="192" y="779" on="0"/>
        <pt x="216" y="762" on="0"/>
        <pt x="255" y="762" on="0"/>
        <pt x="279" y="784" on="0"/>
        <pt x="308" y="833" on="0"/>
        <pt x="340" y="833" on="0"/>
        <pt x="358" y="813" on="0"/>
        <pt x="358" y="797" on="1"/>
        <pt x="358" y="755" on="0"/>
        <pt x="281" y="697" on="0"/>
        <pt x="183" y="697" on="0"/>
        <pt x="104" y="753" on="0"/>
        <pt x="104" y="798" on="1"/>
      </contour>
      <contour>
        <pt x="55" y="344" on="1"/>
        <pt x="41" y="353" on="0"/>
        <pt x="41" y="387" on="0"/>
        <pt x="52" y="401" on="1"/>
        <pt x="48" y="501" on="0"/>
        <pt x="48" y="612" on="1"/>
        <pt x="54" y="636" on="0"/>
        <pt x="79" y="658" on="0"/>
        <pt x="103" y="661" on="1"/>
        <pt x="235" y="655" on="0"/>
        <pt x="389" y="655" on="1"/>
        <pt x="427" y="647" on="0"/>
        <pt x="427" y="622" on="1"/>
        <pt x="427" y="580" on="0"/>
        <pt x="345" y="573" on="1"/>
        <pt x="323" y="572" on="0"/>
        <pt x="297" y="572" on="1"/>
        <pt x="232" y="572" on="1"/>
        <pt x="213" y="572" on="0"/>
        <pt x="127" y="580" on="1"/>
        <pt x="127" y="455" on="0"/>
        <pt x="131" y="408" on="1"/>
        <pt x="184" y="407" on="0"/>
        <pt x="335" y="407" on="1"/>
        <pt x="371" y="400" on="0"/>
        <pt x="371" y="349" on="0"/>
        <pt x="342" y="335" on="1"/>
        <pt x="339" y="333" on="0"/>
        <pt x="331" y="331" on="1"/>
        <pt x="158" y="334" on="1"/>
        <pt x="142" y="334" on="0"/>
        <pt x="132" y="332" on="1"/>
        <pt x="136" y="160" on="1"/>
        <pt x="136" y="102" on="0"/>
        <pt x="133" y="77" on="1"/>
        <pt x="365" y="80" on="1"/>
        <pt x="397" y="75" on="0"/>
        <pt x="397" y="53" on="1"/>
        <pt x="397" y="38" on="0"/>
        <pt x="370" y="8" on="0"/>
        <pt x="352" y="4" on="1"/>
        <pt x="96" y="0" on="1"/>
        <pt x="73" y="0" on="0"/>
        <pt x="55" y="17" on="0"/>
        <pt x="55" y="37" on="1"/>
        <pt x="59" y="65" on="0"/>
        <pt x="59" y="127" on="1"/>
        <pt x="59" y="197" on="1"/>
      </contour>
    </TTGlyph>
    <TTGlyph name="Ecaron" xMin="41" yMin="0" xMax="427" yMax="855">
      <contour>
        <pt x="320" y="850" on="1"/>
        <pt x="336" y="850" on="0"/>
        <pt x="355" y="826" on="0"/>
        <pt x="354" y="795" on="0"/>
        <pt x="250" y="719" on="0"/>
        <pt x="229" y="719" on="1"/>
        <pt x="206" y="719" on="0"/>
        <pt x="110" y="798" on="0"/>
        <pt x="110" y="821" on="1"/>
        <pt x="110" y="835" on="0"/>
        <pt x="135" y="855" on="0"/>
        <pt x="155" y="854" on="0"/>
        <pt x="216" y="808" on="0"/>
        <pt x="233" y="787" on="1"/>
        <pt x="296" y="850" on="0"/>
      </contour>
      <contour>
        <pt x="55" y="344" on="1"/>
        <pt x="41" y="353" on="0"/>
        <pt x="41" y="387" on="0"/>
        <pt x="52" y="401" on="1"/>
        <pt x="48" y="501" on="0"/>
        <pt x="48" y="612" on="1"/>
        <pt x="54" y="636" on="0"/>
        <pt x="79" y="658" on="0"/>
        <pt x="103" y="661" on="1"/>
        <pt x="235" y="655" on="0"/>
        <pt x="389" y="655" on="1"/>
        <pt x="427" y="647" on="0"/>
        <pt x="427" y="622" on="1"/>
        <pt x="427" y="580" on="0"/>
        <pt x="345" y="573" on="1"/>
        <pt x="323" y="572" on="0"/>
        <pt x="297" y="572" on="1"/>
        <pt x="232" y="572" on="1"/>
        <pt x="213" y="572" on="0"/>
        <pt x="127" y="580" on="1"/>
        <pt x="127" y="455" on="0"/>
        <pt x="131" y="408" on="1"/>
        <pt x="184" y="407" on="0"/>
        <pt x="335" y="407" on="1"/>
        <pt x="371" y="400" on="0"/>
        <pt x="371" y="349" on="0"/>
        <pt x="342" y="335" on="1"/>
        <pt x="339" y="333" on="0"/>
        <pt x="331" y="331" on="1"/>
        <pt x="158" y="334" on="1"/>
        <pt x="142" y="334" on="0"/>
        <pt x="132" y="332" on="1"/>
        <pt x="136" y="160" on="1"/>
        <pt x="136" y="102" on="0"/>
        <pt x="133" y="77" on="1"/>
        <pt x="365" y="80" on="1"/>
        <pt x="397" y="75" on="0"/>
        <pt x="397" y="53" on="1"/>
        <pt x="397" y="38" on="0"/>
        <pt x="370" y="8" on="0"/>
        <pt x="352" y="4" on="1"/>
        <pt x="96" y="0" on="1"/>
        <pt x="73" y="0" on="0"/>
        <pt x="55" y="17" on="0"/>
        <pt x="55" y="37" on="1"/>
        <pt x="59" y="65" on="0"/>
        <pt x="59" y="127" on="1"/>
        <pt x="59" y="197" on="1"/>
      </contour>
    </TTGlyph>
    <TTGlyph name="Ecircumflex" xMin="41" yMin="0" xMax="427" yMax="852">
      <contour>
        <pt x="111" y="772" on="0"/>
        <pt x="213" y="852" on="0"/>
        <pt x="258" y="852" on="0"/>
        <pt x="356" y="777" on="0"/>
        <pt x="356" y="754" on="1"/>
        <pt x="356" y="740" on="0"/>
        <pt x="332" y="720" on="0"/>
        <pt x="316" y="720" on="0"/>
        <pt x="244" y="784" on="0"/>
        <pt x="225" y="784" on="0"/>
        <pt x="158" y="718" on="0"/>
        <pt x="130" y="718" on="0"/>
        <pt x="111" y="741" on="0"/>
      </contour>
      <contour>
        <pt x="55" y="344" on="1"/>
        <pt x="41" y="353" on="0"/>
        <pt x="41" y="387" on="0"/>
        <pt x="52" y="401" on="1"/>
        <pt x="48" y="501" on="0"/>
        <pt x="48" y="612" on="1"/>
        <pt x="54" y="636" on="0"/>
        <pt x="79" y="658" on="0"/>
        <pt x="103" y="661" on="1"/>
        <pt x="235" y="655" on="0"/>
        <pt x="389" y="655" on="1"/>
        <pt x="427" y="647" on="0"/>
        <pt x="427" y="622" on="1"/>
        <pt x="427" y="580" on="0"/>
        <pt x="345" y="573" on="1"/>
        <pt x="323" y="572" on="0"/>
        <pt x="297" y="572" on="1"/>
        <pt x="232" y="572" on="1"/>
        <pt x="213" y="572" on="0"/>
        <pt x="127" y="580" on="1"/>
        <pt x="127" y="455" on="0"/>
        <pt x="131" y="408" on="1"/>
        <pt x="184" y="407" on="0"/>
        <pt x="335" y="407" on="1"/>
        <pt x="371" y="400" on="0"/>
        <pt x="371" y="349" on="0"/>
        <pt x="342" y="335" on="1"/>
        <pt x="339" y="333" on="0"/>
        <pt x="331" y="331" on="1"/>
        <pt x="158" y="334" on="1"/>
        <pt x="142" y="334" on="0"/>
        <pt x="132" y="332" on="1"/>
        <pt x="136" y="160" on="1"/>
        <pt x="136" y="102" on="0"/>
        <pt x="133" y="77" on="1"/>
        <pt x="365" y="80" on="1"/>
        <pt x="397" y="75" on="0"/>
        <pt x="397" y="53" on="1"/>
        <pt x="397" y="38" on="0"/>
        <pt x="370" y="8" on="0"/>
        <pt x="352" y="4" on="1"/>
        <pt x="96" y="0" on="1"/>
        <pt x="73" y="0" on="0"/>
        <pt x="55" y="17" on="0"/>
        <pt x="55" y="37" on="1"/>
        <pt x="59" y="65" on="0"/>
        <pt x="59" y="127" on="1"/>
        <pt x="59" y="197" on="1"/>
      </contour>
    </TTGlyph>
    <TTGlyph name="Ecircumflexacute" xMin="41" yMin="0" xMax="467" yMax="983">
      <contour>
        <pt x="399" y="966" on="1"/>
        <pt x="405" y="983" on="0"/>
        <pt x="444" y="983" on="0"/>
        <pt x="467" y="959" on="0"/>
        <pt x="467" y="944" on="0"/>
        <pt x="465" y="939" on="1"/>
        <pt x="449" y="894" on="0"/>
        <pt x="374" y="814" on="0"/>
        <pt x="334" y="814" on="0"/>
        <pt x="314" y="834" on="0"/>
        <pt x="314" y="861" on="0"/>
        <pt x="330" y="874" on="1"/>
        <pt x="383" y="917" on="0"/>
      </contour>
      <contour>
        <pt x="111" y="772" on="0"/>
        <pt x="213" y="852" on="0"/>
        <pt x="258" y="852" on="0"/>
        <pt x="356" y="777" on="0"/>
        <pt x="356" y="754" on="1"/>
        <pt x="356" y="740" on="0"/>
        <pt x="332" y="720" on="0"/>
        <pt x="316" y="720" on="0"/>
        <pt x="244" y="784" on="0"/>
        <pt x="225" y="784" on="0"/>
        <pt x="158" y="718" on="0"/>
        <pt x="130" y="718" on="0"/>
        <pt x="111" y="741" on="0"/>
      </contour>
      <contour>
        <pt x="55" y="344" on="1"/>
        <pt x="41" y="353" on="0"/>
        <pt x="41" y="387" on="0"/>
        <pt x="52" y="401" on="1"/>
        <pt x="48" y="501" on="0"/>
        <pt x="48" y="612" on="1"/>
        <pt x="54" y="636" on="0"/>
        <pt x="79" y="658" on="0"/>
        <pt x="103" y="661" on="1"/>
        <pt x="235" y="655" on="0"/>
        <pt x="389" y="655" on="1"/>
        <pt x="427" y="647" on="0"/>
        <pt x="427" y="622" on="1"/>
        <pt x="427" y="580" on="0"/>
        <pt x="345" y="573" on="1"/>
        <pt x="323" y="572" on="0"/>
        <pt x="297" y="572" on="1"/>
        <pt x="232" y="572" on="1"/>
        <pt x="213" y="572" on="0"/>
        <pt x="127" y="580" on="1"/>
        <pt x="127" y="455" on="0"/>
        <pt x="131" y="408" on="1"/>
        <pt x="184" y="407" on="0"/>
        <pt x="335" y="407" on="1"/>
        <pt x="371" y="400" on="0"/>
        <pt x="371" y="349" on="0"/>
        <pt x="342" y="335" on="1"/>
        <pt x="339" y="333" on="0"/>
        <pt x="331" y="331" on="1"/>
        <pt x="158" y="334" on="1"/>
        <pt x="142" y="334" on="0"/>
        <pt x="132" y="332" on="1"/>
        <pt x="136" y="160" on="1"/>
        <pt x="136" y="102" on="0"/>
        <pt x="133" y="77" on="1"/>
        <pt x="365" y="80" on="1"/>
        <pt x="397" y="75" on="0"/>
        <pt x="397" y="53" on="1"/>
        <pt x="397" y="38" on="0"/>
        <pt x="370" y="8" on="0"/>
        <pt x="352" y="4" on="1"/>
        <pt x="96" y="0" on="1"/>
        <pt x="73" y="0" on="0"/>
        <pt x="55" y="17" on="0"/>
        <pt x="55" y="37" on="1"/>
        <pt x="59" y="65" on="0"/>
        <pt x="59" y="127" on="1"/>
        <pt x="59" y="197" on="1"/>
      </contour>
    </TTGlyph>
    <TTGlyph name="Ecircumflexdotbelow" xMin="41" yMin="-134" xMax="427" yMax="852">
      <contour>
        <pt x="111" y="772" on="0"/>
        <pt x="213" y="852" on="0"/>
        <pt x="258" y="852" on="0"/>
        <pt x="356" y="777" on="0"/>
        <pt x="356" y="754" on="1"/>
        <pt x="356" y="740" on="0"/>
        <pt x="332" y="720" on="0"/>
        <pt x="316" y="720" on="0"/>
        <pt x="244" y="784" on="0"/>
        <pt x="225" y="784" on="0"/>
        <pt x="158" y="718" on="0"/>
        <pt x="130" y="718" on="0"/>
        <pt x="111" y="741" on="0"/>
      </contour>
      <contour>
        <pt x="55" y="344" on="1"/>
        <pt x="41" y="353" on="0"/>
        <pt x="41" y="387" on="0"/>
        <pt x="52" y="401" on="1"/>
        <pt x="48" y="501" on="0"/>
        <pt x="48" y="612" on="1"/>
        <pt x="54" y="636" on="0"/>
        <pt x="79" y="658" on="0"/>
        <pt x="103" y="661" on="1"/>
        <pt x="235" y="655" on="0"/>
        <pt x="389" y="655" on="1"/>
        <pt x="427" y="647" on="0"/>
        <pt x="427" y="622" on="1"/>
        <pt x="427" y="580" on="0"/>
        <pt x="345" y="573" on="1"/>
        <pt x="323" y="572" on="0"/>
        <pt x="297" y="572" on="1"/>
        <pt x="232" y="572" on="1"/>
        <pt x="213" y="572" on="0"/>
        <pt x="127" y="580" on="1"/>
        <pt x="127" y="455" on="0"/>
        <pt x="131" y="408" on="1"/>
        <pt x="184" y="407" on="0"/>
        <pt x="335" y="407" on="1"/>
        <pt x="371" y="400" on="0"/>
        <pt x="371" y="349" on="0"/>
        <pt x="342" y="335" on="1"/>
        <pt x="339" y="333" on="0"/>
        <pt x="331" y="331" on="1"/>
        <pt x="158" y="334" on="1"/>
        <pt x="142" y="334" on="0"/>
        <pt x="132" y="332" on="1"/>
        <pt x="136" y="160" on="1"/>
        <pt x="136" y="102" on="0"/>
        <pt x="133" y="77" on="1"/>
        <pt x="365" y="80" on="1"/>
        <pt x="397" y="75" on="0"/>
        <pt x="397" y="53" on="1"/>
        <pt x="397" y="38" on="0"/>
        <pt x="370" y="8" on="0"/>
        <pt x="352" y="4" on="1"/>
        <pt x="96" y="0" on="1"/>
        <pt x="73" y="0" on="0"/>
        <pt x="55" y="17" on="0"/>
        <pt x="55" y="37" on="1"/>
        <pt x="59" y="65" on="0"/>
        <pt x="59" y="127" on="1"/>
        <pt x="59" y="197" on="1"/>
      </contour>
      <contour>
        <pt x="243" y="-35" on="0"/>
        <pt x="272" y="-65" on="0"/>
        <pt x="272" y="-100" on="0"/>
        <pt x="241" y="-134" on="0"/>
        <pt x="206" y="-134" on="0"/>
        <pt x="180" y="-106" on="0"/>
        <pt x="178" y="-82" on="1"/>
        <pt x="182" y="-59" on="0"/>
        <pt x="192" y="-48" on="1"/>
        <pt x="204" y="-35" on="0"/>
      </contour>
    </TTGlyph>
    <TTGlyph name="Ecircumflexgrave" xMin="41" yMin="0" xMax="427" yMax="955">
      <contour>
        <pt x="413" y="795" on="1"/>
        <pt x="404" y="781" on="0"/>
        <pt x="377" y="781" on="0"/>
        <pt x="340" y="801" on="0"/>
        <pt x="285" y="855" on="0"/>
        <pt x="258" y="906" on="0"/>
        <pt x="258" y="925" on="0"/>
        <pt x="262" y="942" on="0"/>
        <pt x="285" y="955" on="0"/>
        <pt x="299" y="955" on="0"/>
        <pt x="303" y="954" on="1"/>
        <pt x="318" y="950" on="0"/>
        <pt x="370" y="863" on="0"/>
        <pt x="401" y="847" on="1"/>
        <pt x="417" y="839" on="0"/>
        <pt x="421" y="803" on="0"/>
      </contour>
      <contour>
        <pt x="111" y="772" on="0"/>
        <pt x="213" y="852" on="0"/>
        <pt x="258" y="852" on="0"/>
        <pt x="356" y="777" on="0"/>
        <pt x="356" y="754" on="1"/>
        <pt x="356" y="740" on="0"/>
        <pt x="332" y="720" on="0"/>
        <pt x="316" y="720" on="0"/>
        <pt x="244" y="784" on="0"/>
        <pt x="225" y="784" on="0"/>
        <pt x="158" y="718" on="0"/>
        <pt x="130" y="718" on="0"/>
        <pt x="111" y="741" on="0"/>
      </contour>
      <contour>
        <pt x="55" y="344" on="1"/>
        <pt x="41" y="353" on="0"/>
        <pt x="41" y="387" on="0"/>
        <pt x="52" y="401" on="1"/>
        <pt x="48" y="501" on="0"/>
        <pt x="48" y="612" on="1"/>
        <pt x="54" y="636" on="0"/>
        <pt x="79" y="658" on="0"/>
        <pt x="103" y="661" on="1"/>
        <pt x="235" y="655" on="0"/>
        <pt x="389" y="655" on="1"/>
        <pt x="427" y="647" on="0"/>
        <pt x="427" y="622" on="1"/>
        <pt x="427" y="580" on="0"/>
        <pt x="345" y="573" on="1"/>
        <pt x="323" y="572" on="0"/>
        <pt x="297" y="572" on="1"/>
        <pt x="232" y="572" on="1"/>
        <pt x="213" y="572" on="0"/>
        <pt x="127" y="580" on="1"/>
        <pt x="127" y="455" on="0"/>
        <pt x="131" y="408" on="1"/>
        <pt x="184" y="407" on="0"/>
        <pt x="335" y="407" on="1"/>
        <pt x="371" y="400" on="0"/>
        <pt x="371" y="349" on="0"/>
        <pt x="342" y="335" on="1"/>
        <pt x="339" y="333" on="0"/>
        <pt x="331" y="331" on="1"/>
        <pt x="158" y="334" on="1"/>
        <pt x="142" y="334" on="0"/>
        <pt x="132" y="332" on="1"/>
        <pt x="136" y="160" on="1"/>
        <pt x="136" y="102" on="0"/>
        <pt x="133" y="77" on="1"/>
        <pt x="365" y="80" on="1"/>
        <pt x="397" y="75" on="0"/>
        <pt x="397" y="53" on="1"/>
        <pt x="397" y="38" on="0"/>
        <pt x="370" y="8" on="0"/>
        <pt x="352" y="4" on="1"/>
        <pt x="96" y="0" on="1"/>
        <pt x="73" y="0" on="0"/>
        <pt x="55" y="17" on="0"/>
        <pt x="55" y="37" on="1"/>
        <pt x="59" y="65" on="0"/>
        <pt x="59" y="127" on="1"/>
        <pt x="59" y="197" on="1"/>
      </contour>
    </TTGlyph>
    <TTGlyph name="Ecircumflexhookabove" xMin="41" yMin="0" xMax="427" yMax="985">
      <contour>
        <pt x="345" y="984" on="1"/>
        <pt x="378" y="984" on="0"/>
        <pt x="414" y="943" on="0"/>
        <pt x="414" y="916" on="0"/>
        <pt x="408" y="900" on="0"/>
        <pt x="378" y="849" on="1"/>
        <pt x="359" y="819" on="0"/>
        <pt x="340" y="819" on="1"/>
        <pt x="334" y="819" on="0"/>
        <pt x="329" y="821" on="1"/>
        <pt x="316" y="826" on="0"/>
        <pt x="318" y="840" on="1"/>
        <pt x="322" y="861" on="0"/>
        <pt x="353" y="898" on="0"/>
        <pt x="361" y="929" on="0"/>
        <pt x="344" y="933" on="1"/>
        <pt x="336" y="933" on="0"/>
        <pt x="329" y="924" on="0"/>
        <pt x="322" y="912" on="0"/>
        <pt x="312" y="902" on="0"/>
        <pt x="294" y="902" on="0"/>
        <pt x="284" y="911" on="1"/>
        <pt x="276" y="921" on="0"/>
        <pt x="282" y="953" on="0"/>
        <pt x="319" y="984" on="0"/>
        <pt x="342" y="984" on="1"/>
        <pt x="343" y="984" on="0"/>
      </contour>
      <contour>
        <pt x="111" y="772" on="0"/>
        <pt x="213" y="852" on="0"/>
        <pt x="258" y="852" on="0"/>
        <pt x="356" y="777" on="0"/>
        <pt x="356" y="754" on="1"/>
        <pt x="356" y="740" on="0"/>
        <pt x="332" y="720" on="0"/>
        <pt x="316" y="720" on="0"/>
        <pt x="244" y="784" on="0"/>
        <pt x="225" y="784" on="0"/>
        <pt x="158" y="718" on="0"/>
        <pt x="130" y="718" on="0"/>
        <pt x="111" y="741" on="0"/>
      </contour>
      <contour>
        <pt x="55" y="344" on="1"/>
        <pt x="41" y="353" on="0"/>
        <pt x="41" y="387" on="0"/>
        <pt x="52" y="401" on="1"/>
        <pt x="48" y="501" on="0"/>
        <pt x="48" y="612" on="1"/>
        <pt x="54" y="636" on="0"/>
        <pt x="79" y="658" on="0"/>
        <pt x="103" y="661" on="1"/>
        <pt x="235" y="655" on="0"/>
        <pt x="389" y="655" on="1"/>
        <pt x="427" y="647" on="0"/>
        <pt x="427" y="622" on="1"/>
        <pt x="427" y="580" on="0"/>
        <pt x="345" y="573" on="1"/>
        <pt x="323" y="572" on="0"/>
        <pt x="297" y="572" on="1"/>
        <pt x="232" y="572" on="1"/>
        <pt x="213" y="572" on="0"/>
        <pt x="127" y="580" on="1"/>
        <pt x="127" y="455" on="0"/>
        <pt x="131" y="408" on="1"/>
        <pt x="184" y="407" on="0"/>
        <pt x="335" y="407" on="1"/>
        <pt x="371" y="400" on="0"/>
        <pt x="371" y="349" on="0"/>
        <pt x="342" y="335" on="1"/>
        <pt x="339" y="333" on="0"/>
        <pt x="331" y="331" on="1"/>
        <pt x="158" y="334" on="1"/>
        <pt x="142" y="334" on="0"/>
        <pt x="132" y="332" on="1"/>
        <pt x="136" y="160" on="1"/>
        <pt x="136" y="102" on="0"/>
        <pt x="133" y="77" on="1"/>
        <pt x="365" y="80" on="1"/>
        <pt x="397" y="75" on="0"/>
        <pt x="397" y="53" on="1"/>
        <pt x="397" y="38" on="0"/>
        <pt x="370" y="8" on="0"/>
        <pt x="352" y="4" on="1"/>
        <pt x="96" y="0" on="1"/>
        <pt x="73" y="0" on="0"/>
        <pt x="55" y="17" on="0"/>
        <pt x="55" y="37" on="1"/>
        <pt x="59" y="65" on="0"/>
        <pt x="59" y="127" on="1"/>
        <pt x="59" y="197" on="1"/>
      </contour>
    </TTGlyph>
    <TTGlyph name="Ecircumflextilde" xMin="41" yMin="0" xMax="427" yMax="982">
      <contour>
        <pt x="98" y="934" on="0"/>
        <pt x="157" y="982" on="0"/>
        <pt x="210" y="982" on="0"/>
        <pt x="242" y="966" on="0"/>
        <pt x="248" y="956" on="1"/>
        <pt x="264" y="930" on="0"/>
        <pt x="290" y="930" on="0"/>
        <pt x="321" y="978" on="0"/>
        <pt x="348" y="978" on="0"/>
        <pt x="368" y="954" on="0"/>
        <pt x="368" y="941" on="1"/>
        <pt x="368" y="905" on="0"/>
        <pt x="309" y="867" on="0"/>
        <pt x="254" y="867" on="0"/>
        <pt x="224" y="890" on="0"/>
        <pt x="202" y="913" on="0"/>
        <pt x="189" y="913" on="1"/>
        <pt x="183" y="913" on="0"/>
        <pt x="145" y="868" on="0"/>
        <pt x="119" y="868" on="0"/>
        <pt x="98" y="893" on="0"/>
      </contour>
      <contour>
        <pt x="111" y="772" on="0"/>
        <pt x="213" y="852" on="0"/>
        <pt x="258" y="852" on="0"/>
        <pt x="356" y="777" on="0"/>
        <pt x="356" y="754" on="1"/>
        <pt x="356" y="740" on="0"/>
        <pt x="332" y="720" on="0"/>
        <pt x="316" y="720" on="0"/>
        <pt x="244" y="784" on="0"/>
        <pt x="225" y="784" on="0"/>
        <pt x="158" y="718" on="0"/>
        <pt x="130" y="718" on="0"/>
        <pt x="111" y="741" on="0"/>
      </contour>
      <contour>
        <pt x="55" y="344" on="1"/>
        <pt x="41" y="353" on="0"/>
        <pt x="41" y="387" on="0"/>
        <pt x="52" y="401" on="1"/>
        <pt x="48" y="501" on="0"/>
        <pt x="48" y="612" on="1"/>
        <pt x="54" y="636" on="0"/>
        <pt x="79" y="658" on="0"/>
        <pt x="103" y="661" on="1"/>
        <pt x="235" y="655" on="0"/>
        <pt x="389" y="655" on="1"/>
        <pt x="427" y="647" on="0"/>
        <pt x="427" y="622" on="1"/>
        <pt x="427" y="580" on="0"/>
        <pt x="345" y="573" on="1"/>
        <pt x="323" y="572" on="0"/>
        <pt x="297" y="572" on="1"/>
        <pt x="232" y="572" on="1"/>
        <pt x="213" y="572" on="0"/>
        <pt x="127" y="580" on="1"/>
        <pt x="127" y="455" on="0"/>
        <pt x="131" y="408" on="1"/>
        <pt x="184" y="407" on="0"/>
        <pt x="335" y="407" on="1"/>
        <pt x="371" y="400" on="0"/>
        <pt x="371" y="349" on="0"/>
        <pt x="342" y="335" on="1"/>
        <pt x="339" y="333" on="0"/>
        <pt x="331" y="331" on="1"/>
        <pt x="158" y="334" on="1"/>
        <pt x="142" y="334" on="0"/>
        <pt x="132" y="332" on="1"/>
        <pt x="136" y="160" on="1"/>
        <pt x="136" y="102" on="0"/>
        <pt x="133" y="77" on="1"/>
        <pt x="365" y="80" on="1"/>
        <pt x="397" y="75" on="0"/>
        <pt x="397" y="53" on="1"/>
        <pt x="397" y="38" on="0"/>
        <pt x="370" y="8" on="0"/>
        <pt x="352" y="4" on="1"/>
        <pt x="96" y="0" on="1"/>
        <pt x="73" y="0" on="0"/>
        <pt x="55" y="17" on="0"/>
        <pt x="55" y="37" on="1"/>
        <pt x="59" y="65" on="0"/>
        <pt x="59" y="127" on="1"/>
        <pt x="59" y="197" on="1"/>
      </contour>
    </TTGlyph>
    <TTGlyph name="Edieresis" xMin="41" yMin="0" xMax="427" yMax="809">
      <contour>
        <pt x="143" y="712" on="1"/>
        <pt x="106" y="712" on="0"/>
        <pt x="98" y="751" on="1"/>
        <pt x="98" y="774" on="0"/>
        <pt x="132" y="809" on="0"/>
        <pt x="173" y="809" on="0"/>
        <pt x="197" y="781" on="0"/>
        <pt x="198" y="757" on="1"/>
        <pt x="195" y="737" on="0"/>
        <pt x="164" y="712" on="0"/>
      </contour>
      <contour>
        <pt x="323" y="808" on="1"/>
        <pt x="341" y="808" on="0"/>
        <pt x="366" y="787" on="0"/>
        <pt x="367" y="769" on="1"/>
        <pt x="364" y="744" on="0"/>
        <pt x="334" y="715" on="0"/>
        <pt x="295" y="715" on="0"/>
        <pt x="269" y="742" on="0"/>
        <pt x="269" y="763" on="1"/>
        <pt x="269" y="808" on="0"/>
      </contour>
      <contour>
        <pt x="55" y="344" on="1"/>
        <pt x="41" y="353" on="0"/>
        <pt x="41" y="387" on="0"/>
        <pt x="52" y="401" on="1"/>
        <pt x="48" y="501" on="0"/>
        <pt x="48" y="612" on="1"/>
        <pt x="54" y="636" on="0"/>
        <pt x="79" y="658" on="0"/>
        <pt x="103" y="661" on="1"/>
        <pt x="235" y="655" on="0"/>
        <pt x="389" y="655" on="1"/>
        <pt x="427" y="647" on="0"/>
        <pt x="427" y="622" on="1"/>
        <pt x="427" y="580" on="0"/>
        <pt x="345" y="573" on="1"/>
        <pt x="323" y="572" on="0"/>
        <pt x="297" y="572" on="1"/>
        <pt x="232" y="572" on="1"/>
        <pt x="213" y="572" on="0"/>
        <pt x="127" y="580" on="1"/>
        <pt x="127" y="455" on="0"/>
        <pt x="131" y="408" on="1"/>
        <pt x="184" y="407" on="0"/>
        <pt x="335" y="407" on="1"/>
        <pt x="371" y="400" on="0"/>
        <pt x="371" y="349" on="0"/>
        <pt x="342" y="335" on="1"/>
        <pt x="339" y="333" on="0"/>
        <pt x="331" y="331" on="1"/>
        <pt x="158" y="334" on="1"/>
        <pt x="142" y="334" on="0"/>
        <pt x="132" y="332" on="1"/>
        <pt x="136" y="160" on="1"/>
        <pt x="136" y="102" on="0"/>
        <pt x="133" y="77" on="1"/>
        <pt x="365" y="80" on="1"/>
        <pt x="397" y="75" on="0"/>
        <pt x="397" y="53" on="1"/>
        <pt x="397" y="38" on="0"/>
        <pt x="370" y="8" on="0"/>
        <pt x="352" y="4" on="1"/>
        <pt x="96" y="0" on="1"/>
        <pt x="73" y="0" on="0"/>
        <pt x="55" y="17" on="0"/>
        <pt x="55" y="37" on="1"/>
        <pt x="59" y="65" on="0"/>
        <pt x="59" y="127" on="1"/>
        <pt x="59" y="197" on="1"/>
      </contour>
    </TTGlyph>
    <TTGlyph name="Edotaccent" xMin="41" yMin="0" xMax="427" yMax="829">
      <contour>
        <pt x="233" y="828" on="1"/>
        <pt x="251" y="828" on="0"/>
        <pt x="283" y="794" on="0"/>
        <pt x="283" y="757" on="0"/>
        <pt x="248" y="719" on="0"/>
        <pt x="210" y="719" on="0"/>
        <pt x="179" y="751" on="0"/>
        <pt x="179" y="776" on="1"/>
        <pt x="179" y="824" on="0"/>
        <pt x="231" y="828" on="1"/>
        <pt x="232" y="828" on="0"/>
      </contour>
      <contour>
        <pt x="55" y="344" on="1"/>
        <pt x="41" y="353" on="0"/>
        <pt x="41" y="387" on="0"/>
        <pt x="52" y="401" on="1"/>
        <pt x="48" y="501" on="0"/>
        <pt x="48" y="612" on="1"/>
        <pt x="54" y="636" on="0"/>
        <pt x="79" y="658" on="0"/>
        <pt x="103" y="661" on="1"/>
        <pt x="235" y="655" on="0"/>
        <pt x="389" y="655" on="1"/>
        <pt x="427" y="647" on="0"/>
        <pt x="427" y="622" on="1"/>
        <pt x="427" y="580" on="0"/>
        <pt x="345" y="573" on="1"/>
        <pt x="323" y="572" on="0"/>
        <pt x="297" y="572" on="1"/>
        <pt x="232" y="572" on="1"/>
        <pt x="213" y="572" on="0"/>
        <pt x="127" y="580" on="1"/>
        <pt x="127" y="455" on="0"/>
        <pt x="131" y="408" on="1"/>
        <pt x="184" y="407" on="0"/>
        <pt x="335" y="407" on="1"/>
        <pt x="371" y="400" on="0"/>
        <pt x="371" y="349" on="0"/>
        <pt x="342" y="335" on="1"/>
        <pt x="339" y="333" on="0"/>
        <pt x="331" y="331" on="1"/>
        <pt x="158" y="334" on="1"/>
        <pt x="142" y="334" on="0"/>
        <pt x="132" y="332" on="1"/>
        <pt x="136" y="160" on="1"/>
        <pt x="136" y="102" on="0"/>
        <pt x="133" y="77" on="1"/>
        <pt x="365" y="80" on="1"/>
        <pt x="397" y="75" on="0"/>
        <pt x="397" y="53" on="1"/>
        <pt x="397" y="38" on="0"/>
        <pt x="370" y="8" on="0"/>
        <pt x="352" y="4" on="1"/>
        <pt x="96" y="0" on="1"/>
        <pt x="73" y="0" on="0"/>
        <pt x="55" y="17" on="0"/>
        <pt x="55" y="37" on="1"/>
        <pt x="59" y="65" on="0"/>
        <pt x="59" y="127" on="1"/>
        <pt x="59" y="197" on="1"/>
      </contour>
    </TTGlyph>
    <TTGlyph name="Edotbelow" xMin="41" yMin="-134" xMax="427" yMax="661">
      <contour>
        <pt x="55" y="344" on="1"/>
        <pt x="41" y="353" on="0"/>
        <pt x="41" y="387" on="0"/>
        <pt x="52" y="401" on="1"/>
        <pt x="48" y="501" on="0"/>
        <pt x="48" y="612" on="1"/>
        <pt x="54" y="636" on="0"/>
        <pt x="79" y="658" on="0"/>
        <pt x="103" y="661" on="1"/>
        <pt x="235" y="655" on="0"/>
        <pt x="389" y="655" on="1"/>
        <pt x="427" y="647" on="0"/>
        <pt x="427" y="622" on="1"/>
        <pt x="427" y="580" on="0"/>
        <pt x="345" y="573" on="1"/>
        <pt x="323" y="572" on="0"/>
        <pt x="297" y="572" on="1"/>
        <pt x="232" y="572" on="1"/>
        <pt x="213" y="572" on="0"/>
        <pt x="127" y="580" on="1"/>
        <pt x="127" y="455" on="0"/>
        <pt x="131" y="408" on="1"/>
        <pt x="184" y="407" on="0"/>
        <pt x="335" y="407" on="1"/>
        <pt x="371" y="400" on="0"/>
        <pt x="371" y="349" on="0"/>
        <pt x="342" y="335" on="1"/>
        <pt x="339" y="333" on="0"/>
        <pt x="331" y="331" on="1"/>
        <pt x="158" y="334" on="1"/>
        <pt x="142" y="334" on="0"/>
        <pt x="132" y="332" on="1"/>
        <pt x="136" y="160" on="1"/>
        <pt x="136" y="102" on="0"/>
        <pt x="133" y="77" on="1"/>
        <pt x="365" y="80" on="1"/>
        <pt x="397" y="75" on="0"/>
        <pt x="397" y="53" on="1"/>
        <pt x="397" y="38" on="0"/>
        <pt x="370" y="8" on="0"/>
        <pt x="352" y="4" on="1"/>
        <pt x="96" y="0" on="1"/>
        <pt x="73" y="0" on="0"/>
        <pt x="55" y="17" on="0"/>
        <pt x="55" y="37" on="1"/>
        <pt x="59" y="65" on="0"/>
        <pt x="59" y="127" on="1"/>
        <pt x="59" y="197" on="1"/>
      </contour>
      <contour>
        <pt x="243" y="-35" on="0"/>
        <pt x="272" y="-65" on="0"/>
        <pt x="272" y="-100" on="0"/>
        <pt x="241" y="-134" on="0"/>
        <pt x="206" y="-134" on="0"/>
        <pt x="180" y="-106" on="0"/>
        <pt x="178" y="-82" on="1"/>
        <pt x="182" y="-59" on="0"/>
        <pt x="192" y="-48" on="1"/>
        <pt x="204" y="-35" on="0"/>
      </contour>
    </TTGlyph>
    <TTGlyph name="Egrave" xMin="41" yMin="0" xMax="427" yMax="871">
      <contour>
        <pt x="305" y="711" on="1"/>
        <pt x="296" y="697" on="0"/>
        <pt x="269" y="697" on="0"/>
        <pt x="232" y="717" on="0"/>
        <pt x="177" y="771" on="0"/>
        <pt x="150" y="822" on="0"/>
        <pt x="150" y="841" on="0"/>
        <pt x="154" y="858" on="0"/>
        <pt x="177" y="871" on="0"/>
        <pt x="191" y="871" on="0"/>
        <pt x="195" y="870" on="1"/>
        <pt x="210" y="866" on="0"/>
        <pt x="262" y="779" on="0"/>
        <pt x="293" y="763" on="1"/>
        <pt x="309" y="755" on="0"/>
        <pt x="313" y="719" on="0"/>
      </contour>
      <contour>
        <pt x="55" y="344" on="1"/>
        <pt x="41" y="353" on="0"/>
        <pt x="41" y="387" on="0"/>
        <pt x="52" y="401" on="1"/>
        <pt x="48" y="501" on="0"/>
        <pt x="48" y="612" on="1"/>
        <pt x="54" y="636" on="0"/>
        <pt x="79" y="658" on="0"/>
        <pt x="103" y="661" on="1"/>
        <pt x="235" y="655" on="0"/>
        <pt x="389" y="655" on="1"/>
        <pt x="427" y="647" on="0"/>
        <pt x="427" y="622" on="1"/>
        <pt x="427" y="580" on="0"/>
        <pt x="345" y="573" on="1"/>
        <pt x="323" y="572" on="0"/>
        <pt x="297" y="572" on="1"/>
        <pt x="232" y="572" on="1"/>
        <pt x="213" y="572" on="0"/>
        <pt x="127" y="580" on="1"/>
        <pt x="127" y="455" on="0"/>
        <pt x="131" y="408" on="1"/>
        <pt x="184" y="407" on="0"/>
        <pt x="335" y="407" on="1"/>
        <pt x="371" y="400" on="0"/>
        <pt x="371" y="349" on="0"/>
        <pt x="342" y="335" on="1"/>
        <pt x="339" y="333" on="0"/>
        <pt x="331" y="331" on="1"/>
        <pt x="158" y="334" on="1"/>
        <pt x="142" y="334" on="0"/>
        <pt x="132" y="332" on="1"/>
        <pt x="136" y="160" on="1"/>
        <pt x="136" y="102" on="0"/>
        <pt x="133" y="77" on="1"/>
        <pt x="365" y="80" on="1"/>
        <pt x="397" y="75" on="0"/>
        <pt x="397" y="53" on="1"/>
        <pt x="397" y="38" on="0"/>
        <pt x="370" y="8" on="0"/>
        <pt x="352" y="4" on="1"/>
        <pt x="96" y="0" on="1"/>
        <pt x="73" y="0" on="0"/>
        <pt x="55" y="17" on="0"/>
        <pt x="55" y="37" on="1"/>
        <pt x="59" y="65" on="0"/>
        <pt x="59" y="127" on="1"/>
        <pt x="59" y="197" on="1"/>
      </contour>
    </TTGlyph>
    <TTGlyph name="Ehookabove" xMin="41" yMin="0" xMax="427" yMax="860">
      <contour>
        <pt x="234" y="859" on="1"/>
        <pt x="267" y="859" on="0"/>
        <pt x="303" y="818" on="0"/>
        <pt x="303" y="791" on="0"/>
        <pt x="297" y="775" on="0"/>
        <pt x="267" y="724" on="1"/>
        <pt x="248" y="694" on="0"/>
        <pt x="229" y="694" on="1"/>
        <pt x="223" y="694" on="0"/>
        <pt x="218" y="696" on="1"/>
        <pt x="205" y="701" on="0"/>
        <pt x="208" y="715" on="1"/>
        <pt x="211" y="736" on="0"/>
        <pt x="242" y="773" on="0"/>
        <pt x="250" y="804" on="0"/>
        <pt x="233" y="808" on="1"/>
        <pt x="225" y="808" on="0"/>
        <pt x="218" y="799" on="0"/>
        <pt x="211" y="787" on="0"/>
        <pt x="201" y="776" on="0"/>
        <pt x="182" y="776" on="0"/>
        <pt x="173" y="786" on="1"/>
        <pt x="165" y="796" on="0"/>
        <pt x="171" y="828" on="0"/>
        <pt x="208" y="859" on="0"/>
        <pt x="231" y="859" on="1"/>
        <pt x="232" y="859" on="0"/>
      </contour>
      <contour>
        <pt x="55" y="344" on="1"/>
        <pt x="41" y="353" on="0"/>
        <pt x="41" y="387" on="0"/>
        <pt x="52" y="401" on="1"/>
        <pt x="48" y="501" on="0"/>
        <pt x="48" y="612" on="1"/>
        <pt x="54" y="636" on="0"/>
        <pt x="79" y="658" on="0"/>
        <pt x="103" y="661" on="1"/>
        <pt x="235" y="655" on="0"/>
        <pt x="389" y="655" on="1"/>
        <pt x="427" y="647" on="0"/>
        <pt x="427" y="622" on="1"/>
        <pt x="427" y="580" on="0"/>
        <pt x="345" y="573" on="1"/>
        <pt x="323" y="572" on="0"/>
        <pt x="297" y="572" on="1"/>
        <pt x="232" y="572" on="1"/>
        <pt x="213" y="572" on="0"/>
        <pt x="127" y="580" on="1"/>
        <pt x="127" y="455" on="0"/>
        <pt x="131" y="408" on="1"/>
        <pt x="184" y="407" on="0"/>
        <pt x="335" y="407" on="1"/>
        <pt x="371" y="400" on="0"/>
        <pt x="371" y="349" on="0"/>
        <pt x="342" y="335" on="1"/>
        <pt x="339" y="333" on="0"/>
        <pt x="331" y="331" on="1"/>
        <pt x="158" y="334" on="1"/>
        <pt x="142" y="334" on="0"/>
        <pt x="132" y="332" on="1"/>
        <pt x="136" y="160" on="1"/>
        <pt x="136" y="102" on="0"/>
        <pt x="133" y="77" on="1"/>
        <pt x="365" y="80" on="1"/>
        <pt x="397" y="75" on="0"/>
        <pt x="397" y="53" on="1"/>
        <pt x="397" y="38" on="0"/>
        <pt x="370" y="8" on="0"/>
        <pt x="352" y="4" on="1"/>
        <pt x="96" y="0" on="1"/>
        <pt x="73" y="0" on="0"/>
        <pt x="55" y="17" on="0"/>
        <pt x="55" y="37" on="1"/>
        <pt x="59" y="65" on="0"/>
        <pt x="59" y="127" on="1"/>
        <pt x="59" y="197" on="1"/>
      </contour>
    </TTGlyph>
    <TTGlyph name="Emacron" xMin="41" yMin="0" xMax="427" yMax="799">
      <contour>
        <pt x="103" y="796" on="1"/>
        <pt x="220" y="793" on="1"/>
        <pt x="290" y="793" on="0"/>
        <pt x="359" y="798" on="0"/>
        <pt x="372" y="798" on="0"/>
        <pt x="392" y="784" on="0"/>
        <pt x="393" y="770" on="0"/>
        <pt x="393" y="756" on="1"/>
        <pt x="393" y="721" on="0"/>
        <pt x="354" y="717" on="1"/>
        <pt x="305" y="713" on="0"/>
        <pt x="176" y="713" on="0"/>
        <pt x="95" y="717" on="1"/>
        <pt x="62" y="718" on="0"/>
        <pt x="62" y="745" on="1"/>
        <pt x="62" y="796" on="0"/>
      </contour>
      <contour>
        <pt x="55" y="344" on="1"/>
        <pt x="41" y="353" on="0"/>
        <pt x="41" y="387" on="0"/>
        <pt x="52" y="401" on="1"/>
        <pt x="48" y="501" on="0"/>
        <pt x="48" y="612" on="1"/>
        <pt x="54" y="636" on="0"/>
        <pt x="79" y="658" on="0"/>
        <pt x="103" y="661" on="1"/>
        <pt x="235" y="655" on="0"/>
        <pt x="389" y="655" on="1"/>
        <pt x="427" y="647" on="0"/>
        <pt x="427" y="622" on="1"/>
        <pt x="427" y="580" on="0"/>
        <pt x="345" y="573" on="1"/>
        <pt x="323" y="572" on="0"/>
        <pt x="297" y="572" on="1"/>
        <pt x="232" y="572" on="1"/>
        <pt x="213" y="572" on="0"/>
        <pt x="127" y="580" on="1"/>
        <pt x="127" y="455" on="0"/>
        <pt x="131" y="408" on="1"/>
        <pt x="184" y="407" on="0"/>
        <pt x="335" y="407" on="1"/>
        <pt x="371" y="400" on="0"/>
        <pt x="371" y="349" on="0"/>
        <pt x="342" y="335" on="1"/>
        <pt x="339" y="333" on="0"/>
        <pt x="331" y="331" on="1"/>
        <pt x="158" y="334" on="1"/>
        <pt x="142" y="334" on="0"/>
        <pt x="132" y="332" on="1"/>
        <pt x="136" y="160" on="1"/>
        <pt x="136" y="102" on="0"/>
        <pt x="133" y="77" on="1"/>
        <pt x="365" y="80" on="1"/>
        <pt x="397" y="75" on="0"/>
        <pt x="397" y="53" on="1"/>
        <pt x="397" y="38" on="0"/>
        <pt x="370" y="8" on="0"/>
        <pt x="352" y="4" on="1"/>
        <pt x="96" y="0" on="1"/>
        <pt x="73" y="0" on="0"/>
        <pt x="55" y="17" on="0"/>
        <pt x="55" y="37" on="1"/>
        <pt x="59" y="65" on="0"/>
        <pt x="59" y="127" on="1"/>
        <pt x="59" y="197" on="1"/>
      </contour>
    </TTGlyph>
    <TTGlyph name="Eng" xMin="41" yMin="-155" xMax="499" yMax="662">
      <contour>
        <pt x="491" y="617" on="1"/>
        <pt x="499" y="4" on="1"/>
        <pt x="499" y="-53" on="0"/>
        <pt x="489" y="-72" on="1"/>
        <pt x="468" y="-113" on="0"/>
        <pt x="436" y="-134" on="1"/>
        <pt x="410" y="-154" on="0"/>
        <pt x="374" y="-154" on="1"/>
        <pt x="328" y="-154" on="0"/>
        <pt x="295" y="-114" on="1"/>
        <pt x="275" y="-89" on="0"/>
        <pt x="275" y="-50" on="0"/>
        <pt x="287" y="-40" on="1"/>
        <pt x="302" y="-31" on="0"/>
        <pt x="334" y="-31" on="0"/>
        <pt x="344" y="-53" on="1"/>
        <pt x="354" y="-77" on="0"/>
        <pt x="393" y="-77" on="0"/>
        <pt x="406" y="-62" on="1"/>
        <pt x="423" y="-43" on="0"/>
        <pt x="423" y="2" on="0"/>
        <pt x="414" y="17" on="1"/>
        <pt x="258" y="284" on="0"/>
        <pt x="133" y="479" on="1"/>
        <pt x="133" y="154" on="0"/>
        <pt x="115" y="28" on="1"/>
        <pt x="112" y="4" on="0"/>
        <pt x="78" y="4" on="1"/>
        <pt x="62" y="4" on="0"/>
        <pt x="41" y="20" on="0"/>
        <pt x="41" y="56" on="0"/>
        <pt x="56" y="416" on="0"/>
        <pt x="56" y="505" on="0"/>
        <pt x="56" y="517" on="1"/>
        <pt x="56" y="589" on="0"/>
        <pt x="78" y="607" on="0"/>
        <pt x="90" y="607" on="1"/>
        <pt x="145" y="607" on="0"/>
        <pt x="258" y="427" on="1"/>
        <pt x="282" y="389" on="0"/>
        <pt x="406" y="173" on="0"/>
        <pt x="417" y="149" on="1"/>
        <pt x="404" y="558" on="1"/>
        <pt x="404" y="568" on="0"/>
        <pt x="404" y="577" on="1"/>
        <pt x="404" y="644" on="0"/>
        <pt x="423" y="656" on="1"/>
        <pt x="433" y="662" on="0"/>
        <pt x="465" y="662" on="0"/>
        <pt x="491" y="635" on="0"/>
      </contour>
    </TTGlyph>
    <TTGlyph name="Eogonek" xMin="41" yMin="-162" xMax="456" yMax="661">
      <contour>
        <pt x="351" y="-160" on="1"/>
        <pt x="308" y="-155" on="0"/>
        <pt x="268" y="-91" on="0"/>
        <pt x="268" y="-27" on="0"/>
        <pt x="285" y="3" on="1"/>
        <pt x="96" y="0" on="1"/>
        <pt x="73" y="0" on="0"/>
        <pt x="55" y="17" on="0"/>
        <pt x="55" y="37" on="1"/>
        <pt x="59" y="65" on="0"/>
        <pt x="59" y="127" on="1"/>
        <pt x="59" y="197" on="1"/>
        <pt x="55" y="344" on="1"/>
        <pt x="41" y="353" on="0"/>
        <pt x="41" y="387" on="0"/>
        <pt x="52" y="401" on="1"/>
        <pt x="48" y="501" on="0"/>
        <pt x="48" y="612" on="1"/>
        <pt x="54" y="636" on="0"/>
        <pt x="79" y="658" on="0"/>
        <pt x="103" y="661" on="1"/>
        <pt x="235" y="655" on="0"/>
        <pt x="389" y="655" on="1"/>
        <pt x="427" y="647" on="0"/>
        <pt x="427" y="622" on="1"/>
        <pt x="427" y="580" on="0"/>
        <pt x="345" y="573" on="1"/>
        <pt x="323" y="572" on="0"/>
        <pt x="297" y="572" on="1"/>
        <pt x="232" y="572" on="1"/>
        <pt x="213" y="572" on="0"/>
        <pt x="127" y="580" on="1"/>
        <pt x="127" y="455" on="0"/>
        <pt x="131" y="408" on="1"/>
        <pt x="184" y="407" on="0"/>
        <pt x="335" y="407" on="1"/>
        <pt x="371" y="400" on="0"/>
        <pt x="371" y="349" on="0"/>
        <pt x="342" y="335" on="1"/>
        <pt x="339" y="333" on="0"/>
        <pt x="331" y="331" on="1"/>
        <pt x="158" y="334" on="1"/>
        <pt x="142" y="334" on="0"/>
        <pt x="132" y="332" on="1"/>
        <pt x="136" y="160" on="1"/>
        <pt x="136" y="102" on="0"/>
        <pt x="133" y="77" on="1"/>
        <pt x="365" y="80" on="1"/>
        <pt x="397" y="75" on="0"/>
        <pt x="397" y="53" on="1"/>
        <pt x="397" y="34" on="0"/>
        <pt x="379" y="18" on="1"/>
        <pt x="376" y="13" on="0"/>
        <pt x="361" y="1" on="1"/>
        <pt x="326" y="-27" on="0"/>
        <pt x="326" y="-61" on="1"/>
        <pt x="326" y="-82" on="0"/>
        <pt x="347" y="-107" on="0"/>
        <pt x="374" y="-107" on="0"/>
        <pt x="399" y="-89" on="0"/>
        <pt x="414" y="-74" on="0"/>
        <pt x="437" y="-71" on="0"/>
        <pt x="448" y="-86" on="1"/>
        <pt x="456" y="-93" on="0"/>
        <pt x="456" y="-105" on="0"/>
        <pt x="451" y="-114" on="1"/>
        <pt x="442" y="-132" on="0"/>
        <pt x="427" y="-141" on="1"/>
        <pt x="401" y="-161" on="0"/>
        <pt x="369" y="-161" on="1"/>
        <pt x="360" y="-161" on="0"/>
      </contour>
    </TTGlyph>
    <TTGlyph name="Eth" xMin="36" yMin="-55" xMax="540" yMax="662">
      <contour>
        <pt x="127" y="79" on="1"/>
        <pt x="114" y="179" on="0"/>
        <pt x="109" y="317" on="1"/>
        <pt x="72" y="317" on="1"/>
        <pt x="36" y="322" on="0"/>
        <pt x="36" y="355" on="1"/>
        <pt x="36" y="370" on="0"/>
        <pt x="56" y="391" on="0"/>
        <pt x="73" y="392" on="1"/>
        <pt x="109" y="392" on="1"/>
        <pt x="109" y="561" on="0"/>
        <pt x="113" y="625" on="1"/>
        <pt x="121" y="651" on="0"/>
        <pt x="149" y="660" on="1"/>
        <pt x="161" y="662" on="0"/>
        <pt x="177" y="662" on="0"/>
        <pt x="180" y="661" on="1"/>
        <pt x="323" y="621" on="0"/>
        <pt x="535" y="392" on="0"/>
        <pt x="540" y="232" on="1"/>
        <pt x="540" y="56" on="0"/>
        <pt x="394" y="11" on="1"/>
        <pt x="352" y="-2" on="0"/>
        <pt x="259" y="-2" on="0"/>
        <pt x="224" y="5" on="1"/>
        <pt x="228" y="-3" on="0"/>
        <pt x="228" y="-30" on="0"/>
        <pt x="195" y="-55" on="0"/>
        <pt x="150" y="-55" on="0"/>
        <pt x="144" y="-28" on="1"/>
        <pt x="131" y="32" on="1"/>
        <pt x="116" y="42" on="0"/>
        <pt x="116" y="70" on="0"/>
      </contour>
      <contour>
        <pt x="192" y="392" on="1"/>
        <pt x="265" y="392" on="1"/>
        <pt x="295" y="384" on="0"/>
        <pt x="295" y="323" on="0"/>
        <pt x="264" y="317" on="1"/>
        <pt x="193" y="317" on="1"/>
        <pt x="198" y="192" on="0"/>
        <pt x="211" y="83" on="1"/>
        <pt x="235" y="76" on="0"/>
        <pt x="349" y="76" on="0"/>
        <pt x="454" y="114" on="0"/>
        <pt x="457" y="151" on="1"/>
        <pt x="460" y="179" on="0"/>
        <pt x="460" y="194" on="1"/>
        <pt x="460" y="324" on="0"/>
        <pt x="321" y="524" on="0"/>
        <pt x="196" y="576" on="1"/>
        <pt x="192" y="527" on="0"/>
      </contour>
    </TTGlyph>
    <TTGlyph name="Etilde" xMin="41" yMin="0" xMax="427" yMax="830">
      <contour>
        <pt x="96" y="782" on="0"/>
        <pt x="155" y="830" on="0"/>
        <pt x="208" y="830" on="0"/>
        <pt x="240" y="814" on="0"/>
        <pt x="246" y="804" on="1"/>
        <pt x="262" y="778" on="0"/>
        <pt x="288" y="778" on="0"/>
        <pt x="319" y="826" on="0"/>
        <pt x="346" y="826" on="0"/>
        <pt x="366" y="802" on="0"/>
        <pt x="366" y="789" on="1"/>
        <pt x="366" y="753" on="0"/>
        <pt x="307" y="715" on="0"/>
        <pt x="252" y="715" on="0"/>
        <pt x="222" y="738" on="0"/>
        <pt x="200" y="761" on="0"/>
        <pt x="187" y="761" on="1"/>
        <pt x="181" y="761" on="0"/>
        <pt x="143" y="716" on="0"/>
        <pt x="117" y="716" on="0"/>
        <pt x="96" y="741" on="0"/>
      </contour>
      <contour>
        <pt x="55" y="344" on="1"/>
        <pt x="41" y="353" on="0"/>
        <pt x="41" y="387" on="0"/>
        <pt x="52" y="401" on="1"/>
        <pt x="48" y="501" on="0"/>
        <pt x="48" y="612" on="1"/>
        <pt x="54" y="636" on="0"/>
        <pt x="79" y="658" on="0"/>
        <pt x="103" y="661" on="1"/>
        <pt x="235" y="655" on="0"/>
        <pt x="389" y="655" on="1"/>
        <pt x="427" y="647" on="0"/>
        <pt x="427" y="622" on="1"/>
        <pt x="427" y="580" on="0"/>
        <pt x="345" y="573" on="1"/>
        <pt x="323" y="572" on="0"/>
        <pt x="297" y="572" on="1"/>
        <pt x="232" y="572" on="1"/>
        <pt x="213" y="572" on="0"/>
        <pt x="127" y="580" on="1"/>
        <pt x="127" y="455" on="0"/>
        <pt x="131" y="408" on="1"/>
        <pt x="184" y="407" on="0"/>
        <pt x="335" y="407" on="1"/>
        <pt x="371" y="400" on="0"/>
        <pt x="371" y="349" on="0"/>
        <pt x="342" y="335" on="1"/>
        <pt x="339" y="333" on="0"/>
        <pt x="331" y="331" on="1"/>
        <pt x="158" y="334" on="1"/>
        <pt x="142" y="334" on="0"/>
        <pt x="132" y="332" on="1"/>
        <pt x="136" y="160" on="1"/>
        <pt x="136" y="102" on="0"/>
        <pt x="133" y="77" on="1"/>
        <pt x="365" y="80" on="1"/>
        <pt x="397" y="75" on="0"/>
        <pt x="397" y="53" on="1"/>
        <pt x="397" y="38" on="0"/>
        <pt x="370" y="8" on="0"/>
        <pt x="352" y="4" on="1"/>
        <pt x="96" y="0" on="1"/>
        <pt x="73" y="0" on="0"/>
        <pt x="55" y="17" on="0"/>
        <pt x="55" y="37" on="1"/>
        <pt x="59" y="65" on="0"/>
        <pt x="59" y="127" on="1"/>
        <pt x="59" y="197" on="1"/>
      </contour>
    </TTGlyph>
    <TTGlyph name="Euro" xMin="19" yMin="9" xMax="486" yMax="664">
      <contour>
        <pt x="486" y="617" on="1"/>
        <pt x="486" y="613" on="0"/>
        <pt x="485" y="608" on="1"/>
        <pt x="478" y="577" on="0"/>
        <pt x="451" y="577" on="1"/>
        <pt x="446" y="577" on="0"/>
        <pt x="374" y="588" on="0"/>
        <pt x="344" y="588" on="1"/>
        <pt x="297" y="588" on="0"/>
        <pt x="199" y="515" on="0"/>
        <pt x="168" y="443" on="1"/>
        <pt x="331" y="444" on="1"/>
        <pt x="384" y="440" on="0"/>
        <pt x="384" y="405" on="1"/>
        <pt x="384" y="377" on="0"/>
        <pt x="355" y="372" on="1"/>
        <pt x="209" y="372" on="0"/>
        <pt x="145" y="376" on="1"/>
        <pt x="142" y="349" on="0"/>
        <pt x="142" y="346" on="1"/>
        <pt x="144" y="325" on="1"/>
        <pt x="352" y="325" on="1"/>
        <pt x="380" y="315" on="0"/>
        <pt x="380" y="259" on="0"/>
        <pt x="349" y="253" on="1"/>
        <pt x="157" y="253" on="1"/>
        <pt x="180" y="201" on="0"/>
        <pt x="259" y="117" on="0"/>
        <pt x="306" y="103" on="1"/>
        <pt x="327" y="98" on="0"/>
        <pt x="371" y="98" on="0"/>
        <pt x="421" y="107" on="0"/>
        <pt x="448" y="107" on="0"/>
        <pt x="453" y="104" on="1"/>
        <pt x="470" y="93" on="0"/>
        <pt x="470" y="72" on="1"/>
        <pt x="470" y="42" on="0"/>
        <pt x="430" y="23" on="1"/>
        <pt x="402" y="10" on="0"/>
        <pt x="342" y="10" on="0"/>
        <pt x="322" y="12" on="1"/>
        <pt x="277" y="17" on="0"/>
        <pt x="185" y="81" on="0"/>
        <pt x="158" y="114" on="1"/>
        <pt x="111" y="171" on="0"/>
        <pt x="85" y="253" on="1"/>
        <pt x="55" y="253" on="1"/>
        <pt x="38" y="256" on="0"/>
        <pt x="19" y="277" on="0"/>
        <pt x="19" y="302" on="0"/>
        <pt x="39" y="323" on="0"/>
        <pt x="56" y="325" on="1"/>
        <pt x="71" y="325" on="1"/>
        <pt x="71" y="349" on="0"/>
        <pt x="73" y="379" on="1"/>
        <pt x="53" y="379" on="1"/>
        <pt x="39" y="379" on="0"/>
        <pt x="19" y="400" on="0"/>
        <pt x="19" y="413" on="1"/>
        <pt x="19" y="444" on="0"/>
        <pt x="56" y="448" on="1"/>
        <pt x="85" y="448" on="1"/>
        <pt x="86" y="450" on="0"/>
        <pt x="99" y="483" on="0"/>
        <pt x="109" y="503" on="0"/>
        <pt x="130" y="543" on="0"/>
        <pt x="152" y="570" on="0"/>
        <pt x="191" y="614" on="0"/>
        <pt x="246" y="642" on="1"/>
        <pt x="291" y="664" on="0"/>
        <pt x="361" y="664" on="1"/>
        <pt x="486" y="664" on="0"/>
      </contour>
    </TTGlyph>
    <TTGlyph name="Euro.smcp" xMin="32" yMin="10" xMax="450" yMax="528">
      <contour>
        <pt x="361" y="320" on="1"/>
        <pt x="361" y="290" on="0"/>
        <pt x="331" y="287" on="1"/>
        <pt x="238" y="287" on="0"/>
        <pt x="152" y="289" on="1"/>
        <pt x="150" y="271" on="1"/>
        <pt x="150" y="267" on="0"/>
        <pt x="151" y="265" on="1"/>
        <pt x="330" y="265" on="1"/>
        <pt x="358" y="255" on="0"/>
        <pt x="358" y="199" on="0"/>
        <pt x="326" y="196" on="1"/>
        <pt x="170" y="196" on="1"/>
        <pt x="206" y="129" on="0"/>
        <pt x="255" y="96" on="1"/>
        <pt x="281" y="79" on="0"/>
        <pt x="321" y="79" on="0"/>
        <pt x="377" y="100" on="0"/>
        <pt x="403" y="100" on="0"/>
        <pt x="425" y="79" on="0"/>
        <pt x="425" y="53" on="0"/>
        <pt x="416" y="44" on="1"/>
        <pt x="404" y="29" on="0"/>
        <pt x="365" y="18" on="1"/>
        <pt x="315" y="10" on="0"/>
        <pt x="311" y="10" on="1"/>
        <pt x="303" y="10" on="1"/>
        <pt x="264" y="10" on="0"/>
        <pt x="191" y="48" on="0"/>
        <pt x="165" y="78" on="1"/>
        <pt x="115" y="136" on="0"/>
        <pt x="92" y="196" on="1"/>
        <pt x="68" y="196" on="1"/>
        <pt x="46" y="197" on="0"/>
        <pt x="36" y="215" on="1"/>
        <pt x="32" y="222" on="0"/>
        <pt x="32" y="245" on="0"/>
        <pt x="53" y="264" on="0"/>
        <pt x="71" y="265" on="1"/>
        <pt x="71" y="265" on="0"/>
        <pt x="78" y="265" on="1"/>
        <pt x="78" y="287" on="0"/>
        <pt x="79" y="293" on="1"/>
        <pt x="68" y="293" on="1"/>
        <pt x="54" y="293" on="0"/>
        <pt x="32" y="313" on="0"/>
        <pt x="32" y="326" on="1"/>
        <pt x="32" y="356" on="0"/>
        <pt x="70" y="361" on="1"/>
        <pt x="94" y="361" on="1"/>
        <pt x="130" y="432" on="0"/>
        <pt x="192" y="496" on="0"/>
        <pt x="277" y="528" on="0"/>
        <pt x="332" y="528" on="1"/>
        <pt x="450" y="528" on="0"/>
        <pt x="450" y="474" on="1"/>
        <pt x="450" y="446" on="0"/>
        <pt x="415" y="446" on="1"/>
        <pt x="401" y="446" on="0"/>
        <pt x="340" y="467" on="0"/>
        <pt x="319" y="467" on="1"/>
        <pt x="272" y="467" on="0"/>
        <pt x="224" y="419" on="1"/>
        <pt x="198" y="393" on="0"/>
        <pt x="180" y="356" on="1"/>
        <pt x="198" y="355" on="1"/>
        <pt x="283" y="355" on="1"/>
        <pt x="287" y="355" on="0"/>
        <pt x="290" y="355" on="1"/>
        <pt x="342" y="355" on="0"/>
        <pt x="361" y="334" on="0"/>
      </contour>
    </TTGlyph>
    <TTGlyph name="F" xMin="-2" yMin="-4" xMax="395" yMax="659">
      <contour>
        <pt x="210" y="648" on="1"/>
        <pt x="321" y="650" on="1"/>
        <pt x="395" y="650" on="0"/>
        <pt x="395" y="611" on="1"/>
        <pt x="395" y="597" on="0"/>
        <pt x="387" y="586" on="0"/>
        <pt x="383" y="580" on="0"/>
        <pt x="377" y="578" on="1"/>
        <pt x="365" y="574" on="0"/>
        <pt x="349" y="572" on="0"/>
        <pt x="346" y="572" on="1"/>
        <pt x="335" y="570" on="0"/>
        <pt x="283" y="568" on="0"/>
        <pt x="184" y="568" on="0"/>
        <pt x="112" y="572" on="1"/>
        <pt x="112" y="388" on="1"/>
        <pt x="316" y="388" on="1"/>
        <pt x="327" y="388" on="0"/>
        <pt x="346" y="368" on="0"/>
        <pt x="346" y="356" on="1"/>
        <pt x="346" y="310" on="0"/>
        <pt x="307" y="310" on="1"/>
        <pt x="112" y="310" on="1"/>
        <pt x="116" y="48" on="1"/>
        <pt x="116" y="-3" on="0"/>
        <pt x="47" y="-3" on="0"/>
        <pt x="41" y="43" on="1"/>
        <pt x="38" y="58" on="0"/>
        <pt x="37" y="537" on="0"/>
        <pt x="35" y="573" on="1"/>
        <pt x="-2" y="569" on="0"/>
        <pt x="-2" y="615" on="1"/>
        <pt x="-2" y="627" on="0"/>
        <pt x="18" y="656" on="0"/>
        <pt x="33" y="658" on="0"/>
        <pt x="56" y="658" on="0"/>
        <pt x="101" y="654" on="1"/>
        <pt x="163" y="648" on="0"/>
      </contour>
    </TTGlyph>
    <TTGlyph name="G" xMin="44" yMin="-1" xMax="474" yMax="664">
      <contour>
        <pt x="331" y="664" on="1"/>
        <pt x="379" y="664" on="0"/>
        <pt x="474" y="616" on="0"/>
        <pt x="474" y="586" on="1"/>
        <pt x="474" y="540" on="0"/>
        <pt x="436" y="540" on="1"/>
        <pt x="422" y="540" on="0"/>
        <pt x="352" y="576" on="0"/>
        <pt x="328" y="576" on="1"/>
        <pt x="242" y="576" on="0"/>
        <pt x="127" y="422" on="0"/>
        <pt x="127" y="303" on="1"/>
        <pt x="127" y="214" on="0"/>
        <pt x="205" y="80" on="0"/>
        <pt x="312" y="80" on="0"/>
        <pt x="373" y="151" on="0"/>
        <pt x="373" y="196" on="1"/>
        <pt x="373" y="221" on="0"/>
        <pt x="366" y="254" on="0"/>
        <pt x="338" y="281" on="0"/>
        <pt x="292" y="281" on="0"/>
        <pt x="251" y="301" on="0"/>
        <pt x="251" y="335" on="0"/>
        <pt x="271" y="365" on="0"/>
        <pt x="288" y="368" on="1"/>
        <pt x="356" y="368" on="0"/>
        <pt x="403" y="340" on="0"/>
        <pt x="427" y="322" on="0"/>
        <pt x="443" y="280" on="0"/>
        <pt x="452" y="252" on="0"/>
        <pt x="454" y="221" on="1"/>
        <pt x="456" y="169" on="0"/>
        <pt x="456" y="30" on="0"/>
        <pt x="446" y="14" on="1"/>
        <pt x="437" y="1" on="0"/>
        <pt x="395" y="0" on="0"/>
        <pt x="379" y="18" on="0"/>
        <pt x="377" y="49" on="1"/>
        <pt x="353" y="28" on="0"/>
        <pt x="280" y="-1" on="0"/>
        <pt x="252" y="-1" on="1"/>
        <pt x="164" y="-1" on="0"/>
        <pt x="44" y="186" on="0"/>
        <pt x="44" y="318" on="1"/>
        <pt x="44" y="388" on="0"/>
        <pt x="90" y="523" on="0"/>
        <pt x="129" y="569" on="1"/>
        <pt x="211" y="664" on="0"/>
      </contour>
    </TTGlyph>
    <TTGlyph name="Gbreve" xMin="44" yMin="-1" xMax="474" yMax="841">
      <contour>
        <pt x="156" y="818" on="0"/>
        <pt x="177" y="841" on="0"/>
        <pt x="213" y="841" on="0"/>
        <pt x="234" y="800" on="0"/>
        <pt x="244" y="783" on="0"/>
        <pt x="268" y="766" on="0"/>
        <pt x="307" y="766" on="0"/>
        <pt x="331" y="788" on="0"/>
        <pt x="360" y="837" on="0"/>
        <pt x="392" y="837" on="0"/>
        <pt x="410" y="817" on="0"/>
        <pt x="410" y="801" on="1"/>
        <pt x="410" y="759" on="0"/>
        <pt x="333" y="701" on="0"/>
        <pt x="235" y="701" on="0"/>
        <pt x="156" y="757" on="0"/>
        <pt x="156" y="802" on="1"/>
      </contour>
      <contour>
        <pt x="331" y="664" on="1"/>
        <pt x="379" y="664" on="0"/>
        <pt x="474" y="616" on="0"/>
        <pt x="474" y="586" on="1"/>
        <pt x="474" y="540" on="0"/>
        <pt x="436" y="540" on="1"/>
        <pt x="422" y="540" on="0"/>
        <pt x="352" y="576" on="0"/>
        <pt x="328" y="576" on="1"/>
        <pt x="242" y="576" on="0"/>
        <pt x="127" y="422" on="0"/>
        <pt x="127" y="303" on="1"/>
        <pt x="127" y="214" on="0"/>
        <pt x="205" y="80" on="0"/>
        <pt x="312" y="80" on="0"/>
        <pt x="373" y="151" on="0"/>
        <pt x="373" y="196" on="1"/>
        <pt x="373" y="221" on="0"/>
        <pt x="366" y="254" on="0"/>
        <pt x="338" y="281" on="0"/>
        <pt x="292" y="281" on="0"/>
        <pt x="251" y="301" on="0"/>
        <pt x="251" y="335" on="0"/>
        <pt x="271" y="365" on="0"/>
        <pt x="288" y="368" on="1"/>
        <pt x="356" y="368" on="0"/>
        <pt x="403" y="340" on="0"/>
        <pt x="427" y="322" on="0"/>
        <pt x="443" y="280" on="0"/>
        <pt x="452" y="252" on="0"/>
        <pt x="454" y="221" on="1"/>
        <pt x="456" y="169" on="0"/>
        <pt x="456" y="30" on="0"/>
        <pt x="446" y="14" on="1"/>
        <pt x="437" y="1" on="0"/>
        <pt x="395" y="0" on="0"/>
        <pt x="379" y="18" on="0"/>
        <pt x="377" y="49" on="1"/>
        <pt x="353" y="28" on="0"/>
        <pt x="280" y="-1" on="0"/>
        <pt x="252" y="-1" on="1"/>
        <pt x="164" y="-1" on="0"/>
        <pt x="44" y="186" on="0"/>
        <pt x="44" y="318" on="1"/>
        <pt x="44" y="388" on="0"/>
        <pt x="90" y="523" on="0"/>
        <pt x="129" y="569" on="1"/>
        <pt x="211" y="664" on="0"/>
      </contour>
    </TTGlyph>
    <TTGlyph name="Gcircumflex" xMin="44" yMin="-1" xMax="474" yMax="856">
      <contour>
        <pt x="163" y="776" on="0"/>
        <pt x="265" y="856" on="0"/>
        <pt x="310" y="856" on="0"/>
        <pt x="408" y="781" on="0"/>
        <pt x="408" y="758" on="1"/>
        <pt x="408" y="744" on="0"/>
        <pt x="384" y="724" on="0"/>
        <pt x="368" y="724" on="0"/>
        <pt x="296" y="788" on="0"/>
        <pt x="277" y="788" on="0"/>
        <pt x="210" y="722" on="0"/>
        <pt x="182" y="722" on="0"/>
        <pt x="163" y="745" on="0"/>
      </contour>
      <contour>
        <pt x="331" y="664" on="1"/>
        <pt x="379" y="664" on="0"/>
        <pt x="474" y="616" on="0"/>
        <pt x="474" y="586" on="1"/>
        <pt x="474" y="540" on="0"/>
        <pt x="436" y="540" on="1"/>
        <pt x="422" y="540" on="0"/>
        <pt x="352" y="576" on="0"/>
        <pt x="328" y="576" on="1"/>
        <pt x="242" y="576" on="0"/>
        <pt x="127" y="422" on="0"/>
        <pt x="127" y="303" on="1"/>
        <pt x="127" y="214" on="0"/>
        <pt x="205" y="80" on="0"/>
        <pt x="312" y="80" on="0"/>
        <pt x="373" y="151" on="0"/>
        <pt x="373" y="196" on="1"/>
        <pt x="373" y="221" on="0"/>
        <pt x="366" y="254" on="0"/>
        <pt x="338" y="281" on="0"/>
        <pt x="292" y="281" on="0"/>
        <pt x="251" y="301" on="0"/>
        <pt x="251" y="335" on="0"/>
        <pt x="271" y="365" on="0"/>
        <pt x="288" y="368" on="1"/>
        <pt x="356" y="368" on="0"/>
        <pt x="403" y="340" on="0"/>
        <pt x="427" y="322" on="0"/>
        <pt x="443" y="280" on="0"/>
        <pt x="452" y="252" on="0"/>
        <pt x="454" y="221" on="1"/>
        <pt x="456" y="169" on="0"/>
        <pt x="456" y="30" on="0"/>
        <pt x="446" y="14" on="1"/>
        <pt x="437" y="1" on="0"/>
        <pt x="395" y="0" on="0"/>
        <pt x="379" y="18" on="0"/>
        <pt x="377" y="49" on="1"/>
        <pt x="353" y="28" on="0"/>
        <pt x="280" y="-1" on="0"/>
        <pt x="252" y="-1" on="1"/>
        <pt x="164" y="-1" on="0"/>
        <pt x="44" y="186" on="0"/>
        <pt x="44" y="318" on="1"/>
        <pt x="44" y="388" on="0"/>
        <pt x="90" y="523" on="0"/>
        <pt x="129" y="569" on="1"/>
        <pt x="211" y="664" on="0"/>
      </contour>
    </TTGlyph>
    <TTGlyph name="Gcommaaccent" xMin="44" yMin="-209" xMax="474" yMax="664">
      <contour>
        <pt x="331" y="664" on="1"/>
        <pt x="379" y="664" on="0"/>
        <pt x="474" y="616" on="0"/>
        <pt x="474" y="586" on="1"/>
        <pt x="474" y="540" on="0"/>
        <pt x="436" y="540" on="1"/>
        <pt x="422" y="540" on="0"/>
        <pt x="352" y="576" on="0"/>
        <pt x="328" y="576" on="1"/>
        <pt x="242" y="576" on="0"/>
        <pt x="127" y="422" on="0"/>
        <pt x="127" y="303" on="1"/>
        <pt x="127" y="214" on="0"/>
        <pt x="205" y="80" on="0"/>
        <pt x="312" y="80" on="0"/>
        <pt x="373" y="151" on="0"/>
        <pt x="373" y="196" on="1"/>
        <pt x="373" y="221" on="0"/>
        <pt x="366" y="254" on="0"/>
        <pt x="338" y="281" on="0"/>
        <pt x="292" y="281" on="0"/>
        <pt x="251" y="301" on="0"/>
        <pt x="251" y="335" on="0"/>
        <pt x="271" y="365" on="0"/>
        <pt x="288" y="368" on="1"/>
        <pt x="356" y="368" on="0"/>
        <pt x="403" y="340" on="0"/>
        <pt x="427" y="322" on="0"/>
        <pt x="443" y="280" on="0"/>
        <pt x="452" y="252" on="0"/>
        <pt x="454" y="221" on="1"/>
        <pt x="456" y="169" on="0"/>
        <pt x="456" y="30" on="0"/>
        <pt x="446" y="14" on="1"/>
        <pt x="437" y="1" on="0"/>
        <pt x="395" y="0" on="0"/>
        <pt x="379" y="18" on="0"/>
        <pt x="377" y="49" on="1"/>
        <pt x="353" y="28" on="0"/>
        <pt x="280" y="-1" on="0"/>
        <pt x="252" y="-1" on="1"/>
        <pt x="164" y="-1" on="0"/>
        <pt x="44" y="186" on="0"/>
        <pt x="44" y="318" on="1"/>
        <pt x="44" y="388" on="0"/>
        <pt x="90" y="523" on="0"/>
        <pt x="129" y="569" on="1"/>
        <pt x="211" y="664" on="0"/>
      </contour>
      <contour>
        <pt x="284" y="-40" on="0"/>
        <pt x="320" y="-40" on="0"/>
        <pt x="339" y="-65" on="0"/>
        <pt x="339" y="-83" on="0"/>
        <pt x="336" y="-91" on="1"/>
        <pt x="323" y="-133" on="0"/>
        <pt x="247" y="-209" on="0"/>
        <pt x="210" y="-209" on="0"/>
        <pt x="190" y="-189" on="0"/>
        <pt x="190" y="-160" on="0"/>
        <pt x="215" y="-131" on="0"/>
        <pt x="260" y="-84" on="0"/>
      </contour>
    </TTGlyph>
    <TTGlyph name="Gdotaccent" xMin="44" yMin="-1" xMax="474" yMax="833">
      <contour>
        <pt x="285" y="832" on="1"/>
        <pt x="303" y="832" on="0"/>
        <pt x="335" y="798" on="0"/>
        <pt x="335" y="761" on="0"/>
        <pt x="300" y="723" on="0"/>
        <pt x="262" y="723" on="0"/>
        <pt x="231" y="755" on="0"/>
        <pt x="231" y="780" on="1"/>
        <pt x="231" y="828" on="0"/>
        <pt x="283" y="832" on="1"/>
        <pt x="284" y="832" on="0"/>
      </contour>
      <contour>
        <pt x="331" y="664" on="1"/>
        <pt x="379" y="664" on="0"/>
        <pt x="474" y="616" on="0"/>
        <pt x="474" y="586" on="1"/>
        <pt x="474" y="540" on="0"/>
        <pt x="436" y="540" on="1"/>
        <pt x="422" y="540" on="0"/>
        <pt x="352" y="576" on="0"/>
        <pt x="328" y="576" on="1"/>
        <pt x="242" y="576" on="0"/>
        <pt x="127" y="422" on="0"/>
        <pt x="127" y="303" on="1"/>
        <pt x="127" y="214" on="0"/>
        <pt x="205" y="80" on="0"/>
        <pt x="312" y="80" on="0"/>
        <pt x="373" y="151" on="0"/>
        <pt x="373" y="196" on="1"/>
        <pt x="373" y="221" on="0"/>
        <pt x="366" y="254" on="0"/>
        <pt x="338" y="281" on="0"/>
        <pt x="292" y="281" on="0"/>
        <pt x="251" y="301" on="0"/>
        <pt x="251" y="335" on="0"/>
        <pt x="271" y="365" on="0"/>
        <pt x="288" y="368" on="1"/>
        <pt x="356" y="368" on="0"/>
        <pt x="403" y="340" on="0"/>
        <pt x="427" y="322" on="0"/>
        <pt x="443" y="280" on="0"/>
        <pt x="452" y="252" on="0"/>
        <pt x="454" y="221" on="1"/>
        <pt x="456" y="169" on="0"/>
        <pt x="456" y="30" on="0"/>
        <pt x="446" y="14" on="1"/>
        <pt x="437" y="1" on="0"/>
        <pt x="395" y="0" on="0"/>
        <pt x="379" y="18" on="0"/>
        <pt x="377" y="49" on="1"/>
        <pt x="353" y="28" on="0"/>
        <pt x="280" y="-1" on="0"/>
        <pt x="252" y="-1" on="1"/>
        <pt x="164" y="-1" on="0"/>
        <pt x="44" y="186" on="0"/>
        <pt x="44" y="318" on="1"/>
        <pt x="44" y="388" on="0"/>
        <pt x="90" y="523" on="0"/>
        <pt x="129" y="569" on="1"/>
        <pt x="211" y="664" on="0"/>
      </contour>
    </TTGlyph>
    <TTGlyph name="H" xMin="55" yMin="-4" xMax="433" yMax="662">
      <contour>
        <pt x="132" y="383" on="1"/>
        <pt x="210" y="370" on="0"/>
        <pt x="340" y="370" on="0"/>
        <pt x="358" y="371" on="1"/>
        <pt x="356" y="447" on="0"/>
        <pt x="356" y="587" on="0"/>
        <pt x="356" y="637" on="0"/>
        <pt x="360" y="650" on="0"/>
        <pt x="382" y="662" on="0"/>
        <pt x="403" y="662" on="1"/>
        <pt x="433" y="662" on="0"/>
        <pt x="433" y="626" on="1"/>
        <pt x="433" y="272" on="1"/>
        <pt x="433" y="162" on="0"/>
        <pt x="428" y="30" on="1"/>
        <pt x="427" y="1" on="0"/>
        <pt x="379" y="1" on="1"/>
        <pt x="355" y="1" on="0"/>
        <pt x="355" y="30" on="1"/>
        <pt x="359" y="295" on="1"/>
        <pt x="327" y="293" on="0"/>
        <pt x="216" y="293" on="0"/>
        <pt x="132" y="305" on="1"/>
        <pt x="132" y="173" on="0"/>
        <pt x="144" y="29" on="1"/>
        <pt x="145" y="13" on="0"/>
        <pt x="115" y="-4" on="0"/>
        <pt x="70" y="-4" on="0"/>
        <pt x="68" y="19" on="1"/>
        <pt x="55" y="161" on="0"/>
        <pt x="55" y="299" on="1"/>
        <pt x="61" y="611" on="1"/>
        <pt x="61" y="631" on="0"/>
        <pt x="91" y="650" on="0"/>
        <pt x="108" y="650" on="1"/>
        <pt x="136" y="650" on="0"/>
        <pt x="136" y="623" on="1"/>
      </contour>
    </TTGlyph>
    <TTGlyph name="Hbar" xMin="16" yMin="-4" xMax="483" yMax="662">
      <contour>
        <pt x="16" y="500" on="1"/>
        <pt x="16" y="552" on="0"/>
        <pt x="55" y="552" on="1"/>
        <pt x="59" y="552" on="0"/>
        <pt x="63" y="551" on="1"/>
        <pt x="67" y="551" on="1"/>
        <pt x="67" y="611" on="1"/>
        <pt x="67" y="631" on="0"/>
        <pt x="97" y="650" on="0"/>
        <pt x="114" y="650" on="1"/>
        <pt x="142" y="650" on="0"/>
        <pt x="142" y="623" on="1"/>
        <pt x="141" y="544" on="1"/>
        <pt x="250" y="536" on="0"/>
        <pt x="362" y="536" on="1"/>
        <pt x="362" y="625" on="1"/>
        <pt x="362" y="637" on="0"/>
        <pt x="366" y="650" on="0"/>
        <pt x="388" y="662" on="0"/>
        <pt x="409" y="662" on="1"/>
        <pt x="439" y="662" on="0"/>
        <pt x="439" y="629" on="1"/>
        <pt x="439" y="539" on="1"/>
        <pt x="446" y="539" on="1"/>
        <pt x="460" y="540" on="0"/>
        <pt x="481" y="525" on="0"/>
        <pt x="482" y="510" on="0"/>
        <pt x="482" y="507" on="1"/>
        <pt x="482" y="459" on="0"/>
        <pt x="443" y="458" on="1"/>
        <pt x="439" y="458" on="1"/>
        <pt x="439" y="272" on="1"/>
        <pt x="439" y="162" on="0"/>
        <pt x="434" y="30" on="1"/>
        <pt x="433" y="1" on="0"/>
        <pt x="385" y="1" on="1"/>
        <pt x="361" y="1" on="0"/>
        <pt x="361" y="30" on="1"/>
        <pt x="365" y="295" on="1"/>
        <pt x="333" y="293" on="0"/>
        <pt x="222" y="293" on="0"/>
        <pt x="138" y="305" on="1"/>
        <pt x="138" y="173" on="0"/>
        <pt x="150" y="29" on="1"/>
        <pt x="151" y="13" on="0"/>
        <pt x="121" y="-4" on="0"/>
        <pt x="76" y="-4" on="0"/>
        <pt x="74" y="19" on="1"/>
        <pt x="61" y="161" on="0"/>
        <pt x="61" y="333" on="0"/>
        <pt x="62" y="367" on="1"/>
        <pt x="65" y="468" on="1"/>
        <pt x="51" y="469" on="1"/>
        <pt x="16" y="472" on="0"/>
      </contour>
      <contour>
        <pt x="364" y="371" on="1"/>
        <pt x="362" y="397" on="0"/>
        <pt x="362" y="456" on="1"/>
        <pt x="247" y="456" on="0"/>
        <pt x="139" y="462" on="1"/>
        <pt x="138" y="383" on="1"/>
        <pt x="216" y="370" on="0"/>
        <pt x="346" y="370" on="0"/>
      </contour>
    </TTGlyph>
    <TTGlyph name="Hcircumflex" xMin="55" yMin="-4" xMax="433" yMax="852">
      <contour>
        <pt x="114" y="772" on="0"/>
        <pt x="216" y="852" on="0"/>
        <pt x="261" y="852" on="0"/>
        <pt x="359" y="777" on="0"/>
        <pt x="359" y="754" on="1"/>
        <pt x="359" y="740" on="0"/>
        <pt x="335" y="720" on="0"/>
        <pt x="320" y="720" on="0"/>
        <pt x="246" y="784" on="0"/>
        <pt x="228" y="784" on="0"/>
        <pt x="161" y="718" on="0"/>
        <pt x="133" y="718" on="0"/>
        <pt x="114" y="741" on="0"/>
      </contour>
      <contour>
        <pt x="132" y="383" on="1"/>
        <pt x="210" y="370" on="0"/>
        <pt x="340" y="370" on="0"/>
        <pt x="358" y="371" on="1"/>
        <pt x="356" y="447" on="0"/>
        <pt x="356" y="587" on="0"/>
        <pt x="356" y="637" on="0"/>
        <pt x="360" y="650" on="0"/>
        <pt x="382" y="662" on="0"/>
        <pt x="403" y="662" on="1"/>
        <pt x="433" y="662" on="0"/>
        <pt x="433" y="626" on="1"/>
        <pt x="433" y="272" on="1"/>
        <pt x="433" y="162" on="0"/>
        <pt x="428" y="30" on="1"/>
        <pt x="427" y="1" on="0"/>
        <pt x="379" y="1" on="1"/>
        <pt x="355" y="1" on="0"/>
        <pt x="355" y="30" on="1"/>
        <pt x="359" y="295" on="1"/>
        <pt x="327" y="293" on="0"/>
        <pt x="216" y="293" on="0"/>
        <pt x="132" y="305" on="1"/>
        <pt x="132" y="173" on="0"/>
        <pt x="144" y="29" on="1"/>
        <pt x="145" y="13" on="0"/>
        <pt x="115" y="-4" on="0"/>
        <pt x="70" y="-4" on="0"/>
        <pt x="68" y="19" on="1"/>
        <pt x="55" y="161" on="0"/>
        <pt x="55" y="299" on="1"/>
        <pt x="61" y="611" on="1"/>
        <pt x="61" y="631" on="0"/>
        <pt x="91" y="650" on="0"/>
        <pt x="108" y="650" on="1"/>
        <pt x="136" y="650" on="0"/>
        <pt x="136" y="623" on="1"/>
      </contour>
    </TTGlyph>
    <TTGlyph name="I" xMin="76" yMin="-1" xMax="164" yMax="646">
      <contour>
        <pt x="115" y="646" on="0"/>
        <pt x="155" y="646" on="0"/>
        <pt x="160" y="623" on="1"/>
        <pt x="161" y="507" on="0"/>
        <pt x="164" y="276" on="1"/>
        <pt x="164" y="135" on="0"/>
        <pt x="156" y="37" on="1"/>
        <pt x="154" y="22" on="0"/>
        <pt x="121" y="-1" on="0"/>
        <pt x="104" y="-1" on="1"/>
        <pt x="76" y="-1" on="0"/>
        <pt x="76" y="28" on="1"/>
        <pt x="86" y="128" on="0"/>
        <pt x="86" y="276" on="1"/>
        <pt x="80" y="612" on="1"/>
        <pt x="84" y="626" on="0"/>
      </contour>
    </TTGlyph>
    <TTGlyph name="IJ" xMin="76" yMin="-5" xMax="576" yMax="668">
      <contour>
        <pt x="474" y="646" on="0"/>
        <pt x="506" y="668" on="0"/>
        <pt x="537" y="668" on="0"/>
        <pt x="554" y="654" on="0"/>
        <pt x="555" y="644" on="1"/>
        <pt x="576" y="374" on="0"/>
        <pt x="576" y="231" on="0"/>
        <pt x="572" y="159" on="0"/>
        <pt x="556" y="76" on="0"/>
        <pt x="542" y="52" on="1"/>
        <pt x="508" y="-4" on="0"/>
        <pt x="362" y="-4" on="0"/>
        <pt x="270" y="93" on="0"/>
        <pt x="270" y="184" on="1"/>
        <pt x="270" y="199" on="0"/>
        <pt x="301" y="224" on="0"/>
        <pt x="319" y="224" on="1"/>
        <pt x="341" y="224" on="0"/>
        <pt x="346" y="183" on="1"/>
        <pt x="359" y="67" on="0"/>
        <pt x="433" y="67" on="1"/>
        <pt x="481" y="67" on="0"/>
        <pt x="493" y="132" on="1"/>
        <pt x="503" y="187" on="0"/>
        <pt x="503" y="315" on="0"/>
        <pt x="474" y="625" on="0"/>
      </contour>
      <contour>
        <pt x="115" y="646" on="0"/>
        <pt x="155" y="646" on="0"/>
        <pt x="160" y="623" on="1"/>
        <pt x="161" y="507" on="0"/>
        <pt x="164" y="276" on="1"/>
        <pt x="164" y="135" on="0"/>
        <pt x="156" y="37" on="1"/>
        <pt x="154" y="22" on="0"/>
        <pt x="121" y="-1" on="0"/>
        <pt x="104" y="-1" on="1"/>
        <pt x="76" y="-1" on="0"/>
        <pt x="76" y="28" on="1"/>
        <pt x="86" y="128" on="0"/>
        <pt x="86" y="276" on="1"/>
        <pt x="80" y="612" on="1"/>
        <pt x="84" y="626" on="0"/>
      </contour>
    </TTGlyph>
    <TTGlyph name="Iacute" xMin="40" yMin="-1" xMax="193" yMax="877">
      <contour>
        <pt x="125" y="860" on="1"/>
        <pt x="131" y="877" on="0"/>
        <pt x="170" y="877" on="0"/>
        <pt x="193" y="853" on="0"/>
        <pt x="193" y="838" on="0"/>
        <pt x="191" y="833" on="1"/>
        <pt x="175" y="788" on="0"/>
        <pt x="100" y="708" on="0"/>
        <pt x="60" y="708" on="0"/>
        <pt x="40" y="728" on="0"/>
        <pt x="40" y="755" on="0"/>
        <pt x="56" y="768" on="1"/>
        <pt x="109" y="811" on="0"/>
      </contour>
      <contour>
        <pt x="115" y="646" on="0"/>
        <pt x="155" y="646" on="0"/>
        <pt x="160" y="623" on="1"/>
        <pt x="161" y="507" on="0"/>
        <pt x="164" y="276" on="1"/>
        <pt x="164" y="135" on="0"/>
        <pt x="156" y="37" on="1"/>
        <pt x="154" y="22" on="0"/>
        <pt x="121" y="-1" on="0"/>
        <pt x="104" y="-1" on="1"/>
        <pt x="76" y="-1" on="0"/>
        <pt x="76" y="28" on="1"/>
        <pt x="86" y="128" on="0"/>
        <pt x="86" y="276" on="1"/>
        <pt x="80" y="612" on="1"/>
        <pt x="84" y="626" on="0"/>
      </contour>
    </TTGlyph>
    <TTGlyph name="Ibreve" xMin="-9" yMin="-1" xMax="245" yMax="837">
      <contour>
        <pt x="-9" y="814" on="0"/>
        <pt x="12" y="837" on="0"/>
        <pt x="48" y="837" on="0"/>
        <pt x="69" y="796" on="0"/>
        <pt x="79" y="779" on="0"/>
        <pt x="103" y="762" on="0"/>
        <pt x="142" y="762" on="0"/>
        <pt x="166" y="784" on="0"/>
        <pt x="195" y="833" on="0"/>
        <pt x="227" y="833" on="0"/>
        <pt x="245" y="813" on="0"/>
        <pt x="245" y="797" on="1"/>
        <pt x="245" y="755" on="0"/>
        <pt x="168" y="697" on="0"/>
        <pt x="70" y="697" on="0"/>
        <pt x="-9" y="753" on="0"/>
        <pt x="-9" y="798" on="1"/>
      </contour>
      <contour>
        <pt x="115" y="646" on="0"/>
        <pt x="155" y="646" on="0"/>
        <pt x="160" y="623" on="1"/>
        <pt x="161" y="507" on="0"/>
        <pt x="164" y="276" on="1"/>
        <pt x="164" y="135" on="0"/>
        <pt x="156" y="37" on="1"/>
        <pt x="154" y="22" on="0"/>
        <pt x="121" y="-1" on="0"/>
        <pt x="104" y="-1" on="1"/>
        <pt x="76" y="-1" on="0"/>
        <pt x="76" y="28" on="1"/>
        <pt x="86" y="128" on="0"/>
        <pt x="86" y="276" on="1"/>
        <pt x="80" y="612" on="1"/>
        <pt x="84" y="626" on="0"/>
      </contour>
    </TTGlyph>
    <TTGlyph name="Icaron" xMin="-4" yMin="-1" xMax="242" yMax="855">
      <contour>
        <pt x="207" y="850" on="1"/>
        <pt x="223" y="850" on="0"/>
        <pt x="242" y="826" on="0"/>
        <pt x="241" y="795" on="0"/>
        <pt x="137" y="719" on="0"/>
        <pt x="116" y="719" on="1"/>
        <pt x="93" y="719" on="0"/>
        <pt x="-3" y="798" on="0"/>
        <pt x="-3" y="821" on="1"/>
        <pt x="-3" y="835" on="0"/>
        <pt x="22" y="855" on="0"/>
        <pt x="42" y="854" on="0"/>
        <pt x="103" y="808" on="0"/>
        <pt x="120" y="787" on="1"/>
        <pt x="183" y="850" on="0"/>
      </contour>
      <contour>
        <pt x="115" y="646" on="0"/>
        <pt x="155" y="646" on="0"/>
        <pt x="160" y="623" on="1"/>
        <pt x="161" y="507" on="0"/>
        <pt x="164" y="276" on="1"/>
        <pt x="164" y="135" on="0"/>
        <pt x="156" y="37" on="1"/>
        <pt x="154" y="22" on="0"/>
        <pt x="121" y="-1" on="0"/>
        <pt x="104" y="-1" on="1"/>
        <pt x="76" y="-1" on="0"/>
        <pt x="76" y="28" on="1"/>
        <pt x="86" y="128" on="0"/>
        <pt x="86" y="276" on="1"/>
        <pt x="80" y="612" on="1"/>
        <pt x="84" y="626" on="0"/>
      </contour>
    </TTGlyph>
    <TTGlyph name="Icircumflex" xMin="-2" yMin="-1" xMax="243" yMax="852">
      <contour>
        <pt x="-2" y="772" on="0"/>
        <pt x="100" y="852" on="0"/>
        <pt x="145" y="852" on="0"/>
        <pt x="243" y="777" on="0"/>
        <pt x="243" y="754" on="1"/>
        <pt x="243" y="740" on="0"/>
        <pt x="219" y="720" on="0"/>
        <pt x="204" y="720" on="0"/>
        <pt x="130" y="784" on="0"/>
        <pt x="112" y="784" on="0"/>
        <pt x="45" y="718" on="0"/>
        <pt x="17" y="718" on="0"/>
        <pt x="-2" y="741" on="0"/>
      </contour>
      <contour>
        <pt x="115" y="646" on="0"/>
        <pt x="155" y="646" on="0"/>
        <pt x="160" y="623" on="1"/>
        <pt x="161" y="507" on="0"/>
        <pt x="164" y="276" on="1"/>
        <pt x="164" y="135" on="0"/>
        <pt x="156" y="37" on="1"/>
        <pt x="154" y="22" on="0"/>
        <pt x="121" y="-1" on="0"/>
        <pt x="104" y="-1" on="1"/>
        <pt x="76" y="-1" on="0"/>
        <pt x="76" y="28" on="1"/>
        <pt x="86" y="128" on="0"/>
        <pt x="86" y="276" on="1"/>
        <pt x="80" y="612" on="1"/>
        <pt x="84" y="626" on="0"/>
      </contour>
    </TTGlyph>
    <TTGlyph name="Idieresis" xMin="-15" yMin="-1" xMax="254" yMax="809">
      <contour>
        <pt x="30" y="712" on="1"/>
        <pt x="-8" y="712" on="0"/>
        <pt x="-15" y="751" on="1"/>
        <pt x="-15" y="774" on="0"/>
        <pt x="19" y="809" on="0"/>
        <pt x="60" y="809" on="0"/>
        <pt x="84" y="781" on="0"/>
        <pt x="85" y="757" on="1"/>
        <pt x="82" y="737" on="0"/>
        <pt x="51" y="712" on="0"/>
      </contour>
      <contour>
        <pt x="210" y="808" on="1"/>
        <pt x="228" y="808" on="0"/>
        <pt x="253" y="787" on="0"/>
        <pt x="254" y="769" on="1"/>
        <pt x="251" y="744" on="0"/>
        <pt x="221" y="715" on="0"/>
        <pt x="182" y="715" on="0"/>
        <pt x="156" y="742" on="0"/>
        <pt x="156" y="763" on="1"/>
        <pt x="156" y="808" on="0"/>
      </contour>
      <contour>
        <pt x="115" y="646" on="0"/>
        <pt x="155" y="646" on="0"/>
        <pt x="160" y="623" on="1"/>
        <pt x="161" y="507" on="0"/>
        <pt x="164" y="276" on="1"/>
        <pt x="164" y="135" on="0"/>
        <pt x="156" y="37" on="1"/>
        <pt x="154" y="22" on="0"/>
        <pt x="121" y="-1" on="0"/>
        <pt x="104" y="-1" on="1"/>
        <pt x="76" y="-1" on="0"/>
        <pt x="76" y="28" on="1"/>
        <pt x="86" y="128" on="0"/>
        <pt x="86" y="276" on="1"/>
        <pt x="80" y="612" on="1"/>
        <pt x="84" y="626" on="0"/>
      </contour>
    </TTGlyph>
    <TTGlyph name="Idotaccent" xMin="66" yMin="-1" xMax="170" yMax="829">
      <contour>
        <pt x="120" y="828" on="1"/>
        <pt x="138" y="828" on="0"/>
        <pt x="170" y="794" on="0"/>
        <pt x="170" y="757" on="0"/>
        <pt x="135" y="719" on="0"/>
        <pt x="97" y="719" on="0"/>
        <pt x="66" y="751" on="0"/>
        <pt x="66" y="776" on="1"/>
        <pt x="66" y="824" on="0"/>
        <pt x="118" y="828" on="1"/>
        <pt x="119" y="828" on="0"/>
      </contour>
      <contour>
        <pt x="115" y="646" on="0"/>
        <pt x="155" y="646" on="0"/>
        <pt x="160" y="623" on="1"/>
        <pt x="161" y="507" on="0"/>
        <pt x="164" y="276" on="1"/>
        <pt x="164" y="135" on="0"/>
        <pt x="156" y="37" on="1"/>
        <pt x="154" y="22" on="0"/>
        <pt x="121" y="-1" on="0"/>
        <pt x="104" y="-1" on="1"/>
        <pt x="76" y="-1" on="0"/>
        <pt x="76" y="28" on="1"/>
        <pt x="86" y="128" on="0"/>
        <pt x="86" y="276" on="1"/>
        <pt x="80" y="612" on="1"/>
        <pt x="84" y="626" on="0"/>
      </contour>
    </TTGlyph>
    <TTGlyph name="Idotbelow" xMin="64" yMin="-145" xMax="164" yMax="646">
      <contour>
        <pt x="115" y="646" on="0"/>
        <pt x="155" y="646" on="0"/>
        <pt x="160" y="623" on="1"/>
        <pt x="161" y="507" on="0"/>
        <pt x="164" y="276" on="1"/>
        <pt x="164" y="135" on="0"/>
        <pt x="156" y="37" on="1"/>
        <pt x="154" y="22" on="0"/>
        <pt x="121" y="-1" on="0"/>
        <pt x="104" y="-1" on="1"/>
        <pt x="76" y="-1" on="0"/>
        <pt x="76" y="28" on="1"/>
        <pt x="86" y="128" on="0"/>
        <pt x="86" y="276" on="1"/>
        <pt x="80" y="612" on="1"/>
        <pt x="84" y="626" on="0"/>
      </contour>
      <contour>
        <pt x="129" y="-46" on="0"/>
        <pt x="158" y="-76" on="0"/>
        <pt x="158" y="-111" on="0"/>
        <pt x="127" y="-145" on="0"/>
        <pt x="92" y="-145" on="0"/>
        <pt x="66" y="-117" on="0"/>
        <pt x="64" y="-93" on="1"/>
        <pt x="68" y="-70" on="0"/>
        <pt x="78" y="-59" on="1"/>
        <pt x="90" y="-46" on="0"/>
      </contour>
    </TTGlyph>
    <TTGlyph name="Igrave" xMin="37" yMin="-1" xMax="199" yMax="871">
      <contour>
        <pt x="180" y="763" on="1"/>
        <pt x="198" y="754" on="0"/>
        <pt x="198" y="725" on="1"/>
        <pt x="198" y="717" on="0"/>
        <pt x="192" y="711" on="1"/>
        <pt x="183" y="697" on="0"/>
        <pt x="156" y="697" on="0"/>
        <pt x="119" y="717" on="0"/>
        <pt x="64" y="771" on="0"/>
        <pt x="38" y="822" on="0"/>
        <pt x="38" y="841" on="0"/>
        <pt x="41" y="858" on="0"/>
        <pt x="64" y="871" on="0"/>
        <pt x="78" y="871" on="0"/>
        <pt x="82" y="870" on="1"/>
        <pt x="97" y="866" on="0"/>
        <pt x="149" y="779" on="0"/>
      </contour>
      <contour>
        <pt x="115" y="646" on="0"/>
        <pt x="155" y="646" on="0"/>
        <pt x="160" y="623" on="1"/>
        <pt x="161" y="507" on="0"/>
        <pt x="164" y="276" on="1"/>
        <pt x="164" y="135" on="0"/>
        <pt x="156" y="37" on="1"/>
        <pt x="154" y="22" on="0"/>
        <pt x="121" y="-1" on="0"/>
        <pt x="104" y="-1" on="1"/>
        <pt x="76" y="-1" on="0"/>
        <pt x="76" y="28" on="1"/>
        <pt x="86" y="128" on="0"/>
        <pt x="86" y="276" on="1"/>
        <pt x="80" y="612" on="1"/>
        <pt x="84" y="626" on="0"/>
      </contour>
    </TTGlyph>
    <TTGlyph name="Ihookabove" xMin="54" yMin="-1" xMax="191" yMax="860">
      <contour>
        <pt x="121" y="859" on="1"/>
        <pt x="154" y="859" on="0"/>
        <pt x="190" y="818" on="0"/>
        <pt x="190" y="791" on="0"/>
        <pt x="184" y="775" on="0"/>
        <pt x="154" y="724" on="1"/>
        <pt x="135" y="694" on="0"/>
        <pt x="116" y="694" on="1"/>
        <pt x="110" y="694" on="0"/>
        <pt x="105" y="696" on="1"/>
        <pt x="92" y="701" on="0"/>
        <pt x="94" y="715" on="1"/>
        <pt x="98" y="736" on="0"/>
        <pt x="129" y="773" on="0"/>
        <pt x="137" y="804" on="0"/>
        <pt x="120" y="808" on="1"/>
        <pt x="112" y="808" on="0"/>
        <pt x="105" y="799" on="0"/>
        <pt x="98" y="787" on="0"/>
        <pt x="88" y="776" on="0"/>
        <pt x="70" y="776" on="0"/>
        <pt x="60" y="786" on="1"/>
        <pt x="54" y="793" on="0"/>
        <pt x="54" y="808" on="0"/>
        <pt x="58" y="828" on="0"/>
        <pt x="95" y="859" on="0"/>
        <pt x="118" y="859" on="1"/>
        <pt x="119" y="859" on="0"/>
      </contour>
      <contour>
        <pt x="115" y="646" on="0"/>
        <pt x="155" y="646" on="0"/>
        <pt x="160" y="623" on="1"/>
        <pt x="161" y="507" on="0"/>
        <pt x="164" y="276" on="1"/>
        <pt x="164" y="135" on="0"/>
        <pt x="156" y="37" on="1"/>
        <pt x="154" y="22" on="0"/>
        <pt x="121" y="-1" on="0"/>
        <pt x="104" y="-1" on="1"/>
        <pt x="76" y="-1" on="0"/>
        <pt x="76" y="28" on="1"/>
        <pt x="86" y="128" on="0"/>
        <pt x="86" y="276" on="1"/>
        <pt x="80" y="612" on="1"/>
        <pt x="84" y="626" on="0"/>
      </contour>
    </TTGlyph>
    <TTGlyph name="Imacron" xMin="-51" yMin="-1" xMax="281" yMax="799">
      <contour>
        <pt x="-10" y="796" on="1"/>
        <pt x="107" y="793" on="1"/>
        <pt x="177" y="793" on="0"/>
        <pt x="246" y="798" on="0"/>
        <pt x="259" y="798" on="0"/>
        <pt x="279" y="784" on="0"/>
        <pt x="280" y="770" on="0"/>
        <pt x="280" y="756" on="1"/>
        <pt x="280" y="721" on="0"/>
        <pt x="241" y="717" on="1"/>
        <pt x="192" y="713" on="0"/>
        <pt x="62" y="713" on="0"/>
        <pt x="-18" y="717" on="1"/>
        <pt x="-51" y="718" on="0"/>
        <pt x="-51" y="745" on="1"/>
        <pt x="-51" y="796" on="0"/>
      </contour>
      <contour>
        <pt x="115" y="646" on="0"/>
        <pt x="155" y="646" on="0"/>
        <pt x="160" y="623" on="1"/>
        <pt x="161" y="507" on="0"/>
        <pt x="164" y="276" on="1"/>
        <pt x="164" y="135" on="0"/>
        <pt x="156" y="37" on="1"/>
        <pt x="154" y="22" on="0"/>
        <pt x="121" y="-1" on="0"/>
        <pt x="104" y="-1" on="1"/>
        <pt x="76" y="-1" on="0"/>
        <pt x="76" y="28" on="1"/>
        <pt x="86" y="128" on="0"/>
        <pt x="86" y="276" on="1"/>
        <pt x="80" y="612" on="1"/>
        <pt x="84" y="626" on="0"/>
      </contour>
    </TTGlyph>
    <TTGlyph name="Iogonek" xMin="38" yMin="-159" xMax="226" yMax="646">
      <contour>
        <pt x="115" y="646" on="0"/>
        <pt x="155" y="646" on="0"/>
        <pt x="160" y="623" on="1"/>
        <pt x="161" y="507" on="0"/>
        <pt x="164" y="276" on="1"/>
        <pt x="164" y="135" on="0"/>
        <pt x="156" y="37" on="1"/>
        <pt x="154" y="29" on="0"/>
        <pt x="146" y="16" on="0"/>
        <pt x="132" y="4" on="1"/>
        <pt x="96" y="-25" on="0"/>
        <pt x="96" y="-58" on="1"/>
        <pt x="96" y="-79" on="0"/>
        <pt x="117" y="-104" on="0"/>
        <pt x="144" y="-104" on="0"/>
        <pt x="169" y="-86" on="0"/>
        <pt x="184" y="-71" on="0"/>
        <pt x="207" y="-68" on="0"/>
        <pt x="218" y="-83" on="1"/>
        <pt x="226" y="-90" on="0"/>
        <pt x="226" y="-102" on="0"/>
        <pt x="221" y="-111" on="1"/>
        <pt x="212" y="-129" on="0"/>
        <pt x="197" y="-138" on="1"/>
        <pt x="171" y="-158" on="0"/>
        <pt x="139" y="-158" on="1"/>
        <pt x="130" y="-158" on="0"/>
        <pt x="121" y="-157" on="1"/>
        <pt x="78" y="-152" on="0"/>
        <pt x="38" y="-88" on="0"/>
        <pt x="38" y="-57" on="1"/>
        <pt x="38" y="-2" on="0"/>
        <pt x="77" y="35" on="1"/>
        <pt x="86" y="137" on="0"/>
        <pt x="86" y="276" on="1"/>
        <pt x="80" y="612" on="1"/>
        <pt x="84" y="626" on="0"/>
      </contour>
    </TTGlyph>
    <TTGlyph name="Itilde" xMin="-17" yMin="-1" xMax="253" yMax="830">
      <contour>
        <pt x="-17" y="782" on="0"/>
        <pt x="42" y="830" on="0"/>
        <pt x="95" y="830" on="0"/>
        <pt x="127" y="814" on="0"/>
        <pt x="133" y="804" on="1"/>
        <pt x="149" y="778" on="0"/>
        <pt x="175" y="778" on="0"/>
        <pt x="206" y="826" on="0"/>
        <pt x="233" y="826" on="0"/>
        <pt x="253" y="802" on="0"/>
        <pt x="253" y="789" on="1"/>
        <pt x="253" y="753" on="0"/>
        <pt x="194" y="715" on="0"/>
        <pt x="139" y="715" on="0"/>
        <pt x="109" y="738" on="0"/>
        <pt x="87" y="761" on="0"/>
        <pt x="74" y="761" on="1"/>
        <pt x="68" y="761" on="0"/>
        <pt x="30" y="716" on="0"/>
        <pt x="4" y="716" on="0"/>
        <pt x="-17" y="741" on="0"/>
      </contour>
      <contour>
        <pt x="115" y="646" on="0"/>
        <pt x="155" y="646" on="0"/>
        <pt x="160" y="623" on="1"/>
        <pt x="161" y="507" on="0"/>
        <pt x="164" y="276" on="1"/>
        <pt x="164" y="135" on="0"/>
        <pt x="156" y="37" on="1"/>
        <pt x="154" y="22" on="0"/>
        <pt x="121" y="-1" on="0"/>
        <pt x="104" y="-1" on="1"/>
        <pt x="76" y="-1" on="0"/>
        <pt x="76" y="28" on="1"/>
        <pt x="86" y="128" on="0"/>
        <pt x="86" y="276" on="1"/>
        <pt x="80" y="612" on="1"/>
        <pt x="84" y="626" on="0"/>
      </contour>
    </TTGlyph>
    <TTGlyph name="J" xMin="35" yMin="-4" xMax="341" yMax="668">
      <contour>
        <pt x="239" y="646" on="0"/>
        <pt x="271" y="668" on="0"/>
        <pt x="302" y="668" on="0"/>
        <pt x="319" y="654" on="0"/>
        <pt x="320" y="644" on="1"/>
        <pt x="341" y="374" on="0"/>
        <pt x="341" y="231" on="0"/>
        <pt x="337" y="159" on="0"/>
        <pt x="321" y="76" on="0"/>
        <pt x="306" y="52" on="1"/>
        <pt x="273" y="-4" on="0"/>
        <pt x="127" y="-4" on="0"/>
        <pt x="35" y="93" on="0"/>
        <pt x="35" y="184" on="1"/>
        <pt x="35" y="199" on="0"/>
        <pt x="66" y="224" on="0"/>
        <pt x="84" y="224" on="1"/>
        <pt x="106" y="224" on="0"/>
        <pt x="111" y="183" on="1"/>
        <pt x="124" y="67" on="0"/>
        <pt x="198" y="67" on="1"/>
        <pt x="217" y="67" on="0"/>
        <pt x="244" y="92" on="0"/>
        <pt x="258" y="127" on="0"/>
        <pt x="262" y="156" on="1"/>
        <pt x="268" y="198" on="0"/>
        <pt x="268" y="315" on="0"/>
        <pt x="239" y="625" on="0"/>
      </contour>
    </TTGlyph>
    <TTGlyph name="Jcircumflex" xMin="35" yMin="-4" xMax="395" yMax="852">
      <contour>
        <pt x="150" y="772" on="0"/>
        <pt x="252" y="852" on="0"/>
        <pt x="297" y="852" on="0"/>
        <pt x="395" y="777" on="0"/>
        <pt x="395" y="754" on="1"/>
        <pt x="395" y="740" on="0"/>
        <pt x="371" y="720" on="0"/>
        <pt x="356" y="720" on="0"/>
        <pt x="282" y="784" on="0"/>
        <pt x="264" y="784" on="0"/>
        <pt x="197" y="718" on="0"/>
        <pt x="169" y="718" on="0"/>
        <pt x="150" y="741" on="0"/>
      </contour>
      <contour>
        <pt x="239" y="646" on="0"/>
        <pt x="271" y="668" on="0"/>
        <pt x="302" y="668" on="0"/>
        <pt x="319" y="654" on="0"/>
        <pt x="320" y="644" on="1"/>
        <pt x="341" y="374" on="0"/>
        <pt x="341" y="231" on="0"/>
        <pt x="337" y="159" on="0"/>
        <pt x="321" y="76" on="0"/>
        <pt x="306" y="52" on="1"/>
        <pt x="273" y="-4" on="0"/>
        <pt x="127" y="-4" on="0"/>
        <pt x="35" y="93" on="0"/>
        <pt x="35" y="184" on="1"/>
        <pt x="35" y="199" on="0"/>
        <pt x="66" y="224" on="0"/>
        <pt x="84" y="224" on="1"/>
        <pt x="106" y="224" on="0"/>
        <pt x="111" y="183" on="1"/>
        <pt x="124" y="67" on="0"/>
        <pt x="198" y="67" on="1"/>
        <pt x="217" y="67" on="0"/>
        <pt x="244" y="92" on="0"/>
        <pt x="258" y="127" on="0"/>
        <pt x="262" y="156" on="1"/>
        <pt x="268" y="198" on="0"/>
        <pt x="268" y="315" on="0"/>
        <pt x="239" y="625" on="0"/>
      </contour>
    </TTGlyph>
    <TTGlyph name="K" xMin="47" yMin="1" xMax="504" yMax="664">
      <contour>
        <pt x="73" y="114" on="1"/>
        <pt x="73" y="191" on="0"/>
        <pt x="54" y="558" on="0"/>
        <pt x="47" y="607" on="1"/>
        <pt x="47" y="629" on="0"/>
        <pt x="77" y="662" on="0"/>
        <pt x="96" y="662" on="1"/>
        <pt x="120" y="662" on="0"/>
        <pt x="128" y="632" on="1"/>
        <pt x="144" y="532" on="0"/>
        <pt x="148" y="344" on="1"/>
        <pt x="238" y="427" on="0"/>
        <pt x="337" y="545" on="0"/>
        <pt x="392" y="637" on="1"/>
        <pt x="408" y="664" on="0"/>
        <pt x="439" y="664" on="1"/>
        <pt x="455" y="664" on="0"/>
        <pt x="476" y="647" on="0"/>
        <pt x="476" y="635" on="1"/>
        <pt x="476" y="603" on="0"/>
        <pt x="363" y="446" on="0"/>
        <pt x="300" y="372" on="1"/>
        <pt x="384" y="288" on="0"/>
        <pt x="444" y="178" on="1"/>
        <pt x="452" y="164" on="0"/>
        <pt x="478" y="122" on="0"/>
        <pt x="485" y="110" on="1"/>
        <pt x="504" y="77" on="0"/>
        <pt x="504" y="31" on="0"/>
        <pt x="481" y="2" on="0"/>
        <pt x="447" y="2" on="0"/>
        <pt x="393" y="91" on="0"/>
        <pt x="292" y="254" on="0"/>
        <pt x="236" y="316" on="1"/>
        <pt x="180" y="262" on="0"/>
        <pt x="152" y="241" on="1"/>
        <pt x="155" y="177" on="0"/>
        <pt x="155" y="92" on="0"/>
        <pt x="153" y="66" on="1"/>
        <pt x="147" y="1" on="0"/>
        <pt x="100" y="1" on="1"/>
        <pt x="71" y="1" on="0"/>
        <pt x="73" y="36" on="1"/>
      </contour>
    </TTGlyph>
    <TTGlyph name="Kcommaaccent" xMin="47" yMin="-208" xMax="504" yMax="664">
      <contour>
        <pt x="73" y="114" on="1"/>
        <pt x="73" y="191" on="0"/>
        <pt x="54" y="558" on="0"/>
        <pt x="47" y="607" on="1"/>
        <pt x="47" y="629" on="0"/>
        <pt x="77" y="662" on="0"/>
        <pt x="96" y="662" on="1"/>
        <pt x="120" y="662" on="0"/>
        <pt x="128" y="632" on="1"/>
        <pt x="144" y="532" on="0"/>
        <pt x="148" y="344" on="1"/>
        <pt x="238" y="427" on="0"/>
        <pt x="337" y="545" on="0"/>
        <pt x="392" y="637" on="1"/>
        <pt x="408" y="664" on="0"/>
        <pt x="439" y="664" on="1"/>
        <pt x="455" y="664" on="0"/>
        <pt x="476" y="647" on="0"/>
        <pt x="476" y="635" on="1"/>
        <pt x="476" y="603" on="0"/>
        <pt x="363" y="446" on="0"/>
        <pt x="300" y="372" on="1"/>
        <pt x="384" y="288" on="0"/>
        <pt x="444" y="178" on="1"/>
        <pt x="452" y="164" on="0"/>
        <pt x="478" y="122" on="0"/>
        <pt x="485" y="110" on="1"/>
        <pt x="504" y="77" on="0"/>
        <pt x="504" y="31" on="0"/>
        <pt x="481" y="2" on="0"/>
        <pt x="447" y="2" on="0"/>
        <pt x="393" y="91" on="0"/>
        <pt x="292" y="254" on="0"/>
        <pt x="236" y="316" on="1"/>
        <pt x="180" y="262" on="0"/>
        <pt x="152" y="241" on="1"/>
        <pt x="155" y="177" on="0"/>
        <pt x="155" y="92" on="0"/>
        <pt x="153" y="66" on="1"/>
        <pt x="147" y="1" on="0"/>
        <pt x="100" y="1" on="1"/>
        <pt x="71" y="1" on="0"/>
        <pt x="73" y="36" on="1"/>
      </contour>
      <contour>
        <pt x="268" y="-39" on="0"/>
        <pt x="304" y="-39" on="0"/>
        <pt x="323" y="-64" on="0"/>
        <pt x="323" y="-82" on="0"/>
        <pt x="320" y="-90" on="1"/>
        <pt x="307" y="-132" on="0"/>
        <pt x="231" y="-208" on="0"/>
        <pt x="194" y="-208" on="0"/>
        <pt x="174" y="-188" on="0"/>
        <pt x="174" y="-159" on="0"/>
        <pt x="199" y="-130" on="0"/>
        <pt x="244" y="-83" on="0"/>
      </contour>
    </TTGlyph>
    <TTGlyph name="L" xMin="27" yMin="-1" xMax="344" yMax="661">
      <contour>
        <pt x="27" y="139" on="1"/>
        <pt x="28" y="217" on="1"/>
        <pt x="37" y="635" on="1"/>
        <pt x="37" y="647" on="0"/>
        <pt x="63" y="661" on="0"/>
        <pt x="83" y="661" on="1"/>
        <pt x="131" y="661" on="0"/>
        <pt x="131" y="627" on="1"/>
        <pt x="131" y="616" on="0"/>
        <pt x="108" y="302" on="0"/>
        <pt x="108" y="271" on="1"/>
        <pt x="108" y="271" on="0"/>
        <pt x="108" y="165" on="1"/>
        <pt x="108" y="90" on="0"/>
        <pt x="118" y="83" on="1"/>
        <pt x="133" y="78" on="0"/>
        <pt x="153" y="78" on="1"/>
        <pt x="297" y="88" on="1"/>
        <pt x="344" y="88" on="0"/>
        <pt x="344" y="54" on="1"/>
        <pt x="344" y="27" on="0"/>
        <pt x="293" y="2" on="0"/>
        <pt x="243" y="-1" on="0"/>
        <pt x="207" y="-1" on="1"/>
        <pt x="50" y="-1" on="0"/>
        <pt x="37" y="9" on="1"/>
        <pt x="30" y="15" on="0"/>
        <pt x="28" y="94" on="0"/>
        <pt x="27" y="126" on="0"/>
      </contour>
    </TTGlyph>
    <TTGlyph name="Lacute" xMin="6" yMin="-1" xMax="344" yMax="877">
      <contour>
        <pt x="91" y="860" on="1"/>
        <pt x="97" y="877" on="0"/>
        <pt x="136" y="877" on="0"/>
        <pt x="159" y="853" on="0"/>
        <pt x="159" y="838" on="0"/>
        <pt x="157" y="833" on="1"/>
        <pt x="141" y="788" on="0"/>
        <pt x="66" y="708" on="0"/>
        <pt x="26" y="708" on="0"/>
        <pt x="6" y="728" on="0"/>
        <pt x="6" y="755" on="0"/>
        <pt x="22" y="768" on="1"/>
        <pt x="75" y="811" on="0"/>
      </contour>
      <contour>
        <pt x="27" y="139" on="1"/>
        <pt x="28" y="217" on="1"/>
        <pt x="37" y="635" on="1"/>
        <pt x="37" y="647" on="0"/>
        <pt x="63" y="661" on="0"/>
        <pt x="83" y="661" on="1"/>
        <pt x="131" y="661" on="0"/>
        <pt x="131" y="627" on="1"/>
        <pt x="131" y="616" on="0"/>
        <pt x="108" y="302" on="0"/>
        <pt x="108" y="271" on="1"/>
        <pt x="108" y="165" on="1"/>
        <pt x="108" y="90" on="0"/>
        <pt x="118" y="83" on="1"/>
        <pt x="133" y="78" on="0"/>
        <pt x="153" y="78" on="1"/>
        <pt x="297" y="88" on="1"/>
        <pt x="344" y="88" on="0"/>
        <pt x="344" y="54" on="1"/>
        <pt x="344" y="27" on="0"/>
        <pt x="293" y="2" on="0"/>
        <pt x="243" y="-1" on="0"/>
        <pt x="207" y="-1" on="1"/>
        <pt x="50" y="-1" on="0"/>
        <pt x="37" y="9" on="1"/>
        <pt x="30" y="15" on="0"/>
        <pt x="28" y="94" on="0"/>
        <pt x="27" y="126" on="0"/>
      </contour>
    </TTGlyph>
    <TTGlyph name="Lcaron" xMin="27" yMin="-1" xMax="344" yMax="662">
      <contour>
        <pt x="240" y="644" on="0"/>
        <pt x="261" y="662" on="0"/>
        <pt x="288" y="662" on="0"/>
        <pt x="311" y="643" on="0"/>
        <pt x="311" y="627" on="1"/>
        <pt x="311" y="570" on="0"/>
        <pt x="271" y="470" on="0"/>
        <pt x="205" y="470" on="0"/>
        <pt x="205" y="504" on="1"/>
        <pt x="205" y="518" on="0"/>
        <pt x="240" y="590" on="0"/>
        <pt x="240" y="630" on="1"/>
      </contour>
      <contour>
        <pt x="27" y="139" on="1"/>
        <pt x="28" y="217" on="1"/>
        <pt x="37" y="635" on="1"/>
        <pt x="37" y="647" on="0"/>
        <pt x="63" y="661" on="0"/>
        <pt x="83" y="661" on="1"/>
        <pt x="131" y="661" on="0"/>
        <pt x="131" y="627" on="1"/>
        <pt x="131" y="616" on="0"/>
        <pt x="108" y="302" on="0"/>
        <pt x="108" y="271" on="1"/>
        <pt x="108" y="165" on="1"/>
        <pt x="108" y="90" on="0"/>
        <pt x="118" y="83" on="1"/>
        <pt x="133" y="78" on="0"/>
        <pt x="153" y="78" on="1"/>
        <pt x="297" y="88" on="1"/>
        <pt x="344" y="88" on="0"/>
        <pt x="344" y="54" on="1"/>
        <pt x="344" y="27" on="0"/>
        <pt x="293" y="2" on="0"/>
        <pt x="243" y="-1" on="0"/>
        <pt x="207" y="-1" on="1"/>
        <pt x="50" y="-1" on="0"/>
        <pt x="37" y="9" on="1"/>
        <pt x="30" y="15" on="0"/>
        <pt x="28" y="94" on="0"/>
        <pt x="27" y="126" on="0"/>
      </contour>
    </TTGlyph>
    <TTGlyph name="Lcommaaccent" xMin="27" yMin="-208" xMax="344" yMax="661">
      <contour>
        <pt x="27" y="139" on="1"/>
        <pt x="28" y="217" on="1"/>
        <pt x="37" y="635" on="1"/>
        <pt x="37" y="647" on="0"/>
        <pt x="63" y="661" on="0"/>
        <pt x="83" y="661" on="1"/>
        <pt x="131" y="661" on="0"/>
        <pt x="131" y="627" on="1"/>
        <pt x="131" y="616" on="0"/>
        <pt x="108" y="302" on="0"/>
        <pt x="108" y="271" on="1"/>
        <pt x="108" y="271" on="0"/>
        <pt x="108" y="165" on="1"/>
        <pt x="108" y="90" on="0"/>
        <pt x="118" y="83" on="1"/>
        <pt x="133" y="78" on="0"/>
        <pt x="153" y="78" on="1"/>
        <pt x="297" y="88" on="1"/>
        <pt x="344" y="88" on="0"/>
        <pt x="344" y="54" on="1"/>
        <pt x="344" y="27" on="0"/>
        <pt x="293" y="2" on="0"/>
        <pt x="243" y="-1" on="0"/>
        <pt x="207" y="-1" on="1"/>
        <pt x="50" y="-1" on="0"/>
        <pt x="37" y="9" on="1"/>
        <pt x="30" y="15" on="0"/>
        <pt x="28" y="94" on="0"/>
        <pt x="27" y="126" on="0"/>
      </contour>
      <contour>
        <pt x="183" y="-39" on="0"/>
        <pt x="219" y="-39" on="0"/>
        <pt x="238" y="-64" on="0"/>
        <pt x="238" y="-82" on="0"/>
        <pt x="235" y="-90" on="1"/>
        <pt x="222" y="-132" on="0"/>
        <pt x="146" y="-208" on="0"/>
        <pt x="109" y="-208" on="0"/>
        <pt x="89" y="-188" on="0"/>
        <pt x="89" y="-159" on="0"/>
        <pt x="114" y="-130" on="0"/>
        <pt x="159" y="-83" on="0"/>
      </contour>
    </TTGlyph>
    <TTGlyph name="Ldot" xMin="27" yMin="-1" xMax="344" yMax="661">
      <contour>
        <pt x="27" y="139" on="1"/>
        <pt x="28" y="217" on="1"/>
        <pt x="37" y="635" on="1"/>
        <pt x="37" y="647" on="0"/>
        <pt x="63" y="661" on="0"/>
        <pt x="83" y="661" on="1"/>
        <pt x="131" y="661" on="0"/>
        <pt x="131" y="627" on="1"/>
        <pt x="131" y="616" on="0"/>
        <pt x="108" y="302" on="0"/>
        <pt x="108" y="271" on="1"/>
        <pt x="108" y="271" on="0"/>
        <pt x="108" y="165" on="1"/>
        <pt x="108" y="90" on="0"/>
        <pt x="118" y="83" on="1"/>
        <pt x="133" y="78" on="0"/>
        <pt x="153" y="78" on="1"/>
        <pt x="297" y="88" on="1"/>
        <pt x="344" y="88" on="0"/>
        <pt x="344" y="54" on="1"/>
        <pt x="344" y="27" on="0"/>
        <pt x="293" y="2" on="0"/>
        <pt x="243" y="-1" on="0"/>
        <pt x="207" y="-1" on="1"/>
        <pt x="50" y="-1" on="0"/>
        <pt x="37" y="9" on="1"/>
        <pt x="30" y="15" on="0"/>
        <pt x="28" y="94" on="0"/>
        <pt x="27" y="126" on="0"/>
      </contour>
      <contour>
        <pt x="200" y="289" on="0"/>
        <pt x="231" y="337" on="0"/>
        <pt x="274" y="337" on="0"/>
        <pt x="306" y="305" on="0"/>
        <pt x="309" y="277" on="1"/>
        <pt x="309" y="255" on="0"/>
        <pt x="277" y="218" on="0"/>
        <pt x="234" y="218" on="0"/>
        <pt x="200" y="241" on="0"/>
      </contour>
    </TTGlyph>
    <TTGlyph name="Lslash" xMin="21" yMin="-1" xMax="439" yMax="661">
      <contour>
        <pt x="122" y="139" on="1"/>
        <pt x="123" y="217" on="1"/>
        <pt x="124" y="264" on="1"/>
        <pt x="77" y="241" on="1"/>
        <pt x="67" y="236" on="0"/>
        <pt x="40" y="236" on="0"/>
        <pt x="29" y="255" on="1"/>
        <pt x="22" y="269" on="0"/>
        <pt x="22" y="283" on="0"/>
        <pt x="29" y="298" on="0"/>
        <pt x="80" y="329" on="0"/>
        <pt x="126" y="354" on="1"/>
        <pt x="132" y="635" on="1"/>
        <pt x="132" y="647" on="0"/>
        <pt x="158" y="661" on="0"/>
        <pt x="178" y="661" on="1"/>
        <pt x="226" y="661" on="0"/>
        <pt x="226" y="627" on="1"/>
        <pt x="226" y="610" on="0"/>
        <pt x="213" y="440" on="0"/>
        <pt x="211" y="405" on="1"/>
        <pt x="241" y="426" on="0"/>
        <pt x="261" y="442" on="1"/>
        <pt x="299" y="474" on="0"/>
        <pt x="319" y="442" on="1"/>
        <pt x="328" y="429" on="0"/>
        <pt x="328" y="397" on="0"/>
        <pt x="306" y="379" on="1"/>
        <pt x="261" y="344" on="0"/>
        <pt x="205" y="309" on="1"/>
        <pt x="203" y="261" on="0"/>
        <pt x="203" y="250" on="1"/>
        <pt x="203" y="165" on="1"/>
        <pt x="203" y="90" on="0"/>
        <pt x="213" y="83" on="1"/>
        <pt x="228" y="78" on="0"/>
        <pt x="248" y="78" on="1"/>
        <pt x="392" y="88" on="1"/>
        <pt x="439" y="88" on="0"/>
        <pt x="439" y="54" on="1"/>
        <pt x="439" y="27" on="0"/>
        <pt x="388" y="2" on="0"/>
        <pt x="338" y="-1" on="0"/>
        <pt x="302" y="-1" on="1"/>
        <pt x="144" y="-1" on="0"/>
        <pt x="132" y="9" on="1"/>
        <pt x="125" y="15" on="0"/>
        <pt x="123" y="94" on="0"/>
        <pt x="122" y="126" on="0"/>
      </contour>
    </TTGlyph>
    <TTGlyph name="M" xMin="51" yMin="-1" xMax="549" yMax="666">
      <contour>
        <pt x="513" y="666" on="1"/>
        <pt x="537" y="666" on="0"/>
        <pt x="544" y="631" on="1"/>
        <pt x="549" y="468" on="0"/>
        <pt x="549" y="83" on="0"/>
        <pt x="545" y="23" on="0"/>
        <pt x="523" y="-1" on="0"/>
        <pt x="494" y="-1" on="1"/>
        <pt x="468" y="-1" on="0"/>
        <pt x="468" y="31" on="1"/>
        <pt x="468" y="257" on="1"/>
        <pt x="468" y="312" on="0"/>
        <pt x="464" y="428" on="0"/>
        <pt x="464" y="443" on="1"/>
        <pt x="430" y="385" on="0"/>
        <pt x="318" y="310" on="0"/>
        <pt x="180" y="310" on="0"/>
        <pt x="133" y="367" on="1"/>
        <pt x="131" y="306" on="0"/>
        <pt x="131" y="139" on="0"/>
        <pt x="132" y="47" on="1"/>
        <pt x="132" y="22" on="0"/>
        <pt x="99" y="-1" on="0"/>
        <pt x="78" y="-1" on="1"/>
        <pt x="51" y="-1" on="0"/>
        <pt x="51" y="32" on="1"/>
        <pt x="52" y="122" on="0"/>
        <pt x="52" y="317" on="1"/>
        <pt x="52" y="601" on="1"/>
        <pt x="52" y="618" on="0"/>
        <pt x="75" y="650" on="0"/>
        <pt x="106" y="650" on="0"/>
        <pt x="132" y="633" on="0"/>
        <pt x="133" y="616" on="1"/>
        <pt x="137" y="505" on="0"/>
        <pt x="201" y="397" on="0"/>
        <pt x="289" y="397" on="0"/>
        <pt x="352" y="426" on="0"/>
        <pt x="393" y="464" on="0"/>
        <pt x="412" y="499" on="1"/>
        <pt x="439" y="549" on="0"/>
        <pt x="464" y="622" on="1"/>
        <pt x="479" y="666" on="0"/>
      </contour>
    </TTGlyph>
</ttFont>
